%TF.GenerationSoftware,KiCad,Pcbnew,7.0.9*%
%TF.CreationDate,2024-08-25T21:19:36+01:00*%
%TF.ProjectId,RISKYKVM,5249534b-594b-4564-9d2e-6b696361645f,rev?*%
%TF.SameCoordinates,Original*%
%TF.FileFunction,Copper,L2,Inr*%
%TF.FilePolarity,Positive*%
%FSLAX46Y46*%
G04 Gerber Fmt 4.6, Leading zero omitted, Abs format (unit mm)*
G04 Created by KiCad (PCBNEW 7.0.9) date 2024-08-25 21:19:36*
%MOMM*%
%LPD*%
G01*
G04 APERTURE LIST*
%TA.AperFunction,ComponentPad*%
%ADD10R,1.700000X1.700000*%
%TD*%
%TA.AperFunction,ComponentPad*%
%ADD11O,1.700000X1.700000*%
%TD*%
%TA.AperFunction,ComponentPad*%
%ADD12R,1.524000X1.524000*%
%TD*%
%TA.AperFunction,ComponentPad*%
%ADD13C,1.524000*%
%TD*%
%TA.AperFunction,ComponentPad*%
%ADD14C,3.500000*%
%TD*%
%TA.AperFunction,ViaPad*%
%ADD15C,0.600000*%
%TD*%
G04 APERTURE END LIST*
D10*
%TO.N,/KB_CLK*%
%TO.C,J4*%
X140390000Y-84610000D03*
D11*
%TO.N,/KB_DATA*%
X140390000Y-87150000D03*
%TO.N,/KB_RESET*%
X140390000Y-89690000D03*
%TO.N,+5V*%
X140390000Y-92230000D03*
%TO.N,unconnected-(J4-Pin_5-Pad5)*%
X140390000Y-94770000D03*
%TO.N,GND*%
X140390000Y-97310000D03*
%TO.N,unconnected-(J4-Pin_7-Pad7)*%
X140390000Y-99850000D03*
%TO.N,unconnected-(J4-Pin_8-Pad8)*%
X140390000Y-102390000D03*
%TD*%
D12*
%TO.N,Net-(J3-VBUS)*%
%TO.C,J3*%
X133675000Y-81267100D03*
D13*
%TO.N,/USB_DM*%
X131175000Y-81267100D03*
%TO.N,/USB_DP*%
X129175000Y-81267100D03*
%TO.N,GND*%
X126675000Y-81267100D03*
D14*
X136745000Y-78557100D03*
X123605000Y-78557100D03*
%TD*%
D10*
%TO.N,/SWCLK*%
%TO.C,J2*%
X135400000Y-85000000D03*
D11*
%TO.N,/SWDIO*%
X135400000Y-87540000D03*
%TD*%
D15*
%TO.N,GND*%
X130700000Y-94900000D03*
%TO.N,+3.3V*%
X122630000Y-98740000D03*
X132085400Y-90319400D03*
X119775000Y-77375000D03*
X132466400Y-95831200D03*
X121925000Y-104650000D03*
X127107000Y-90344800D03*
X126530218Y-93916221D03*
%TO.N,GND*%
X137100000Y-92450000D03*
X128900000Y-108100000D03*
X131980000Y-98100000D03*
X124077800Y-98676900D03*
X122600000Y-95100000D03*
X129720000Y-77770000D03*
X128010000Y-99540000D03*
X122600000Y-97000000D03*
%TO.N,+5V*%
X121131400Y-99134100D03*
X128360000Y-83820000D03*
%TO.N,/NRST*%
X126566051Y-92941667D03*
%TO.N,/PIN6*%
X134455000Y-107797500D03*
%TO.N,/PIN9*%
X126145000Y-107797500D03*
%TO.N,Net-(D1-A)*%
X120150000Y-104630000D03*
%TO.N,Net-(D2-A)*%
X119800000Y-79250000D03*
%TD*%
%TA.AperFunction,Conductor*%
%TO.N,GND*%
G36*
X142360739Y-75365585D02*
G01*
X142406494Y-75418389D01*
X142417700Y-75469900D01*
X142417700Y-109575748D01*
X142398015Y-109642787D01*
X142345211Y-109688542D01*
X142293650Y-109699748D01*
X118626250Y-109690246D01*
X118559219Y-109670535D01*
X118513485Y-109617712D01*
X118502300Y-109566246D01*
X118502300Y-107797503D01*
X125339435Y-107797503D01*
X125359630Y-107976749D01*
X125359631Y-107976754D01*
X125419211Y-108147023D01*
X125515184Y-108299762D01*
X125642738Y-108427316D01*
X125795478Y-108523289D01*
X125965745Y-108582868D01*
X125965750Y-108582869D01*
X126144996Y-108603065D01*
X126145000Y-108603065D01*
X126145004Y-108603065D01*
X126324249Y-108582869D01*
X126324252Y-108582868D01*
X126324255Y-108582868D01*
X126494522Y-108523289D01*
X126647262Y-108427316D01*
X126774816Y-108299762D01*
X126870789Y-108147022D01*
X126930368Y-107976755D01*
X126950565Y-107797503D01*
X133649435Y-107797503D01*
X133669630Y-107976749D01*
X133669631Y-107976754D01*
X133729211Y-108147023D01*
X133825184Y-108299762D01*
X133952738Y-108427316D01*
X134105478Y-108523289D01*
X134275745Y-108582868D01*
X134275750Y-108582869D01*
X134454996Y-108603065D01*
X134455000Y-108603065D01*
X134455004Y-108603065D01*
X134634249Y-108582869D01*
X134634252Y-108582868D01*
X134634255Y-108582868D01*
X134804522Y-108523289D01*
X134957262Y-108427316D01*
X135084816Y-108299762D01*
X135180789Y-108147022D01*
X135240368Y-107976755D01*
X135260565Y-107797500D01*
X135240368Y-107618245D01*
X135180789Y-107447978D01*
X135084816Y-107295238D01*
X134957262Y-107167684D01*
X134804523Y-107071711D01*
X134634254Y-107012131D01*
X134634249Y-107012130D01*
X134455004Y-106991935D01*
X134454996Y-106991935D01*
X134275750Y-107012130D01*
X134275745Y-107012131D01*
X134105476Y-107071711D01*
X133952737Y-107167684D01*
X133825184Y-107295237D01*
X133729211Y-107447976D01*
X133669631Y-107618245D01*
X133669630Y-107618250D01*
X133649435Y-107797496D01*
X133649435Y-107797503D01*
X126950565Y-107797503D01*
X126950565Y-107797500D01*
X126930368Y-107618245D01*
X126870789Y-107447978D01*
X126774816Y-107295238D01*
X126647262Y-107167684D01*
X126494523Y-107071711D01*
X126324254Y-107012131D01*
X126324249Y-107012130D01*
X126145004Y-106991935D01*
X126144996Y-106991935D01*
X125965750Y-107012130D01*
X125965745Y-107012131D01*
X125795476Y-107071711D01*
X125642737Y-107167684D01*
X125515184Y-107295237D01*
X125419211Y-107447976D01*
X125359631Y-107618245D01*
X125359630Y-107618250D01*
X125339435Y-107797496D01*
X125339435Y-107797503D01*
X118502300Y-107797503D01*
X118502300Y-104630003D01*
X119344435Y-104630003D01*
X119364630Y-104809249D01*
X119364631Y-104809254D01*
X119424211Y-104979523D01*
X119436778Y-104999523D01*
X119520184Y-105132262D01*
X119647738Y-105259816D01*
X119800478Y-105355789D01*
X119857632Y-105375788D01*
X119970745Y-105415368D01*
X119970750Y-105415369D01*
X120149996Y-105435565D01*
X120150000Y-105435565D01*
X120150004Y-105435565D01*
X120329249Y-105415369D01*
X120329252Y-105415368D01*
X120329255Y-105415368D01*
X120499522Y-105355789D01*
X120652262Y-105259816D01*
X120779816Y-105132262D01*
X120875789Y-104979522D01*
X120916959Y-104861864D01*
X120957679Y-104805090D01*
X121022632Y-104779342D01*
X121091194Y-104792798D01*
X121141597Y-104841185D01*
X121151041Y-104861865D01*
X121199209Y-104999519D01*
X121199211Y-104999522D01*
X121295184Y-105152262D01*
X121422738Y-105279816D01*
X121513080Y-105336582D01*
X121543646Y-105355788D01*
X121575478Y-105375789D01*
X121688591Y-105415369D01*
X121745745Y-105435368D01*
X121745750Y-105435369D01*
X121924996Y-105455565D01*
X121925000Y-105455565D01*
X121925004Y-105455565D01*
X122104249Y-105435369D01*
X122104252Y-105435368D01*
X122104255Y-105435368D01*
X122274522Y-105375789D01*
X122427262Y-105279816D01*
X122554816Y-105152262D01*
X122650789Y-104999522D01*
X122710368Y-104829255D01*
X122710369Y-104829249D01*
X122730565Y-104650003D01*
X122730565Y-104649996D01*
X122710369Y-104470750D01*
X122710368Y-104470745D01*
X122703370Y-104450745D01*
X122650789Y-104300478D01*
X122554816Y-104147738D01*
X122427262Y-104020184D01*
X122395432Y-104000184D01*
X122274523Y-103924211D01*
X122104254Y-103864631D01*
X122104249Y-103864630D01*
X121925004Y-103844435D01*
X121924996Y-103844435D01*
X121745750Y-103864630D01*
X121745745Y-103864631D01*
X121575476Y-103924211D01*
X121422737Y-104020184D01*
X121295184Y-104147737D01*
X121199209Y-104300480D01*
X121158040Y-104418134D01*
X121117319Y-104474910D01*
X121052366Y-104500657D01*
X120983804Y-104487201D01*
X120933401Y-104438813D01*
X120923957Y-104418134D01*
X120918537Y-104402646D01*
X120875789Y-104280478D01*
X120779816Y-104127738D01*
X120652262Y-104000184D01*
X120499523Y-103904211D01*
X120329254Y-103844631D01*
X120329249Y-103844630D01*
X120150004Y-103824435D01*
X120149996Y-103824435D01*
X119970750Y-103844630D01*
X119970745Y-103844631D01*
X119800476Y-103904211D01*
X119647737Y-104000184D01*
X119520184Y-104127737D01*
X119424211Y-104280476D01*
X119364631Y-104450745D01*
X119364630Y-104450750D01*
X119344435Y-104629996D01*
X119344435Y-104630003D01*
X118502300Y-104630003D01*
X118502300Y-102390000D01*
X139034341Y-102390000D01*
X139054936Y-102625403D01*
X139054938Y-102625413D01*
X139116094Y-102853655D01*
X139116096Y-102853659D01*
X139116097Y-102853663D01*
X139215965Y-103067830D01*
X139215967Y-103067834D01*
X139324281Y-103222521D01*
X139351505Y-103261401D01*
X139518599Y-103428495D01*
X139615384Y-103496265D01*
X139712165Y-103564032D01*
X139712167Y-103564033D01*
X139712170Y-103564035D01*
X139926337Y-103663903D01*
X140154592Y-103725063D01*
X140342918Y-103741539D01*
X140389999Y-103745659D01*
X140390000Y-103745659D01*
X140390001Y-103745659D01*
X140429234Y-103742226D01*
X140625408Y-103725063D01*
X140853663Y-103663903D01*
X141067830Y-103564035D01*
X141261401Y-103428495D01*
X141428495Y-103261401D01*
X141564035Y-103067830D01*
X141663903Y-102853663D01*
X141725063Y-102625408D01*
X141745659Y-102390000D01*
X141725063Y-102154592D01*
X141663903Y-101926337D01*
X141564035Y-101712171D01*
X141428495Y-101518599D01*
X141428494Y-101518597D01*
X141261402Y-101351506D01*
X141261396Y-101351501D01*
X141075842Y-101221575D01*
X141032217Y-101166998D01*
X141025023Y-101097500D01*
X141056546Y-101035145D01*
X141075842Y-101018425D01*
X141098026Y-101002891D01*
X141261401Y-100888495D01*
X141428495Y-100721401D01*
X141564035Y-100527830D01*
X141663903Y-100313663D01*
X141725063Y-100085408D01*
X141745659Y-99850000D01*
X141725063Y-99614592D01*
X141663903Y-99386337D01*
X141564035Y-99172171D01*
X141506165Y-99089523D01*
X141428494Y-98978597D01*
X141261402Y-98811506D01*
X141261401Y-98811505D01*
X141075405Y-98681269D01*
X141031781Y-98626692D01*
X141024588Y-98557193D01*
X141056110Y-98494839D01*
X141075405Y-98478119D01*
X141261082Y-98348105D01*
X141428105Y-98181082D01*
X141563600Y-97987578D01*
X141663429Y-97773492D01*
X141663432Y-97773486D01*
X141720636Y-97560000D01*
X140823686Y-97560000D01*
X140849493Y-97519844D01*
X140890000Y-97381889D01*
X140890000Y-97238111D01*
X140849493Y-97100156D01*
X140823686Y-97060000D01*
X141720636Y-97060000D01*
X141720635Y-97059999D01*
X141663432Y-96846513D01*
X141663429Y-96846507D01*
X141563600Y-96632422D01*
X141563599Y-96632420D01*
X141428113Y-96438926D01*
X141428108Y-96438920D01*
X141261078Y-96271890D01*
X141075405Y-96141879D01*
X141031780Y-96087302D01*
X141024588Y-96017804D01*
X141056110Y-95955449D01*
X141075406Y-95938730D01*
X141261401Y-95808495D01*
X141428495Y-95641401D01*
X141564035Y-95447830D01*
X141663903Y-95233663D01*
X141725063Y-95005408D01*
X141745659Y-94770000D01*
X141725063Y-94534592D01*
X141663903Y-94306337D01*
X141564035Y-94092171D01*
X141440837Y-93916224D01*
X141428494Y-93898597D01*
X141261402Y-93731506D01*
X141261396Y-93731501D01*
X141075842Y-93601575D01*
X141032217Y-93546998D01*
X141025023Y-93477500D01*
X141056546Y-93415145D01*
X141075842Y-93398425D01*
X141098026Y-93382891D01*
X141261401Y-93268495D01*
X141428495Y-93101401D01*
X141564035Y-92907830D01*
X141663903Y-92693663D01*
X141725063Y-92465408D01*
X141745659Y-92230000D01*
X141744423Y-92215878D01*
X141725063Y-91994596D01*
X141725063Y-91994592D01*
X141663903Y-91766337D01*
X141564035Y-91552171D01*
X141428495Y-91358599D01*
X141428494Y-91358597D01*
X141261402Y-91191506D01*
X141261396Y-91191501D01*
X141075842Y-91061575D01*
X141032217Y-91006998D01*
X141025023Y-90937500D01*
X141056546Y-90875145D01*
X141075842Y-90858425D01*
X141128345Y-90821662D01*
X141261401Y-90728495D01*
X141428495Y-90561401D01*
X141564035Y-90367830D01*
X141663903Y-90153663D01*
X141725063Y-89925408D01*
X141745659Y-89690000D01*
X141725063Y-89454592D01*
X141663903Y-89226337D01*
X141564035Y-89012171D01*
X141468032Y-88875063D01*
X141428494Y-88818597D01*
X141261402Y-88651506D01*
X141261396Y-88651501D01*
X141075842Y-88521575D01*
X141032217Y-88466998D01*
X141025023Y-88397500D01*
X141056546Y-88335145D01*
X141075842Y-88318425D01*
X141098026Y-88302891D01*
X141261401Y-88188495D01*
X141428495Y-88021401D01*
X141564035Y-87827830D01*
X141663903Y-87613663D01*
X141725063Y-87385408D01*
X141745659Y-87150000D01*
X141725063Y-86914592D01*
X141663903Y-86686337D01*
X141564035Y-86472171D01*
X141548612Y-86450145D01*
X141428496Y-86278600D01*
X141428495Y-86278599D01*
X141306567Y-86156671D01*
X141273084Y-86095351D01*
X141278068Y-86025659D01*
X141319939Y-85969725D01*
X141350915Y-85952810D01*
X141482331Y-85903796D01*
X141597546Y-85817546D01*
X141683796Y-85702331D01*
X141734091Y-85567483D01*
X141740500Y-85507873D01*
X141740499Y-83712128D01*
X141734091Y-83652517D01*
X141729702Y-83640750D01*
X141683797Y-83517671D01*
X141683793Y-83517664D01*
X141597547Y-83402455D01*
X141597544Y-83402452D01*
X141482335Y-83316206D01*
X141482328Y-83316202D01*
X141347482Y-83265908D01*
X141347483Y-83265908D01*
X141287883Y-83259501D01*
X141287881Y-83259500D01*
X141287873Y-83259500D01*
X141287864Y-83259500D01*
X139492129Y-83259500D01*
X139492123Y-83259501D01*
X139432516Y-83265908D01*
X139297671Y-83316202D01*
X139297664Y-83316206D01*
X139182455Y-83402452D01*
X139182452Y-83402455D01*
X139096206Y-83517664D01*
X139096202Y-83517671D01*
X139045908Y-83652517D01*
X139039501Y-83712116D01*
X139039501Y-83712123D01*
X139039500Y-83712135D01*
X139039500Y-85507870D01*
X139039501Y-85507876D01*
X139045908Y-85567483D01*
X139096202Y-85702328D01*
X139096206Y-85702335D01*
X139182452Y-85817544D01*
X139182455Y-85817547D01*
X139297664Y-85903793D01*
X139297671Y-85903797D01*
X139429081Y-85952810D01*
X139485015Y-85994681D01*
X139509432Y-86060145D01*
X139494580Y-86128418D01*
X139473430Y-86156673D01*
X139351503Y-86278600D01*
X139215965Y-86472169D01*
X139215964Y-86472171D01*
X139116098Y-86686335D01*
X139116094Y-86686344D01*
X139054938Y-86914586D01*
X139054936Y-86914596D01*
X139034341Y-87149999D01*
X139034341Y-87150000D01*
X139054936Y-87385403D01*
X139054938Y-87385413D01*
X139116094Y-87613655D01*
X139116096Y-87613659D01*
X139116097Y-87613663D01*
X139215965Y-87827830D01*
X139215967Y-87827834D01*
X139324281Y-87982521D01*
X139339085Y-88003664D01*
X139351501Y-88021395D01*
X139351506Y-88021402D01*
X139518597Y-88188493D01*
X139518603Y-88188498D01*
X139704158Y-88318425D01*
X139747783Y-88373002D01*
X139754977Y-88442500D01*
X139723454Y-88504855D01*
X139704158Y-88521575D01*
X139518597Y-88651505D01*
X139351505Y-88818597D01*
X139215965Y-89012169D01*
X139215964Y-89012171D01*
X139116098Y-89226335D01*
X139116094Y-89226344D01*
X139054938Y-89454586D01*
X139054936Y-89454596D01*
X139034341Y-89689999D01*
X139034341Y-89690000D01*
X139054936Y-89925403D01*
X139054938Y-89925413D01*
X139116094Y-90153655D01*
X139116096Y-90153659D01*
X139116097Y-90153663D01*
X139193380Y-90319396D01*
X139215965Y-90367830D01*
X139215967Y-90367834D01*
X139351501Y-90561395D01*
X139351506Y-90561402D01*
X139518597Y-90728493D01*
X139518603Y-90728498D01*
X139704158Y-90858425D01*
X139747783Y-90913002D01*
X139754977Y-90982500D01*
X139723454Y-91044855D01*
X139704158Y-91061575D01*
X139518597Y-91191505D01*
X139351505Y-91358597D01*
X139215965Y-91552169D01*
X139215964Y-91552171D01*
X139116098Y-91766335D01*
X139116094Y-91766344D01*
X139054938Y-91994586D01*
X139054936Y-91994596D01*
X139034341Y-92229999D01*
X139034341Y-92230000D01*
X139054936Y-92465403D01*
X139054938Y-92465413D01*
X139116094Y-92693655D01*
X139116096Y-92693659D01*
X139116097Y-92693663D01*
X139148158Y-92762417D01*
X139215965Y-92907830D01*
X139215967Y-92907834D01*
X139351501Y-93101395D01*
X139351506Y-93101402D01*
X139518597Y-93268493D01*
X139518603Y-93268498D01*
X139704158Y-93398425D01*
X139747783Y-93453002D01*
X139754977Y-93522500D01*
X139723454Y-93584855D01*
X139704158Y-93601575D01*
X139518597Y-93731505D01*
X139351505Y-93898597D01*
X139215965Y-94092169D01*
X139215964Y-94092171D01*
X139116098Y-94306335D01*
X139116094Y-94306344D01*
X139054938Y-94534586D01*
X139054936Y-94534596D01*
X139034341Y-94769999D01*
X139034341Y-94770000D01*
X139054936Y-95005403D01*
X139054938Y-95005413D01*
X139116094Y-95233655D01*
X139116096Y-95233659D01*
X139116097Y-95233663D01*
X139160524Y-95328937D01*
X139215965Y-95447830D01*
X139215967Y-95447834D01*
X139351501Y-95641395D01*
X139351506Y-95641402D01*
X139518597Y-95808493D01*
X139518603Y-95808498D01*
X139704594Y-95938730D01*
X139748219Y-95993307D01*
X139755413Y-96062805D01*
X139723890Y-96125160D01*
X139704595Y-96141880D01*
X139518922Y-96271890D01*
X139518920Y-96271891D01*
X139351891Y-96438920D01*
X139351886Y-96438926D01*
X139216400Y-96632420D01*
X139216399Y-96632422D01*
X139116570Y-96846507D01*
X139116567Y-96846513D01*
X139059364Y-97059999D01*
X139059364Y-97060000D01*
X139956314Y-97060000D01*
X139930507Y-97100156D01*
X139890000Y-97238111D01*
X139890000Y-97381889D01*
X139930507Y-97519844D01*
X139956314Y-97560000D01*
X139059364Y-97560000D01*
X139116567Y-97773486D01*
X139116570Y-97773492D01*
X139216399Y-97987578D01*
X139351894Y-98181082D01*
X139518917Y-98348105D01*
X139704595Y-98478119D01*
X139748219Y-98532696D01*
X139755412Y-98602195D01*
X139723890Y-98664549D01*
X139704595Y-98681269D01*
X139518594Y-98811508D01*
X139351505Y-98978597D01*
X139215965Y-99172169D01*
X139215964Y-99172171D01*
X139116098Y-99386335D01*
X139116094Y-99386344D01*
X139054938Y-99614586D01*
X139054936Y-99614596D01*
X139034341Y-99849999D01*
X139034341Y-99850000D01*
X139054936Y-100085403D01*
X139054938Y-100085413D01*
X139116094Y-100313655D01*
X139116096Y-100313659D01*
X139116097Y-100313663D01*
X139215965Y-100527830D01*
X139215967Y-100527834D01*
X139351501Y-100721395D01*
X139351506Y-100721402D01*
X139518597Y-100888493D01*
X139518603Y-100888498D01*
X139704158Y-101018425D01*
X139747783Y-101073002D01*
X139754977Y-101142500D01*
X139723454Y-101204855D01*
X139704158Y-101221575D01*
X139518597Y-101351505D01*
X139351505Y-101518597D01*
X139215965Y-101712169D01*
X139215964Y-101712171D01*
X139116098Y-101926335D01*
X139116094Y-101926344D01*
X139054938Y-102154586D01*
X139054936Y-102154596D01*
X139034341Y-102389999D01*
X139034341Y-102390000D01*
X118502300Y-102390000D01*
X118502300Y-99134103D01*
X120325835Y-99134103D01*
X120346030Y-99313349D01*
X120346031Y-99313354D01*
X120405611Y-99483623D01*
X120501584Y-99636362D01*
X120629138Y-99763916D01*
X120719480Y-99820682D01*
X120766139Y-99850000D01*
X120781878Y-99859889D01*
X120952145Y-99919468D01*
X120952150Y-99919469D01*
X121131396Y-99939665D01*
X121131400Y-99939665D01*
X121131404Y-99939665D01*
X121310649Y-99919469D01*
X121310652Y-99919468D01*
X121310655Y-99919468D01*
X121480922Y-99859889D01*
X121633662Y-99763916D01*
X121761216Y-99636362D01*
X121857189Y-99483622D01*
X121863430Y-99465788D01*
X121891231Y-99386335D01*
X121891640Y-99385166D01*
X121932360Y-99328391D01*
X121997313Y-99302643D01*
X122065874Y-99316099D01*
X122096362Y-99338440D01*
X122127738Y-99369816D01*
X122280478Y-99465789D01*
X122331442Y-99483622D01*
X122450745Y-99525368D01*
X122450750Y-99525369D01*
X122629996Y-99545565D01*
X122630000Y-99545565D01*
X122630004Y-99545565D01*
X122809249Y-99525369D01*
X122809252Y-99525368D01*
X122809255Y-99525368D01*
X122979522Y-99465789D01*
X123132262Y-99369816D01*
X123259816Y-99242262D01*
X123355789Y-99089522D01*
X123415368Y-98919255D01*
X123427508Y-98811508D01*
X123435565Y-98740003D01*
X123435565Y-98739996D01*
X123415369Y-98560750D01*
X123415368Y-98560745D01*
X123362029Y-98408311D01*
X123355789Y-98390478D01*
X123259816Y-98237738D01*
X123132262Y-98110184D01*
X122979523Y-98014211D01*
X122809254Y-97954631D01*
X122809249Y-97954630D01*
X122630004Y-97934435D01*
X122629996Y-97934435D01*
X122450750Y-97954630D01*
X122450745Y-97954631D01*
X122280476Y-98014211D01*
X122127737Y-98110184D01*
X122000184Y-98237737D01*
X121904209Y-98390480D01*
X121869759Y-98488933D01*
X121829038Y-98545709D01*
X121764085Y-98571456D01*
X121695523Y-98558000D01*
X121665037Y-98535659D01*
X121633662Y-98504284D01*
X121480923Y-98408311D01*
X121310654Y-98348731D01*
X121310649Y-98348730D01*
X121131404Y-98328535D01*
X121131396Y-98328535D01*
X120952150Y-98348730D01*
X120952145Y-98348731D01*
X120781876Y-98408311D01*
X120629137Y-98504284D01*
X120501584Y-98631837D01*
X120405611Y-98784576D01*
X120346031Y-98954845D01*
X120346030Y-98954850D01*
X120325835Y-99134096D01*
X120325835Y-99134103D01*
X118502300Y-99134103D01*
X118502300Y-95831203D01*
X131660835Y-95831203D01*
X131681030Y-96010449D01*
X131681031Y-96010454D01*
X131740611Y-96180723D01*
X131797896Y-96271891D01*
X131836584Y-96333462D01*
X131964138Y-96461016D01*
X132116878Y-96556989D01*
X132287145Y-96616568D01*
X132287150Y-96616569D01*
X132466396Y-96636765D01*
X132466400Y-96636765D01*
X132466404Y-96636765D01*
X132645649Y-96616569D01*
X132645652Y-96616568D01*
X132645655Y-96616568D01*
X132815922Y-96556989D01*
X132968662Y-96461016D01*
X133096216Y-96333462D01*
X133192189Y-96180722D01*
X133251768Y-96010455D01*
X133259252Y-95944035D01*
X133271965Y-95831203D01*
X133271965Y-95831196D01*
X133251769Y-95651950D01*
X133251768Y-95651945D01*
X133192188Y-95481676D01*
X133096215Y-95328937D01*
X132968662Y-95201384D01*
X132815923Y-95105411D01*
X132645654Y-95045831D01*
X132645649Y-95045830D01*
X132466404Y-95025635D01*
X132466396Y-95025635D01*
X132287150Y-95045830D01*
X132287145Y-95045831D01*
X132116876Y-95105411D01*
X131964137Y-95201384D01*
X131836584Y-95328937D01*
X131740611Y-95481676D01*
X131681031Y-95651945D01*
X131681030Y-95651950D01*
X131660835Y-95831196D01*
X131660835Y-95831203D01*
X118502300Y-95831203D01*
X118502300Y-93916224D01*
X125724653Y-93916224D01*
X125744848Y-94095470D01*
X125744849Y-94095475D01*
X125804429Y-94265744D01*
X125829940Y-94306344D01*
X125900402Y-94418483D01*
X126027956Y-94546037D01*
X126180696Y-94642010D01*
X126350963Y-94701589D01*
X126350968Y-94701590D01*
X126530214Y-94721786D01*
X126530218Y-94721786D01*
X126530222Y-94721786D01*
X126709467Y-94701590D01*
X126709470Y-94701589D01*
X126709473Y-94701589D01*
X126879740Y-94642010D01*
X127032480Y-94546037D01*
X127160034Y-94418483D01*
X127256007Y-94265743D01*
X127315586Y-94095476D01*
X127315587Y-94095470D01*
X127335783Y-93916224D01*
X127335783Y-93916217D01*
X127315587Y-93736971D01*
X127315586Y-93736966D01*
X127313674Y-93731501D01*
X127256007Y-93566699D01*
X127228818Y-93523429D01*
X127209818Y-93456194D01*
X127228818Y-93391487D01*
X127291840Y-93291189D01*
X127351419Y-93120922D01*
X127351420Y-93120916D01*
X127371616Y-92941670D01*
X127371616Y-92941663D01*
X127351420Y-92762417D01*
X127351419Y-92762412D01*
X127291839Y-92592143D01*
X127212206Y-92465408D01*
X127195867Y-92439405D01*
X127068313Y-92311851D01*
X126915574Y-92215878D01*
X126745305Y-92156298D01*
X126745300Y-92156297D01*
X126566055Y-92136102D01*
X126566047Y-92136102D01*
X126386801Y-92156297D01*
X126386796Y-92156298D01*
X126216527Y-92215878D01*
X126063788Y-92311851D01*
X125936235Y-92439404D01*
X125840262Y-92592143D01*
X125780682Y-92762412D01*
X125780681Y-92762417D01*
X125760486Y-92941663D01*
X125760486Y-92941670D01*
X125780681Y-93120916D01*
X125780682Y-93120921D01*
X125840262Y-93291190D01*
X125867449Y-93334457D01*
X125886449Y-93401693D01*
X125867449Y-93466400D01*
X125804430Y-93566695D01*
X125744849Y-93736966D01*
X125744848Y-93736971D01*
X125724653Y-93916217D01*
X125724653Y-93916224D01*
X118502300Y-93916224D01*
X118502300Y-90344803D01*
X126301435Y-90344803D01*
X126321630Y-90524049D01*
X126321631Y-90524054D01*
X126381211Y-90694323D01*
X126402682Y-90728493D01*
X126477184Y-90847062D01*
X126604738Y-90974616D01*
X126656274Y-91006998D01*
X126717052Y-91045188D01*
X126757478Y-91070589D01*
X126855156Y-91104768D01*
X126927745Y-91130168D01*
X126927750Y-91130169D01*
X127106996Y-91150365D01*
X127107000Y-91150365D01*
X127107004Y-91150365D01*
X127286249Y-91130169D01*
X127286252Y-91130168D01*
X127286255Y-91130168D01*
X127456522Y-91070589D01*
X127609262Y-90974616D01*
X127736816Y-90847062D01*
X127832789Y-90694322D01*
X127892368Y-90524055D01*
X127909970Y-90367834D01*
X127912565Y-90344803D01*
X127912565Y-90344796D01*
X127909704Y-90319403D01*
X131279835Y-90319403D01*
X131300030Y-90498649D01*
X131300031Y-90498654D01*
X131359611Y-90668923D01*
X131397042Y-90728493D01*
X131455584Y-90821662D01*
X131583138Y-90949216D01*
X131735878Y-91045189D01*
X131906145Y-91104768D01*
X131906150Y-91104769D01*
X132085396Y-91124965D01*
X132085400Y-91124965D01*
X132085404Y-91124965D01*
X132264649Y-91104769D01*
X132264652Y-91104768D01*
X132264655Y-91104768D01*
X132434922Y-91045189D01*
X132587662Y-90949216D01*
X132715216Y-90821662D01*
X132811189Y-90668922D01*
X132870768Y-90498655D01*
X132885508Y-90367834D01*
X132890965Y-90319403D01*
X132890965Y-90319396D01*
X132870769Y-90140150D01*
X132870768Y-90140145D01*
X132811188Y-89969876D01*
X132715215Y-89817137D01*
X132587662Y-89689584D01*
X132434923Y-89593611D01*
X132264654Y-89534031D01*
X132264649Y-89534030D01*
X132085404Y-89513835D01*
X132085396Y-89513835D01*
X131906150Y-89534030D01*
X131906145Y-89534031D01*
X131735876Y-89593611D01*
X131583137Y-89689584D01*
X131455584Y-89817137D01*
X131359611Y-89969876D01*
X131300031Y-90140145D01*
X131300030Y-90140150D01*
X131279835Y-90319396D01*
X131279835Y-90319403D01*
X127909704Y-90319403D01*
X127892369Y-90165550D01*
X127892368Y-90165545D01*
X127888210Y-90153663D01*
X127832789Y-89995278D01*
X127736816Y-89842538D01*
X127609262Y-89714984D01*
X127568838Y-89689584D01*
X127456523Y-89619011D01*
X127286254Y-89559431D01*
X127286249Y-89559430D01*
X127107004Y-89539235D01*
X127106996Y-89539235D01*
X126927750Y-89559430D01*
X126927745Y-89559431D01*
X126757476Y-89619011D01*
X126604737Y-89714984D01*
X126477184Y-89842537D01*
X126381211Y-89995276D01*
X126321631Y-90165545D01*
X126321630Y-90165550D01*
X126301435Y-90344796D01*
X126301435Y-90344803D01*
X118502300Y-90344803D01*
X118502300Y-87540000D01*
X134044341Y-87540000D01*
X134064936Y-87775403D01*
X134064938Y-87775413D01*
X134126094Y-88003655D01*
X134126096Y-88003659D01*
X134126097Y-88003663D01*
X134134369Y-88021402D01*
X134225965Y-88217830D01*
X134225967Y-88217834D01*
X134308110Y-88335145D01*
X134361505Y-88411401D01*
X134528599Y-88578495D01*
X134625384Y-88646265D01*
X134722165Y-88714032D01*
X134722167Y-88714033D01*
X134722170Y-88714035D01*
X134936337Y-88813903D01*
X135164592Y-88875063D01*
X135352918Y-88891539D01*
X135399999Y-88895659D01*
X135400000Y-88895659D01*
X135400001Y-88895659D01*
X135439234Y-88892226D01*
X135635408Y-88875063D01*
X135863663Y-88813903D01*
X136077830Y-88714035D01*
X136271401Y-88578495D01*
X136438495Y-88411401D01*
X136574035Y-88217830D01*
X136673903Y-88003663D01*
X136735063Y-87775408D01*
X136755659Y-87540000D01*
X136735063Y-87304592D01*
X136673903Y-87076337D01*
X136574035Y-86862171D01*
X136450915Y-86686337D01*
X136438496Y-86668600D01*
X136438495Y-86668599D01*
X136316567Y-86546671D01*
X136283084Y-86485351D01*
X136288068Y-86415659D01*
X136329939Y-86359725D01*
X136360915Y-86342810D01*
X136492331Y-86293796D01*
X136607546Y-86207546D01*
X136693796Y-86092331D01*
X136744091Y-85957483D01*
X136750500Y-85897873D01*
X136750499Y-84102128D01*
X136744091Y-84042517D01*
X136727955Y-83999255D01*
X136693797Y-83907671D01*
X136693793Y-83907664D01*
X136607547Y-83792455D01*
X136607544Y-83792452D01*
X136492335Y-83706206D01*
X136492328Y-83706202D01*
X136357482Y-83655908D01*
X136357483Y-83655908D01*
X136297883Y-83649501D01*
X136297881Y-83649500D01*
X136297873Y-83649500D01*
X136297864Y-83649500D01*
X134502129Y-83649500D01*
X134502123Y-83649501D01*
X134442516Y-83655908D01*
X134307671Y-83706202D01*
X134307664Y-83706206D01*
X134192455Y-83792452D01*
X134192452Y-83792455D01*
X134106206Y-83907664D01*
X134106202Y-83907671D01*
X134055908Y-84042517D01*
X134049501Y-84102116D01*
X134049501Y-84102123D01*
X134049500Y-84102135D01*
X134049500Y-85897870D01*
X134049501Y-85897876D01*
X134055908Y-85957483D01*
X134106202Y-86092328D01*
X134106206Y-86092335D01*
X134192452Y-86207544D01*
X134192455Y-86207547D01*
X134307664Y-86293793D01*
X134307671Y-86293797D01*
X134439081Y-86342810D01*
X134495015Y-86384681D01*
X134519432Y-86450145D01*
X134504580Y-86518418D01*
X134483430Y-86546673D01*
X134361503Y-86668600D01*
X134225965Y-86862169D01*
X134225964Y-86862171D01*
X134126098Y-87076335D01*
X134126094Y-87076344D01*
X134064938Y-87304586D01*
X134064936Y-87304596D01*
X134044341Y-87539999D01*
X134044341Y-87540000D01*
X118502300Y-87540000D01*
X118502300Y-83820003D01*
X127554435Y-83820003D01*
X127574630Y-83999249D01*
X127574631Y-83999254D01*
X127634211Y-84169523D01*
X127730184Y-84322262D01*
X127857738Y-84449816D01*
X128010478Y-84545789D01*
X128180745Y-84605368D01*
X128180750Y-84605369D01*
X128359996Y-84625565D01*
X128360000Y-84625565D01*
X128360004Y-84625565D01*
X128539249Y-84605369D01*
X128539252Y-84605368D01*
X128539255Y-84605368D01*
X128709522Y-84545789D01*
X128862262Y-84449816D01*
X128989816Y-84322262D01*
X129085789Y-84169522D01*
X129145368Y-83999255D01*
X129165565Y-83820000D01*
X129162461Y-83792455D01*
X129145369Y-83640750D01*
X129145368Y-83640745D01*
X129085789Y-83470478D01*
X128989816Y-83317738D01*
X128862262Y-83190184D01*
X128709523Y-83094211D01*
X128539254Y-83034631D01*
X128539249Y-83034630D01*
X128360004Y-83014435D01*
X128359996Y-83014435D01*
X128180750Y-83034630D01*
X128180745Y-83034631D01*
X128010476Y-83094211D01*
X127857737Y-83190184D01*
X127730184Y-83317737D01*
X127634211Y-83470476D01*
X127574631Y-83640745D01*
X127574630Y-83640750D01*
X127554435Y-83819996D01*
X127554435Y-83820003D01*
X118502300Y-83820003D01*
X118502300Y-81267100D01*
X125408179Y-81267100D01*
X125427424Y-81487076D01*
X125427426Y-81487086D01*
X125484575Y-81700370D01*
X125484580Y-81700384D01*
X125577899Y-81900507D01*
X125577900Y-81900509D01*
X125623258Y-81965287D01*
X126221220Y-81367325D01*
X126221467Y-81370616D01*
X126272128Y-81499698D01*
X126358586Y-81608113D01*
X126473159Y-81686227D01*
X126577301Y-81718350D01*
X125976811Y-82318841D01*
X126041582Y-82364194D01*
X126041592Y-82364200D01*
X126241715Y-82457519D01*
X126241729Y-82457524D01*
X126455013Y-82514673D01*
X126455023Y-82514675D01*
X126674999Y-82533921D01*
X126675001Y-82533921D01*
X126894976Y-82514675D01*
X126894986Y-82514673D01*
X127108270Y-82457524D01*
X127108284Y-82457519D01*
X127308408Y-82364200D01*
X127308420Y-82364193D01*
X127373186Y-82318842D01*
X127373187Y-82318840D01*
X126772020Y-81717672D01*
X126812119Y-81711629D01*
X126937054Y-81651463D01*
X127038705Y-81557145D01*
X127108039Y-81437055D01*
X127124850Y-81363397D01*
X127726740Y-81965287D01*
X127726742Y-81965286D01*
X127772093Y-81900520D01*
X127772095Y-81900517D01*
X127812341Y-81814209D01*
X127858513Y-81761770D01*
X127925707Y-81742617D01*
X127992588Y-81762832D01*
X128037106Y-81814209D01*
X128077464Y-81900758D01*
X128077468Y-81900766D01*
X128204170Y-82081715D01*
X128204175Y-82081721D01*
X128360378Y-82237924D01*
X128360384Y-82237929D01*
X128541333Y-82364631D01*
X128541335Y-82364632D01*
X128541338Y-82364634D01*
X128741550Y-82457994D01*
X128954932Y-82515170D01*
X129112123Y-82528922D01*
X129174998Y-82534423D01*
X129175000Y-82534423D01*
X129175002Y-82534423D01*
X129230151Y-82529598D01*
X129395068Y-82515170D01*
X129608450Y-82457994D01*
X129808662Y-82364634D01*
X129989620Y-82237926D01*
X130087319Y-82140227D01*
X130148642Y-82106742D01*
X130218334Y-82111726D01*
X130262681Y-82140227D01*
X130360378Y-82237924D01*
X130360384Y-82237929D01*
X130541333Y-82364631D01*
X130541335Y-82364632D01*
X130541338Y-82364634D01*
X130741550Y-82457994D01*
X130954932Y-82515170D01*
X131112123Y-82528922D01*
X131174998Y-82534423D01*
X131175000Y-82534423D01*
X131175002Y-82534423D01*
X131230151Y-82529598D01*
X131395068Y-82515170D01*
X131608450Y-82457994D01*
X131808662Y-82364634D01*
X131989620Y-82237926D01*
X132145826Y-82081720D01*
X132187907Y-82021620D01*
X132242481Y-81977997D01*
X132311980Y-81970803D01*
X132374335Y-82002325D01*
X132409749Y-82062554D01*
X132412771Y-82079490D01*
X132418909Y-82136583D01*
X132469202Y-82271428D01*
X132469206Y-82271435D01*
X132555452Y-82386644D01*
X132555455Y-82386647D01*
X132670664Y-82472893D01*
X132670671Y-82472897D01*
X132805517Y-82523191D01*
X132805516Y-82523191D01*
X132812444Y-82523935D01*
X132865127Y-82529600D01*
X134484872Y-82529599D01*
X134544483Y-82523191D01*
X134679331Y-82472896D01*
X134794546Y-82386646D01*
X134880796Y-82271431D01*
X134931091Y-82136583D01*
X134937500Y-82076973D01*
X134937499Y-80457228D01*
X134931091Y-80397617D01*
X134900908Y-80316693D01*
X134880797Y-80262771D01*
X134880793Y-80262764D01*
X134794547Y-80147555D01*
X134794544Y-80147552D01*
X134679335Y-80061306D01*
X134679328Y-80061302D01*
X134544482Y-80011008D01*
X134544483Y-80011008D01*
X134484883Y-80004601D01*
X134484881Y-80004600D01*
X134484873Y-80004600D01*
X134484864Y-80004600D01*
X132865129Y-80004600D01*
X132865123Y-80004601D01*
X132805516Y-80011008D01*
X132670671Y-80061302D01*
X132670664Y-80061306D01*
X132555455Y-80147552D01*
X132555452Y-80147555D01*
X132469206Y-80262764D01*
X132469202Y-80262771D01*
X132418908Y-80397616D01*
X132412770Y-80454710D01*
X132386032Y-80519261D01*
X132328639Y-80559109D01*
X132258814Y-80561602D01*
X132198725Y-80525949D01*
X132187906Y-80512577D01*
X132145827Y-80452481D01*
X132087318Y-80393972D01*
X131989620Y-80296274D01*
X131989616Y-80296271D01*
X131989615Y-80296270D01*
X131808666Y-80169568D01*
X131808662Y-80169566D01*
X131761457Y-80147554D01*
X131608450Y-80076206D01*
X131608447Y-80076205D01*
X131608445Y-80076204D01*
X131395070Y-80019030D01*
X131395062Y-80019029D01*
X131175002Y-79999777D01*
X131174998Y-79999777D01*
X130954937Y-80019029D01*
X130954929Y-80019030D01*
X130741554Y-80076204D01*
X130741548Y-80076207D01*
X130541340Y-80169565D01*
X130541338Y-80169566D01*
X130360381Y-80296272D01*
X130262680Y-80393973D01*
X130201356Y-80427457D01*
X130131665Y-80422473D01*
X130087318Y-80393972D01*
X129989621Y-80296275D01*
X129989615Y-80296270D01*
X129808666Y-80169568D01*
X129808662Y-80169566D01*
X129761457Y-80147554D01*
X129608450Y-80076206D01*
X129608447Y-80076205D01*
X129608445Y-80076204D01*
X129395070Y-80019030D01*
X129395062Y-80019029D01*
X129175002Y-79999777D01*
X129174998Y-79999777D01*
X128954937Y-80019029D01*
X128954929Y-80019030D01*
X128741554Y-80076204D01*
X128741548Y-80076207D01*
X128541340Y-80169565D01*
X128541338Y-80169566D01*
X128360377Y-80296275D01*
X128204175Y-80452477D01*
X128077466Y-80633438D01*
X128077462Y-80633445D01*
X128037104Y-80719992D01*
X127990931Y-80772431D01*
X127923738Y-80791582D01*
X127856857Y-80771365D01*
X127812341Y-80719990D01*
X127772100Y-80633693D01*
X127772099Y-80633691D01*
X127726740Y-80568911D01*
X127128779Y-81166872D01*
X127128533Y-81163584D01*
X127077872Y-81034502D01*
X126991414Y-80926087D01*
X126876841Y-80847973D01*
X126772697Y-80815849D01*
X127373187Y-80215358D01*
X127308409Y-80170000D01*
X127308407Y-80169999D01*
X127108284Y-80076680D01*
X127108270Y-80076675D01*
X126894986Y-80019526D01*
X126894976Y-80019524D01*
X126675001Y-80000279D01*
X126674999Y-80000279D01*
X126455023Y-80019524D01*
X126455013Y-80019526D01*
X126241729Y-80076675D01*
X126241720Y-80076679D01*
X126041586Y-80170003D01*
X125976812Y-80215357D01*
X125976811Y-80215358D01*
X126577980Y-80816527D01*
X126537881Y-80822571D01*
X126412946Y-80882737D01*
X126311295Y-80977055D01*
X126241961Y-81097145D01*
X126225149Y-81170802D01*
X125623258Y-80568911D01*
X125623257Y-80568912D01*
X125577903Y-80633686D01*
X125484579Y-80833820D01*
X125484575Y-80833829D01*
X125427426Y-81047113D01*
X125427424Y-81047123D01*
X125408179Y-81267099D01*
X125408179Y-81267100D01*
X118502300Y-81267100D01*
X118502300Y-79250003D01*
X118994435Y-79250003D01*
X119014630Y-79429249D01*
X119014631Y-79429254D01*
X119074211Y-79599523D01*
X119095898Y-79634037D01*
X119170184Y-79752262D01*
X119297738Y-79879816D01*
X119377204Y-79929748D01*
X119430345Y-79963139D01*
X119450478Y-79975789D01*
X119575471Y-80019526D01*
X119620745Y-80035368D01*
X119620750Y-80035369D01*
X119799996Y-80055565D01*
X119800000Y-80055565D01*
X119800004Y-80055565D01*
X119979249Y-80035369D01*
X119979252Y-80035368D01*
X119979255Y-80035368D01*
X120149522Y-79975789D01*
X120302262Y-79879816D01*
X120429816Y-79752262D01*
X120525789Y-79599522D01*
X120585368Y-79429255D01*
X120605565Y-79250000D01*
X120593248Y-79140684D01*
X120585369Y-79070750D01*
X120585368Y-79070745D01*
X120525788Y-78900476D01*
X120429815Y-78747737D01*
X120302262Y-78620184D01*
X120201865Y-78557100D01*
X121350172Y-78557100D01*
X121369462Y-78851412D01*
X121369464Y-78851424D01*
X121427001Y-79140684D01*
X121427005Y-79140699D01*
X121521812Y-79419988D01*
X121652258Y-79684506D01*
X121652265Y-79684519D01*
X121816122Y-79929748D01*
X121845406Y-79963139D01*
X122634438Y-79174107D01*
X122683348Y-79253099D01*
X122826931Y-79410601D01*
X122985388Y-79530263D01*
X122198959Y-80316692D01*
X122198959Y-80316693D01*
X122232344Y-80345972D01*
X122232348Y-80345975D01*
X122477580Y-80509834D01*
X122477593Y-80509841D01*
X122742111Y-80640287D01*
X123021400Y-80735094D01*
X123021415Y-80735098D01*
X123310675Y-80792635D01*
X123310687Y-80792637D01*
X123605000Y-80811927D01*
X123899312Y-80792637D01*
X123899324Y-80792635D01*
X124188584Y-80735098D01*
X124188599Y-80735094D01*
X124467888Y-80640287D01*
X124732406Y-80509841D01*
X124732419Y-80509834D01*
X124977650Y-80345977D01*
X125011039Y-80316693D01*
X125011040Y-80316692D01*
X124224611Y-79530263D01*
X124383069Y-79410601D01*
X124526652Y-79253099D01*
X124575560Y-79174108D01*
X125364592Y-79963140D01*
X125364593Y-79963139D01*
X125393877Y-79929750D01*
X125557734Y-79684519D01*
X125557741Y-79684506D01*
X125688187Y-79419988D01*
X125782994Y-79140699D01*
X125782998Y-79140684D01*
X125840535Y-78851424D01*
X125840537Y-78851412D01*
X125859827Y-78557100D01*
X134490172Y-78557100D01*
X134509462Y-78851412D01*
X134509464Y-78851424D01*
X134567001Y-79140684D01*
X134567005Y-79140699D01*
X134661812Y-79419988D01*
X134792258Y-79684506D01*
X134792265Y-79684519D01*
X134956122Y-79929748D01*
X134985406Y-79963139D01*
X135774438Y-79174107D01*
X135823348Y-79253099D01*
X135966931Y-79410601D01*
X136125388Y-79530263D01*
X135338959Y-80316692D01*
X135338959Y-80316693D01*
X135372344Y-80345972D01*
X135372348Y-80345975D01*
X135617580Y-80509834D01*
X135617593Y-80509841D01*
X135882111Y-80640287D01*
X136161400Y-80735094D01*
X136161415Y-80735098D01*
X136450675Y-80792635D01*
X136450687Y-80792637D01*
X136745000Y-80811927D01*
X137039312Y-80792637D01*
X137039324Y-80792635D01*
X137328584Y-80735098D01*
X137328599Y-80735094D01*
X137607888Y-80640287D01*
X137872406Y-80509841D01*
X137872419Y-80509834D01*
X138117650Y-80345977D01*
X138151039Y-80316693D01*
X138151040Y-80316692D01*
X137364611Y-79530263D01*
X137523069Y-79410601D01*
X137666652Y-79253099D01*
X137715560Y-79174108D01*
X138504592Y-79963140D01*
X138504593Y-79963139D01*
X138533877Y-79929750D01*
X138697734Y-79684519D01*
X138697741Y-79684506D01*
X138828187Y-79419988D01*
X138922994Y-79140699D01*
X138922998Y-79140684D01*
X138980535Y-78851424D01*
X138980537Y-78851412D01*
X138999827Y-78557100D01*
X138980537Y-78262787D01*
X138980535Y-78262775D01*
X138922998Y-77973515D01*
X138922994Y-77973500D01*
X138828187Y-77694211D01*
X138697741Y-77429693D01*
X138697734Y-77429680D01*
X138533875Y-77184448D01*
X138533872Y-77184444D01*
X138504593Y-77151059D01*
X138504592Y-77151059D01*
X137715560Y-77940091D01*
X137666652Y-77861101D01*
X137523069Y-77703599D01*
X137364610Y-77583935D01*
X138151039Y-76797506D01*
X138117648Y-76768222D01*
X137872419Y-76604365D01*
X137872406Y-76604358D01*
X137607888Y-76473912D01*
X137328599Y-76379105D01*
X137328584Y-76379101D01*
X137039324Y-76321564D01*
X137039312Y-76321562D01*
X136745000Y-76302272D01*
X136450687Y-76321562D01*
X136450675Y-76321564D01*
X136161415Y-76379101D01*
X136161400Y-76379105D01*
X135882111Y-76473912D01*
X135617593Y-76604358D01*
X135617580Y-76604365D01*
X135372350Y-76768223D01*
X135338958Y-76797506D01*
X136125388Y-77583936D01*
X135966931Y-77703599D01*
X135823348Y-77861101D01*
X135774439Y-77940091D01*
X134985406Y-77151058D01*
X134956123Y-77184450D01*
X134792265Y-77429680D01*
X134792258Y-77429693D01*
X134661812Y-77694211D01*
X134567005Y-77973500D01*
X134567001Y-77973515D01*
X134509464Y-78262775D01*
X134509462Y-78262787D01*
X134490172Y-78557100D01*
X125859827Y-78557100D01*
X125840537Y-78262787D01*
X125840535Y-78262775D01*
X125782998Y-77973515D01*
X125782994Y-77973500D01*
X125688187Y-77694211D01*
X125557741Y-77429693D01*
X125557734Y-77429680D01*
X125393875Y-77184448D01*
X125393872Y-77184444D01*
X125364593Y-77151059D01*
X125364592Y-77151059D01*
X124575560Y-77940091D01*
X124526652Y-77861101D01*
X124383069Y-77703599D01*
X124224610Y-77583935D01*
X125011039Y-76797506D01*
X124977648Y-76768222D01*
X124732419Y-76604365D01*
X124732406Y-76604358D01*
X124467888Y-76473912D01*
X124188599Y-76379105D01*
X124188584Y-76379101D01*
X123899324Y-76321564D01*
X123899312Y-76321562D01*
X123605000Y-76302272D01*
X123310687Y-76321562D01*
X123310675Y-76321564D01*
X123021415Y-76379101D01*
X123021400Y-76379105D01*
X122742111Y-76473912D01*
X122477593Y-76604358D01*
X122477580Y-76604365D01*
X122232350Y-76768223D01*
X122198958Y-76797506D01*
X122985388Y-77583936D01*
X122826931Y-77703599D01*
X122683348Y-77861101D01*
X122634439Y-77940091D01*
X121845406Y-77151058D01*
X121816123Y-77184450D01*
X121652265Y-77429680D01*
X121652258Y-77429693D01*
X121521812Y-77694211D01*
X121427005Y-77973500D01*
X121427001Y-77973515D01*
X121369464Y-78262775D01*
X121369462Y-78262787D01*
X121350172Y-78557100D01*
X120201865Y-78557100D01*
X120149523Y-78524211D01*
X119979254Y-78464631D01*
X119979249Y-78464630D01*
X119800004Y-78444435D01*
X119799996Y-78444435D01*
X119620750Y-78464630D01*
X119620745Y-78464631D01*
X119450476Y-78524211D01*
X119297737Y-78620184D01*
X119170184Y-78747737D01*
X119074211Y-78900476D01*
X119014631Y-79070745D01*
X119014630Y-79070750D01*
X118994435Y-79249996D01*
X118994435Y-79250003D01*
X118502300Y-79250003D01*
X118502300Y-77375003D01*
X118969435Y-77375003D01*
X118989630Y-77554249D01*
X118989631Y-77554254D01*
X119049211Y-77724523D01*
X119135029Y-77861101D01*
X119145184Y-77877262D01*
X119272738Y-78004816D01*
X119425478Y-78100789D01*
X119595745Y-78160368D01*
X119595750Y-78160369D01*
X119774996Y-78180565D01*
X119775000Y-78180565D01*
X119775004Y-78180565D01*
X119954249Y-78160369D01*
X119954252Y-78160368D01*
X119954255Y-78160368D01*
X120124522Y-78100789D01*
X120277262Y-78004816D01*
X120404816Y-77877262D01*
X120500789Y-77724522D01*
X120560368Y-77554255D01*
X120575288Y-77421838D01*
X120580565Y-77375003D01*
X120580565Y-77374996D01*
X120560369Y-77195750D01*
X120560368Y-77195745D01*
X120500788Y-77025476D01*
X120404815Y-76872737D01*
X120277262Y-76745184D01*
X120124523Y-76649211D01*
X119954254Y-76589631D01*
X119954249Y-76589630D01*
X119775004Y-76569435D01*
X119774996Y-76569435D01*
X119595750Y-76589630D01*
X119595745Y-76589631D01*
X119425476Y-76649211D01*
X119272737Y-76745184D01*
X119145184Y-76872737D01*
X119049211Y-77025476D01*
X118989631Y-77195745D01*
X118989630Y-77195750D01*
X118969435Y-77374996D01*
X118969435Y-77375003D01*
X118502300Y-77375003D01*
X118502300Y-75469900D01*
X118521985Y-75402861D01*
X118574789Y-75357106D01*
X118626300Y-75345900D01*
X142293700Y-75345900D01*
X142360739Y-75365585D01*
G37*
%TD.AperFunction*%
%TD*%
M02*
