%TF.GenerationSoftware,KiCad,Pcbnew,7.0.9*%
%TF.CreationDate,2024-08-09T20:27:09+01:00*%
%TF.ProjectId,RISKYKVM,5249534b-594b-4564-9d2e-6b696361645f,rev?*%
%TF.SameCoordinates,Original*%
%TF.FileFunction,Legend,Bot*%
%TF.FilePolarity,Positive*%
%FSLAX46Y46*%
G04 Gerber Fmt 4.6, Leading zero omitted, Abs format (unit mm)*
G04 Created by KiCad (PCBNEW 7.0.9) date 2024-08-09 20:27:09*
%MOMM*%
%LPD*%
G01*
G04 APERTURE LIST*
%ADD10C,0.150000*%
%ADD11C,0.120000*%
G04 APERTURE END LIST*
D10*
X121159166Y-106604819D02*
X121492499Y-106128628D01*
X121730594Y-106604819D02*
X121730594Y-105604819D01*
X121730594Y-105604819D02*
X121349642Y-105604819D01*
X121349642Y-105604819D02*
X121254404Y-105652438D01*
X121254404Y-105652438D02*
X121206785Y-105700057D01*
X121206785Y-105700057D02*
X121159166Y-105795295D01*
X121159166Y-105795295D02*
X121159166Y-105938152D01*
X121159166Y-105938152D02*
X121206785Y-106033390D01*
X121206785Y-106033390D02*
X121254404Y-106081009D01*
X121254404Y-106081009D02*
X121349642Y-106128628D01*
X121349642Y-106128628D02*
X121730594Y-106128628D01*
X120206785Y-106604819D02*
X120778213Y-106604819D01*
X120492499Y-106604819D02*
X120492499Y-105604819D01*
X120492499Y-105604819D02*
X120587737Y-105747676D01*
X120587737Y-105747676D02*
X120682975Y-105842914D01*
X120682975Y-105842914D02*
X120778213Y-105890533D01*
X128213466Y-89332780D02*
X128261085Y-89380400D01*
X128261085Y-89380400D02*
X128403942Y-89428019D01*
X128403942Y-89428019D02*
X128499180Y-89428019D01*
X128499180Y-89428019D02*
X128642037Y-89380400D01*
X128642037Y-89380400D02*
X128737275Y-89285161D01*
X128737275Y-89285161D02*
X128784894Y-89189923D01*
X128784894Y-89189923D02*
X128832513Y-88999447D01*
X128832513Y-88999447D02*
X128832513Y-88856590D01*
X128832513Y-88856590D02*
X128784894Y-88666114D01*
X128784894Y-88666114D02*
X128737275Y-88570876D01*
X128737275Y-88570876D02*
X128642037Y-88475638D01*
X128642037Y-88475638D02*
X128499180Y-88428019D01*
X128499180Y-88428019D02*
X128403942Y-88428019D01*
X128403942Y-88428019D02*
X128261085Y-88475638D01*
X128261085Y-88475638D02*
X128213466Y-88523257D01*
X127832513Y-88523257D02*
X127784894Y-88475638D01*
X127784894Y-88475638D02*
X127689656Y-88428019D01*
X127689656Y-88428019D02*
X127451561Y-88428019D01*
X127451561Y-88428019D02*
X127356323Y-88475638D01*
X127356323Y-88475638D02*
X127308704Y-88523257D01*
X127308704Y-88523257D02*
X127261085Y-88618495D01*
X127261085Y-88618495D02*
X127261085Y-88713733D01*
X127261085Y-88713733D02*
X127308704Y-88856590D01*
X127308704Y-88856590D02*
X127880132Y-89428019D01*
X127880132Y-89428019D02*
X127261085Y-89428019D01*
X120354819Y-80883333D02*
X119878628Y-80550000D01*
X120354819Y-80311905D02*
X119354819Y-80311905D01*
X119354819Y-80311905D02*
X119354819Y-80692857D01*
X119354819Y-80692857D02*
X119402438Y-80788095D01*
X119402438Y-80788095D02*
X119450057Y-80835714D01*
X119450057Y-80835714D02*
X119545295Y-80883333D01*
X119545295Y-80883333D02*
X119688152Y-80883333D01*
X119688152Y-80883333D02*
X119783390Y-80835714D01*
X119783390Y-80835714D02*
X119831009Y-80788095D01*
X119831009Y-80788095D02*
X119878628Y-80692857D01*
X119878628Y-80692857D02*
X119878628Y-80311905D01*
X119354819Y-81216667D02*
X119354819Y-81835714D01*
X119354819Y-81835714D02*
X119735771Y-81502381D01*
X119735771Y-81502381D02*
X119735771Y-81645238D01*
X119735771Y-81645238D02*
X119783390Y-81740476D01*
X119783390Y-81740476D02*
X119831009Y-81788095D01*
X119831009Y-81788095D02*
X119926247Y-81835714D01*
X119926247Y-81835714D02*
X120164342Y-81835714D01*
X120164342Y-81835714D02*
X120259580Y-81788095D01*
X120259580Y-81788095D02*
X120307200Y-81740476D01*
X120307200Y-81740476D02*
X120354819Y-81645238D01*
X120354819Y-81645238D02*
X120354819Y-81359524D01*
X120354819Y-81359524D02*
X120307200Y-81264286D01*
X120307200Y-81264286D02*
X120259580Y-81216667D01*
X119919580Y-99960833D02*
X119967200Y-99913214D01*
X119967200Y-99913214D02*
X120014819Y-99770357D01*
X120014819Y-99770357D02*
X120014819Y-99675119D01*
X120014819Y-99675119D02*
X119967200Y-99532262D01*
X119967200Y-99532262D02*
X119871961Y-99437024D01*
X119871961Y-99437024D02*
X119776723Y-99389405D01*
X119776723Y-99389405D02*
X119586247Y-99341786D01*
X119586247Y-99341786D02*
X119443390Y-99341786D01*
X119443390Y-99341786D02*
X119252914Y-99389405D01*
X119252914Y-99389405D02*
X119157676Y-99437024D01*
X119157676Y-99437024D02*
X119062438Y-99532262D01*
X119062438Y-99532262D02*
X119014819Y-99675119D01*
X119014819Y-99675119D02*
X119014819Y-99770357D01*
X119014819Y-99770357D02*
X119062438Y-99913214D01*
X119062438Y-99913214D02*
X119110057Y-99960833D01*
X119348152Y-100817976D02*
X120014819Y-100817976D01*
X118967200Y-100579881D02*
X119681485Y-100341786D01*
X119681485Y-100341786D02*
X119681485Y-100960833D01*
X123612566Y-95911080D02*
X123660185Y-95958700D01*
X123660185Y-95958700D02*
X123803042Y-96006319D01*
X123803042Y-96006319D02*
X123898280Y-96006319D01*
X123898280Y-96006319D02*
X124041137Y-95958700D01*
X124041137Y-95958700D02*
X124136375Y-95863461D01*
X124136375Y-95863461D02*
X124183994Y-95768223D01*
X124183994Y-95768223D02*
X124231613Y-95577747D01*
X124231613Y-95577747D02*
X124231613Y-95434890D01*
X124231613Y-95434890D02*
X124183994Y-95244414D01*
X124183994Y-95244414D02*
X124136375Y-95149176D01*
X124136375Y-95149176D02*
X124041137Y-95053938D01*
X124041137Y-95053938D02*
X123898280Y-95006319D01*
X123898280Y-95006319D02*
X123803042Y-95006319D01*
X123803042Y-95006319D02*
X123660185Y-95053938D01*
X123660185Y-95053938D02*
X123612566Y-95101557D01*
X122660185Y-96006319D02*
X123231613Y-96006319D01*
X122945899Y-96006319D02*
X122945899Y-95006319D01*
X122945899Y-95006319D02*
X123041137Y-95149176D01*
X123041137Y-95149176D02*
X123136375Y-95244414D01*
X123136375Y-95244414D02*
X123231613Y-95292033D01*
X132150466Y-93879380D02*
X132198085Y-93927000D01*
X132198085Y-93927000D02*
X132340942Y-93974619D01*
X132340942Y-93974619D02*
X132436180Y-93974619D01*
X132436180Y-93974619D02*
X132579037Y-93927000D01*
X132579037Y-93927000D02*
X132674275Y-93831761D01*
X132674275Y-93831761D02*
X132721894Y-93736523D01*
X132721894Y-93736523D02*
X132769513Y-93546047D01*
X132769513Y-93546047D02*
X132769513Y-93403190D01*
X132769513Y-93403190D02*
X132721894Y-93212714D01*
X132721894Y-93212714D02*
X132674275Y-93117476D01*
X132674275Y-93117476D02*
X132579037Y-93022238D01*
X132579037Y-93022238D02*
X132436180Y-92974619D01*
X132436180Y-92974619D02*
X132340942Y-92974619D01*
X132340942Y-92974619D02*
X132198085Y-93022238D01*
X132198085Y-93022238D02*
X132150466Y-93069857D01*
X131293323Y-92974619D02*
X131483799Y-92974619D01*
X131483799Y-92974619D02*
X131579037Y-93022238D01*
X131579037Y-93022238D02*
X131626656Y-93069857D01*
X131626656Y-93069857D02*
X131721894Y-93212714D01*
X131721894Y-93212714D02*
X131769513Y-93403190D01*
X131769513Y-93403190D02*
X131769513Y-93784142D01*
X131769513Y-93784142D02*
X131721894Y-93879380D01*
X131721894Y-93879380D02*
X131674275Y-93927000D01*
X131674275Y-93927000D02*
X131579037Y-93974619D01*
X131579037Y-93974619D02*
X131388561Y-93974619D01*
X131388561Y-93974619D02*
X131293323Y-93927000D01*
X131293323Y-93927000D02*
X131245704Y-93879380D01*
X131245704Y-93879380D02*
X131198085Y-93784142D01*
X131198085Y-93784142D02*
X131198085Y-93546047D01*
X131198085Y-93546047D02*
X131245704Y-93450809D01*
X131245704Y-93450809D02*
X131293323Y-93403190D01*
X131293323Y-93403190D02*
X131388561Y-93355571D01*
X131388561Y-93355571D02*
X131579037Y-93355571D01*
X131579037Y-93355571D02*
X131674275Y-93403190D01*
X131674275Y-93403190D02*
X131721894Y-93450809D01*
X131721894Y-93450809D02*
X131769513Y-93546047D01*
X131047980Y-90381333D02*
X131095600Y-90333714D01*
X131095600Y-90333714D02*
X131143219Y-90190857D01*
X131143219Y-90190857D02*
X131143219Y-90095619D01*
X131143219Y-90095619D02*
X131095600Y-89952762D01*
X131095600Y-89952762D02*
X131000361Y-89857524D01*
X131000361Y-89857524D02*
X130905123Y-89809905D01*
X130905123Y-89809905D02*
X130714647Y-89762286D01*
X130714647Y-89762286D02*
X130571790Y-89762286D01*
X130571790Y-89762286D02*
X130381314Y-89809905D01*
X130381314Y-89809905D02*
X130286076Y-89857524D01*
X130286076Y-89857524D02*
X130190838Y-89952762D01*
X130190838Y-89952762D02*
X130143219Y-90095619D01*
X130143219Y-90095619D02*
X130143219Y-90190857D01*
X130143219Y-90190857D02*
X130190838Y-90333714D01*
X130190838Y-90333714D02*
X130238457Y-90381333D01*
X130143219Y-90714667D02*
X130143219Y-91333714D01*
X130143219Y-91333714D02*
X130524171Y-91000381D01*
X130524171Y-91000381D02*
X130524171Y-91143238D01*
X130524171Y-91143238D02*
X130571790Y-91238476D01*
X130571790Y-91238476D02*
X130619409Y-91286095D01*
X130619409Y-91286095D02*
X130714647Y-91333714D01*
X130714647Y-91333714D02*
X130952742Y-91333714D01*
X130952742Y-91333714D02*
X131047980Y-91286095D01*
X131047980Y-91286095D02*
X131095600Y-91238476D01*
X131095600Y-91238476D02*
X131143219Y-91143238D01*
X131143219Y-91143238D02*
X131143219Y-90857524D01*
X131143219Y-90857524D02*
X131095600Y-90762286D01*
X131095600Y-90762286D02*
X131047980Y-90714667D01*
X126442980Y-95943933D02*
X126490600Y-95896314D01*
X126490600Y-95896314D02*
X126538219Y-95753457D01*
X126538219Y-95753457D02*
X126538219Y-95658219D01*
X126538219Y-95658219D02*
X126490600Y-95515362D01*
X126490600Y-95515362D02*
X126395361Y-95420124D01*
X126395361Y-95420124D02*
X126300123Y-95372505D01*
X126300123Y-95372505D02*
X126109647Y-95324886D01*
X126109647Y-95324886D02*
X125966790Y-95324886D01*
X125966790Y-95324886D02*
X125776314Y-95372505D01*
X125776314Y-95372505D02*
X125681076Y-95420124D01*
X125681076Y-95420124D02*
X125585838Y-95515362D01*
X125585838Y-95515362D02*
X125538219Y-95658219D01*
X125538219Y-95658219D02*
X125538219Y-95753457D01*
X125538219Y-95753457D02*
X125585838Y-95896314D01*
X125585838Y-95896314D02*
X125633457Y-95943933D01*
X125538219Y-96848695D02*
X125538219Y-96372505D01*
X125538219Y-96372505D02*
X126014409Y-96324886D01*
X126014409Y-96324886D02*
X125966790Y-96372505D01*
X125966790Y-96372505D02*
X125919171Y-96467743D01*
X125919171Y-96467743D02*
X125919171Y-96705838D01*
X125919171Y-96705838D02*
X125966790Y-96801076D01*
X125966790Y-96801076D02*
X126014409Y-96848695D01*
X126014409Y-96848695D02*
X126109647Y-96896314D01*
X126109647Y-96896314D02*
X126347742Y-96896314D01*
X126347742Y-96896314D02*
X126442980Y-96848695D01*
X126442980Y-96848695D02*
X126490600Y-96801076D01*
X126490600Y-96801076D02*
X126538219Y-96705838D01*
X126538219Y-96705838D02*
X126538219Y-96467743D01*
X126538219Y-96467743D02*
X126490600Y-96372505D01*
X126490600Y-96372505D02*
X126442980Y-96324886D01*
X126179819Y-92483333D02*
X125703628Y-92150000D01*
X126179819Y-91911905D02*
X125179819Y-91911905D01*
X125179819Y-91911905D02*
X125179819Y-92292857D01*
X125179819Y-92292857D02*
X125227438Y-92388095D01*
X125227438Y-92388095D02*
X125275057Y-92435714D01*
X125275057Y-92435714D02*
X125370295Y-92483333D01*
X125370295Y-92483333D02*
X125513152Y-92483333D01*
X125513152Y-92483333D02*
X125608390Y-92435714D01*
X125608390Y-92435714D02*
X125656009Y-92388095D01*
X125656009Y-92388095D02*
X125703628Y-92292857D01*
X125703628Y-92292857D02*
X125703628Y-91911905D01*
X125275057Y-92864286D02*
X125227438Y-92911905D01*
X125227438Y-92911905D02*
X125179819Y-93007143D01*
X125179819Y-93007143D02*
X125179819Y-93245238D01*
X125179819Y-93245238D02*
X125227438Y-93340476D01*
X125227438Y-93340476D02*
X125275057Y-93388095D01*
X125275057Y-93388095D02*
X125370295Y-93435714D01*
X125370295Y-93435714D02*
X125465533Y-93435714D01*
X125465533Y-93435714D02*
X125608390Y-93388095D01*
X125608390Y-93388095D02*
X126179819Y-92816667D01*
X126179819Y-92816667D02*
X126179819Y-93435714D01*
X130743180Y-92438733D02*
X130790800Y-92391114D01*
X130790800Y-92391114D02*
X130838419Y-92248257D01*
X130838419Y-92248257D02*
X130838419Y-92153019D01*
X130838419Y-92153019D02*
X130790800Y-92010162D01*
X130790800Y-92010162D02*
X130695561Y-91914924D01*
X130695561Y-91914924D02*
X130600323Y-91867305D01*
X130600323Y-91867305D02*
X130409847Y-91819686D01*
X130409847Y-91819686D02*
X130266990Y-91819686D01*
X130266990Y-91819686D02*
X130076514Y-91867305D01*
X130076514Y-91867305D02*
X129981276Y-91914924D01*
X129981276Y-91914924D02*
X129886038Y-92010162D01*
X129886038Y-92010162D02*
X129838419Y-92153019D01*
X129838419Y-92153019D02*
X129838419Y-92248257D01*
X129838419Y-92248257D02*
X129886038Y-92391114D01*
X129886038Y-92391114D02*
X129933657Y-92438733D01*
X130838419Y-92914924D02*
X130838419Y-93105400D01*
X130838419Y-93105400D02*
X130790800Y-93200638D01*
X130790800Y-93200638D02*
X130743180Y-93248257D01*
X130743180Y-93248257D02*
X130600323Y-93343495D01*
X130600323Y-93343495D02*
X130409847Y-93391114D01*
X130409847Y-93391114D02*
X130028895Y-93391114D01*
X130028895Y-93391114D02*
X129933657Y-93343495D01*
X129933657Y-93343495D02*
X129886038Y-93295876D01*
X129886038Y-93295876D02*
X129838419Y-93200638D01*
X129838419Y-93200638D02*
X129838419Y-93010162D01*
X129838419Y-93010162D02*
X129886038Y-92914924D01*
X129886038Y-92914924D02*
X129933657Y-92867305D01*
X129933657Y-92867305D02*
X130028895Y-92819686D01*
X130028895Y-92819686D02*
X130266990Y-92819686D01*
X130266990Y-92819686D02*
X130362228Y-92867305D01*
X130362228Y-92867305D02*
X130409847Y-92914924D01*
X130409847Y-92914924D02*
X130457466Y-93010162D01*
X130457466Y-93010162D02*
X130457466Y-93200638D01*
X130457466Y-93200638D02*
X130409847Y-93295876D01*
X130409847Y-93295876D02*
X130362228Y-93343495D01*
X130362228Y-93343495D02*
X130266990Y-93391114D01*
D11*
%TO.C,R1*%
X120737776Y-104197500D02*
X121247224Y-104197500D01*
X120737776Y-105242500D02*
X121247224Y-105242500D01*
%TO.C,C2*%
X127925933Y-89784000D02*
X128218467Y-89784000D01*
X127925933Y-90804000D02*
X128218467Y-90804000D01*
%TO.C,R3*%
X119252500Y-78504724D02*
X119252500Y-77995276D01*
X120297500Y-78504724D02*
X120297500Y-77995276D01*
%TO.C,C4*%
X121500000Y-99981233D02*
X121500000Y-100273767D01*
X120480000Y-99981233D02*
X120480000Y-100273767D01*
%TO.C,C1*%
X123592167Y-97491500D02*
X123299633Y-97491500D01*
X123592167Y-96471500D02*
X123299633Y-96471500D01*
%TO.C,C6*%
X131723667Y-95401400D02*
X131431133Y-95401400D01*
X131723667Y-94381400D02*
X131431133Y-94381400D01*
%TO.C,C3*%
X132646200Y-91062133D02*
X132646200Y-91354667D01*
X131626200Y-91062133D02*
X131626200Y-91354667D01*
%TO.C,C5*%
X128023400Y-95964333D02*
X128023400Y-96256867D01*
X127003400Y-95964333D02*
X127003400Y-96256867D01*
%TO.C,R2*%
X126914700Y-93012524D02*
X126914700Y-92503076D01*
X127959700Y-93012524D02*
X127959700Y-92503076D01*
%TO.C,C9*%
X129420400Y-92611533D02*
X129420400Y-92904067D01*
X128400400Y-92611533D02*
X128400400Y-92904067D01*
%TD*%
M02*
