%TF.GenerationSoftware,KiCad,Pcbnew,7.0.9*%
%TF.CreationDate,2024-08-25T17:31:10+01:00*%
%TF.ProjectId,RISKYKVM,5249534b-594b-4564-9d2e-6b696361645f,rev?*%
%TF.SameCoordinates,Original*%
%TF.FileFunction,Copper,L1,Top*%
%TF.FilePolarity,Positive*%
%FSLAX46Y46*%
G04 Gerber Fmt 4.6, Leading zero omitted, Abs format (unit mm)*
G04 Created by KiCad (PCBNEW 7.0.9) date 2024-08-25 17:31:10*
%MOMM*%
%LPD*%
G01*
G04 APERTURE LIST*
G04 Aperture macros list*
%AMRoundRect*
0 Rectangle with rounded corners*
0 $1 Rounding radius*
0 $2 $3 $4 $5 $6 $7 $8 $9 X,Y pos of 4 corners*
0 Add a 4 corners polygon primitive as box body*
4,1,4,$2,$3,$4,$5,$6,$7,$8,$9,$2,$3,0*
0 Add four circle primitives for the rounded corners*
1,1,$1+$1,$2,$3*
1,1,$1+$1,$4,$5*
1,1,$1+$1,$6,$7*
1,1,$1+$1,$8,$9*
0 Add four rect primitives between the rounded corners*
20,1,$1+$1,$2,$3,$4,$5,0*
20,1,$1+$1,$4,$5,$6,$7,0*
20,1,$1+$1,$6,$7,$8,$9,0*
20,1,$1+$1,$8,$9,$2,$3,0*%
%AMFreePoly0*
4,1,9,3.862500,-0.866500,0.737500,-0.866500,0.737500,-0.450000,-0.737500,-0.450000,-0.737500,0.450000,0.737500,0.450000,0.737500,0.866500,3.862500,0.866500,3.862500,-0.866500,3.862500,-0.866500,$1*%
G04 Aperture macros list end*
%TA.AperFunction,SMDPad,CuDef*%
%ADD10RoundRect,0.075000X-0.662500X-0.075000X0.662500X-0.075000X0.662500X0.075000X-0.662500X0.075000X0*%
%TD*%
%TA.AperFunction,SMDPad,CuDef*%
%ADD11RoundRect,0.075000X-0.075000X-0.662500X0.075000X-0.662500X0.075000X0.662500X-0.075000X0.662500X0*%
%TD*%
%TA.AperFunction,SMDPad,CuDef*%
%ADD12RoundRect,0.250000X0.450000X-0.325000X0.450000X0.325000X-0.450000X0.325000X-0.450000X-0.325000X0*%
%TD*%
%TA.AperFunction,ComponentPad*%
%ADD13R,1.700000X1.700000*%
%TD*%
%TA.AperFunction,ComponentPad*%
%ADD14O,1.700000X1.700000*%
%TD*%
%TA.AperFunction,SMDPad,CuDef*%
%ADD15RoundRect,0.250001X0.462499X0.624999X-0.462499X0.624999X-0.462499X-0.624999X0.462499X-0.624999X0*%
%TD*%
%TA.AperFunction,ComponentPad*%
%ADD16R,1.524000X1.524000*%
%TD*%
%TA.AperFunction,ComponentPad*%
%ADD17C,1.524000*%
%TD*%
%TA.AperFunction,ComponentPad*%
%ADD18C,3.500000*%
%TD*%
%TA.AperFunction,SMDPad,CuDef*%
%ADD19R,1.846667X3.480000*%
%TD*%
%TA.AperFunction,SMDPad,CuDef*%
%ADD20R,0.900000X1.300000*%
%TD*%
%TA.AperFunction,SMDPad,CuDef*%
%ADD21FreePoly0,270.000000*%
%TD*%
%TA.AperFunction,ViaPad*%
%ADD22C,0.600000*%
%TD*%
%TA.AperFunction,Conductor*%
%ADD23C,0.127000*%
%TD*%
%TA.AperFunction,Conductor*%
%ADD24C,0.200000*%
%TD*%
%TA.AperFunction,Conductor*%
%ADD25C,0.400000*%
%TD*%
%TA.AperFunction,Conductor*%
%ADD26C,0.500000*%
%TD*%
G04 APERTURE END LIST*
D10*
%TO.P,U1,1,VBAT*%
%TO.N,+3.3V*%
X125577500Y-89902500D03*
%TO.P,U1,2,PC13_TAMPER_RTC*%
%TO.N,unconnected-(U1-PC13_TAMPER_RTC-Pad2)*%
X125577500Y-90402500D03*
%TO.P,U1,3,PC14_OSC32IN*%
%TO.N,/LED1*%
X125577500Y-90902500D03*
%TO.P,U1,4,PC15_OSC32OUT*%
%TO.N,unconnected-(U1-PC15_OSC32OUT-Pad4)*%
X125577500Y-91402500D03*
%TO.P,U1,5,OSC_IN_PD0*%
%TO.N,unconnected-(U1-OSC_IN_PD0-Pad5)*%
X125577500Y-91902500D03*
%TO.P,U1,6,OSC_OUT_PD1*%
%TO.N,unconnected-(U1-OSC_OUT_PD1-Pad6)*%
X125577500Y-92402500D03*
%TO.P,U1,7,NRST*%
%TO.N,/NRST*%
X125577500Y-92902500D03*
%TO.P,U1,8,VSSA*%
%TO.N,GND*%
X125577500Y-93402500D03*
%TO.P,U1,9,VDDA*%
%TO.N,+3.3V*%
X125577500Y-93902500D03*
%TO.P,U1,10,PA0_WKUP_ADC0*%
%TO.N,unconnected-(U1-PA0_WKUP_ADC0-Pad10)*%
X125577500Y-94402500D03*
%TO.P,U1,11,PA1_ADC1*%
%TO.N,unconnected-(U1-PA1_ADC1-Pad11)*%
X125577500Y-94902500D03*
%TO.P,U1,12,PA2_ADC2*%
%TO.N,unconnected-(U1-PA2_ADC2-Pad12)*%
X125577500Y-95402500D03*
D11*
%TO.P,U1,13,PA3_ADC3*%
%TO.N,unconnected-(U1-PA3_ADC3-Pad13)*%
X126990000Y-96815000D03*
%TO.P,U1,14,PA4_ADC4*%
%TO.N,unconnected-(U1-PA4_ADC4-Pad14)*%
X127490000Y-96815000D03*
%TO.P,U1,15,PA5_ADC5*%
%TO.N,unconnected-(U1-PA5_ADC5-Pad15)*%
X127990000Y-96815000D03*
%TO.P,U1,16,PA6_ADC6*%
%TO.N,unconnected-(U1-PA6_ADC6-Pad16)*%
X128490000Y-96815000D03*
%TO.P,U1,17,PA7_ADC7*%
%TO.N,unconnected-(U1-PA7_ADC7-Pad17)*%
X128990000Y-96815000D03*
%TO.P,U1,18,PB0_ADC8*%
%TO.N,unconnected-(U1-PB0_ADC8-Pad18)*%
X129490000Y-96815000D03*
%TO.P,U1,19,PB1_ADC9*%
%TO.N,unconnected-(U1-PB1_ADC9-Pad19)*%
X129990000Y-96815000D03*
%TO.P,U1,20,PB2_BOOT1(FT)*%
%TO.N,GND*%
X130490000Y-96815000D03*
%TO.P,U1,21,PB10(FT)*%
%TO.N,/PIN5*%
X130990000Y-96815000D03*
%TO.P,U1,22,PB11(FT)*%
%TO.N,/PIN9*%
X131490000Y-96815000D03*
%TO.P,U1,23,VSS1*%
%TO.N,GND*%
X131990000Y-96815000D03*
%TO.P,U1,24,VDD_VIO1*%
%TO.N,+3.3V*%
X132490000Y-96815000D03*
D10*
%TO.P,U1,25,PB12(FT)*%
%TO.N,/PIN4*%
X133902500Y-95402500D03*
%TO.P,U1,26,PB13(FT)*%
%TO.N,/PIN3*%
X133902500Y-94902500D03*
%TO.P,U1,27,PB14(FT)*%
%TO.N,/PIN2*%
X133902500Y-94402500D03*
%TO.P,U1,28,PB15(FT)*%
%TO.N,/PIN6*%
X133902500Y-93902500D03*
%TO.P,U1,29,PA8(FT)*%
%TO.N,/PIN1*%
X133902500Y-93402500D03*
%TO.P,U1,30,PA9(FT)*%
%TO.N,unconnected-(U1-PA9(FT)-Pad30)*%
X133902500Y-92902500D03*
%TO.P,U1,31,PA10(FT)*%
%TO.N,/KB_RESET*%
X133902500Y-92402500D03*
%TO.P,U1,32,PA11_USB1DM(FT)*%
%TO.N,/KB_DATA*%
X133902500Y-91902500D03*
%TO.P,U1,33,PA12_USB1DP(FT)*%
%TO.N,/KB_CLK*%
X133902500Y-91402500D03*
%TO.P,U1,34,PA13_SWDIO(FT)*%
%TO.N,/SWDIO*%
X133902500Y-90902500D03*
%TO.P,U1,35,VSS_2*%
%TO.N,GND*%
X133902500Y-90402500D03*
%TO.P,U1,36,VDD_2*%
%TO.N,+3.3V*%
X133902500Y-89902500D03*
D11*
%TO.P,U1,37,PA14_SWCLK(FT)*%
%TO.N,/SWCLK*%
X132490000Y-88490000D03*
%TO.P,U1,38,PA15(FT)*%
%TO.N,unconnected-(U1-PA15(FT)-Pad38)*%
X131990000Y-88490000D03*
%TO.P,U1,39,PB3(FT)*%
%TO.N,unconnected-(U1-PB3(FT)-Pad39)*%
X131490000Y-88490000D03*
%TO.P,U1,40,PB4(FT)*%
%TO.N,unconnected-(U1-PB4(FT)-Pad40)*%
X130990000Y-88490000D03*
%TO.P,U1,41,PB5(FT)*%
%TO.N,unconnected-(U1-PB5(FT)-Pad41)*%
X130490000Y-88490000D03*
%TO.P,U1,42,PB6_USB2DM(FT)*%
%TO.N,/USB_DM*%
X129990000Y-88490000D03*
%TO.P,U1,43,PB7_USB2DP(FT)*%
%TO.N,/USB_DP*%
X129490000Y-88490000D03*
%TO.P,U1,44,BOOT0*%
%TO.N,GND*%
X128990000Y-88490000D03*
%TO.P,U1,45,PB8(FT)*%
%TO.N,unconnected-(U1-PB8(FT)-Pad45)*%
X128490000Y-88490000D03*
%TO.P,U1,46,PB9(FT)*%
%TO.N,unconnected-(U1-PB9(FT)-Pad46)*%
X127990000Y-88490000D03*
%TO.P,U1,47,VSS_3*%
%TO.N,GND*%
X127490000Y-88490000D03*
%TO.P,U1,48,VDD_VIO_3*%
%TO.N,+3.3V*%
X126990000Y-88490000D03*
%TD*%
D12*
%TO.P,D2,1,K*%
%TO.N,/LED1*%
X119800000Y-81272500D03*
%TO.P,D2,2,A*%
%TO.N,Net-(D2-A)*%
X119800000Y-79222500D03*
%TD*%
D13*
%TO.P,J4,1,Pin_1*%
%TO.N,/KB_CLK*%
X140390000Y-84610000D03*
D14*
%TO.P,J4,2,Pin_2*%
%TO.N,/KB_DATA*%
X140390000Y-87150000D03*
%TO.P,J4,3,Pin_3*%
%TO.N,/KB_RESET*%
X140390000Y-89690000D03*
%TO.P,J4,4,Pin_4*%
%TO.N,+5V*%
X140390000Y-92230000D03*
%TO.P,J4,5,Pin_5*%
%TO.N,GND*%
X140390000Y-94770000D03*
%TO.P,J4,6,Pin_6*%
%TO.N,unconnected-(J4-Pin_6-Pad6)*%
X140390000Y-97310000D03*
%TO.P,J4,7,Pin_7*%
%TO.N,unconnected-(J4-Pin_7-Pad7)*%
X140390000Y-99850000D03*
%TO.P,J4,8,Pin_8*%
%TO.N,unconnected-(J4-Pin_8-Pad8)*%
X140390000Y-102390000D03*
%TD*%
D15*
%TO.P,F1,1*%
%TO.N,Net-(J3-VBUS)*%
X131350000Y-83900000D03*
%TO.P,F1,2*%
%TO.N,+5V*%
X128375000Y-83900000D03*
%TD*%
D16*
%TO.P,J3,1,VBUS*%
%TO.N,Net-(J3-VBUS)*%
X133675000Y-81267100D03*
D17*
%TO.P,J3,2,D-*%
%TO.N,/USB_DM*%
X131175000Y-81267100D03*
%TO.P,J3,3,D+*%
%TO.N,/USB_DP*%
X129175000Y-81267100D03*
%TO.P,J3,4,GND*%
%TO.N,GND*%
X126675000Y-81267100D03*
D18*
%TO.P,J3,5,Shield*%
X136745000Y-78557100D03*
X123605000Y-78557100D03*
%TD*%
D19*
%TO.P,J1,5,5*%
%TO.N,/PIN5*%
X124760000Y-108037500D03*
%TO.P,J1,4,4*%
%TO.N,/PIN4*%
X127530000Y-108037500D03*
%TO.P,J1,3,3*%
%TO.N,/PIN3*%
X130300000Y-108037500D03*
%TO.P,J1,2,2*%
%TO.N,/PIN2*%
X133070000Y-108037500D03*
%TO.P,J1,1,1*%
%TO.N,/PIN1*%
X135840000Y-108037500D03*
%TD*%
D12*
%TO.P,D1,2,A*%
%TO.N,Net-(D1-A)*%
X120060000Y-104680000D03*
%TO.P,D1,1,K*%
%TO.N,GND*%
X120060000Y-106730000D03*
%TD*%
D20*
%TO.P,U2,1,GND*%
%TO.N,GND*%
X124130000Y-98652500D03*
D21*
%TO.P,U2,2,VO*%
%TO.N,+3.3V*%
X122630000Y-98740000D03*
D20*
%TO.P,U2,3,VI*%
%TO.N,+5V*%
X121130000Y-98652500D03*
%TD*%
D13*
%TO.P,J2,1,Pin_1*%
%TO.N,/SWCLK*%
X135400000Y-85000000D03*
D14*
%TO.P,J2,2,Pin_2*%
%TO.N,/SWDIO*%
X135400000Y-87540000D03*
%TD*%
D22*
%TO.N,GND*%
X130700000Y-94900000D03*
%TO.N,+3.3V*%
X122630000Y-98740000D03*
X132085400Y-90319400D03*
X119775000Y-77375000D03*
X132466400Y-95831200D03*
X121925000Y-104650000D03*
X127107000Y-90344800D03*
X126530218Y-93916221D03*
%TO.N,GND*%
X137100000Y-92450000D03*
X128900000Y-108100000D03*
X138400000Y-96200000D03*
X131980000Y-98100000D03*
X124077800Y-98676900D03*
X122600000Y-95100000D03*
X129720000Y-77770000D03*
X128010000Y-99540000D03*
X122600000Y-97000000D03*
%TO.N,+5V*%
X121131400Y-99134100D03*
X128360000Y-83820000D03*
%TO.N,/NRST*%
X126566051Y-92941667D03*
%TO.N,/PIN6*%
X134455000Y-107797500D03*
%TO.N,/PIN9*%
X126145000Y-107797500D03*
%TO.N,Net-(D1-A)*%
X120150000Y-104630000D03*
%TO.N,Net-(D2-A)*%
X119800000Y-79250000D03*
%TD*%
D23*
%TO.N,GND*%
X132375000Y-91192501D02*
X132375000Y-91275000D01*
X133165001Y-90402500D02*
X132375000Y-91192501D01*
X133902500Y-90402500D02*
X133165001Y-90402500D01*
X128990000Y-88490000D02*
X128990000Y-87365000D01*
X128990000Y-87365000D02*
X128700000Y-87075000D01*
X127490000Y-87010000D02*
X127500000Y-87000000D01*
X127490000Y-88490000D02*
X127490000Y-87010000D01*
X130490000Y-95110000D02*
X130700000Y-94900000D01*
X130490000Y-96815000D02*
X130490000Y-95110000D01*
X131990000Y-98090000D02*
X131990000Y-96815000D01*
X131980000Y-98100000D02*
X131990000Y-98090000D01*
%TO.N,/PIN1*%
X135840000Y-94602501D02*
X135840000Y-108037500D01*
X134639999Y-93402500D02*
X135840000Y-94602501D01*
X133902500Y-93402500D02*
X134639999Y-93402500D01*
%TO.N,/PIN6*%
X135475000Y-104815833D02*
X134455000Y-105835833D01*
X135475000Y-94737501D02*
X135475000Y-104815833D01*
X134639999Y-93902500D02*
X135475000Y-94737501D01*
X133902500Y-93902500D02*
X134639999Y-93902500D01*
X134455000Y-105835833D02*
X134455000Y-107797500D01*
%TO.N,/PIN2*%
X135175000Y-102925000D02*
X133070000Y-105030000D01*
X133070000Y-105030000D02*
X133070000Y-108037500D01*
X135175000Y-94937501D02*
X135175000Y-102925000D01*
X134639999Y-94402500D02*
X135175000Y-94937501D01*
X133902500Y-94402500D02*
X134639999Y-94402500D01*
%TO.N,/PIN3*%
X134875000Y-101400000D02*
X130300000Y-105975000D01*
X130300000Y-105975000D02*
X130300000Y-108037500D01*
X134875000Y-95137501D02*
X134875000Y-101400000D01*
X134639999Y-94902500D02*
X134875000Y-95137501D01*
X133902500Y-94902500D02*
X134639999Y-94902500D01*
%TO.N,/PIN4*%
X127530000Y-107220833D02*
X127530000Y-108037500D01*
X133902500Y-95402500D02*
X133902500Y-100848333D01*
X133902500Y-100848333D02*
X127530000Y-107220833D01*
%TO.N,/PIN9*%
X126145000Y-102897499D02*
X126145000Y-107797500D01*
X131490000Y-97552499D02*
X126145000Y-102897499D01*
X131490000Y-96815000D02*
X131490000Y-97552499D01*
%TO.N,/PIN5*%
X124760000Y-103782499D02*
X124760000Y-108037500D01*
X130990000Y-97552499D02*
X124760000Y-103782499D01*
X130990000Y-96815000D02*
X130990000Y-97552499D01*
D24*
%TO.N,+3.3V*%
X132498600Y-89906200D02*
X132085400Y-90319400D01*
X127132400Y-90319400D02*
X127107000Y-90344800D01*
D23*
X125596121Y-93916221D02*
X125586100Y-93906200D01*
D24*
X126998600Y-90014600D02*
X126998600Y-90236400D01*
D23*
X132498600Y-96818700D02*
X132499700Y-96819800D01*
D24*
X126998600Y-88493700D02*
X126998600Y-90014600D01*
X126890200Y-89906200D02*
X126998600Y-90014600D01*
D23*
X126530218Y-93916221D02*
X125596121Y-93916221D01*
D24*
X126998600Y-90236400D02*
X127107000Y-90344800D01*
X125586100Y-89906200D02*
X126890200Y-89906200D01*
X133911100Y-89906200D02*
X132498600Y-89906200D01*
D23*
X132466400Y-96786500D02*
X132498600Y-96818700D01*
X132466400Y-95831200D02*
X132466400Y-96786500D01*
%TO.N,GND*%
X125577500Y-93402500D02*
X124297500Y-93402500D01*
X124297500Y-93402500D02*
X122600000Y-95100000D01*
D24*
X124919430Y-93406200D02*
X125586100Y-93406200D01*
D23*
X138960000Y-96200000D02*
X140390000Y-94770000D01*
X138400000Y-96200000D02*
X138960000Y-96200000D01*
D25*
%TO.N,+5V*%
X121130000Y-98652500D02*
X121131400Y-99134100D01*
D23*
%TO.N,/NRST*%
X125621567Y-92941667D02*
X125586100Y-92906200D01*
X126566051Y-92941667D02*
X125621567Y-92941667D01*
D26*
%TO.N,Net-(J3-VBUS)*%
X133190000Y-83920000D02*
X131447500Y-83920000D01*
X133675000Y-81267100D02*
X133675000Y-83435000D01*
X133680200Y-81272300D02*
X133675000Y-81267100D01*
X133675000Y-83435000D02*
X133190000Y-83920000D01*
D23*
%TO.N,/PIN5*%
X124760000Y-107163957D02*
X124760000Y-107797500D01*
%TO.N,/PIN6*%
X134280000Y-107622500D02*
X134455000Y-107797500D01*
%TO.N,/SWDIO*%
X136250000Y-88440000D02*
X135400000Y-87590000D01*
X135167772Y-90902500D02*
X136250000Y-89820272D01*
X136250000Y-89820272D02*
X136250000Y-88440000D01*
X133902500Y-90902500D02*
X135167772Y-90902500D01*
%TO.N,/SWCLK*%
X132490000Y-85950000D02*
X133390000Y-85050000D01*
X132490000Y-88490000D02*
X132490000Y-85950000D01*
X133390000Y-85050000D02*
X135400000Y-85050000D01*
D24*
%TO.N,/USB_DM*%
X130018600Y-82423500D02*
X131175000Y-81267100D01*
X129990000Y-82452100D02*
X131175000Y-81267100D01*
X129990000Y-88490000D02*
X129990000Y-82452100D01*
%TO.N,/USB_DP*%
X129490000Y-81582100D02*
X129175000Y-81267100D01*
X129490000Y-88490000D02*
X129490000Y-81582100D01*
X129518600Y-81610700D02*
X129175000Y-81267100D01*
D23*
%TO.N,/KB_CLK*%
X133902500Y-91402500D02*
X135026982Y-91402500D01*
X135026982Y-91402500D02*
X137220000Y-89209482D01*
X138410000Y-84610000D02*
X140390000Y-84610000D01*
X137220000Y-85800000D02*
X138410000Y-84610000D01*
X137220000Y-89209482D02*
X137220000Y-85800000D01*
%TO.N,/KB_DATA*%
X138294000Y-87150000D02*
X140390000Y-87150000D01*
X137474000Y-87970000D02*
X138294000Y-87150000D01*
X133902500Y-91902500D02*
X134886192Y-91902500D01*
X134886192Y-91902500D02*
X137474000Y-89314692D01*
X137474000Y-89314692D02*
X137474000Y-87970000D01*
%TO.N,/KB_RESET*%
X133902500Y-92402500D02*
X134837500Y-92402500D01*
X134837500Y-92402500D02*
X137550000Y-89690000D01*
X137550000Y-89690000D02*
X140390000Y-89690000D01*
%TO.N,unconnected-(U1-OSC_IN_PD0-Pad5)*%
X125526500Y-91965800D02*
X125586100Y-91906200D01*
D24*
%TO.N,unconnected-(U1-PA2_ADC2-Pad12)*%
X125583000Y-95409300D02*
X125586100Y-95406200D01*
D23*
%TO.N,/LED1*%
X119800000Y-81272500D02*
X119800000Y-88520000D01*
X119800000Y-88520000D02*
X122182500Y-90902500D01*
X122182500Y-90902500D02*
X125577500Y-90902500D01*
%TD*%
%TA.AperFunction,Conductor*%
%TO.N,GND*%
G36*
X142360739Y-75365585D02*
G01*
X142406494Y-75418389D01*
X142417700Y-75469900D01*
X142417700Y-109575748D01*
X142398015Y-109642787D01*
X142345211Y-109688542D01*
X142293650Y-109699748D01*
X137387783Y-109697778D01*
X137320752Y-109678067D01*
X137275018Y-109625244D01*
X137263833Y-109573782D01*
X137263833Y-106249628D01*
X137257425Y-106190017D01*
X137218584Y-106085880D01*
X137207131Y-106055171D01*
X137207127Y-106055164D01*
X137120881Y-105939955D01*
X137120878Y-105939952D01*
X137005669Y-105853706D01*
X137005662Y-105853702D01*
X136870816Y-105803408D01*
X136870817Y-105803408D01*
X136811217Y-105797001D01*
X136811215Y-105797000D01*
X136811207Y-105797000D01*
X136811199Y-105797000D01*
X136528000Y-105797000D01*
X136460961Y-105777315D01*
X136415206Y-105724511D01*
X136404000Y-105673000D01*
X136404000Y-94643542D01*
X136404531Y-94635440D01*
X136408868Y-94602500D01*
X136401434Y-94546036D01*
X136389483Y-94455267D01*
X136356192Y-94374896D01*
X136332654Y-94318067D01*
X136263510Y-94227957D01*
X136263493Y-94227936D01*
X136242250Y-94200251D01*
X136215892Y-94180026D01*
X136209789Y-94174673D01*
X135173250Y-93138134D01*
X135139765Y-93076811D01*
X135137992Y-93034267D01*
X135140500Y-93015220D01*
X135140500Y-92942057D01*
X135160185Y-92875018D01*
X135189015Y-92843680D01*
X135192293Y-92841163D01*
X135210168Y-92827449D01*
X135210168Y-92827448D01*
X135223517Y-92817205D01*
X135239750Y-92804750D01*
X135259976Y-92778388D01*
X135265319Y-92772296D01*
X137747297Y-90290319D01*
X137808620Y-90256834D01*
X137834978Y-90254000D01*
X139083888Y-90254000D01*
X139150927Y-90273685D01*
X139196270Y-90325595D01*
X139215964Y-90367829D01*
X139215965Y-90367831D01*
X139351501Y-90561395D01*
X139351506Y-90561402D01*
X139518597Y-90728493D01*
X139518603Y-90728498D01*
X139704158Y-90858425D01*
X139747783Y-90913002D01*
X139754977Y-90982500D01*
X139723454Y-91044855D01*
X139704158Y-91061575D01*
X139518597Y-91191505D01*
X139351505Y-91358597D01*
X139215965Y-91552169D01*
X139215964Y-91552171D01*
X139116098Y-91766335D01*
X139116094Y-91766344D01*
X139054938Y-91994586D01*
X139054936Y-91994596D01*
X139034341Y-92229999D01*
X139034341Y-92230000D01*
X139054936Y-92465403D01*
X139054938Y-92465413D01*
X139116094Y-92693655D01*
X139116096Y-92693659D01*
X139116097Y-92693663D01*
X139203410Y-92880906D01*
X139215965Y-92907830D01*
X139215967Y-92907834D01*
X139351501Y-93101395D01*
X139351506Y-93101402D01*
X139518597Y-93268493D01*
X139518603Y-93268498D01*
X139704594Y-93398730D01*
X139748219Y-93453307D01*
X139755413Y-93522805D01*
X139723890Y-93585160D01*
X139704595Y-93601880D01*
X139518922Y-93731890D01*
X139518920Y-93731891D01*
X139351891Y-93898920D01*
X139351886Y-93898926D01*
X139216400Y-94092420D01*
X139216399Y-94092422D01*
X139116570Y-94306507D01*
X139116567Y-94306513D01*
X139059364Y-94519999D01*
X139059364Y-94520000D01*
X139956314Y-94520000D01*
X139930507Y-94560156D01*
X139890000Y-94698111D01*
X139890000Y-94841889D01*
X139930507Y-94979844D01*
X139956314Y-95020000D01*
X139059364Y-95020000D01*
X139116567Y-95233486D01*
X139116570Y-95233492D01*
X139216399Y-95447578D01*
X139351894Y-95641082D01*
X139518917Y-95808105D01*
X139704595Y-95938119D01*
X139748219Y-95992696D01*
X139755412Y-96062195D01*
X139723890Y-96124549D01*
X139704595Y-96141269D01*
X139518594Y-96271508D01*
X139351505Y-96438597D01*
X139215965Y-96632169D01*
X139215964Y-96632171D01*
X139116098Y-96846335D01*
X139116094Y-96846344D01*
X139054938Y-97074586D01*
X139054936Y-97074596D01*
X139034341Y-97309999D01*
X139034341Y-97310000D01*
X139054936Y-97545403D01*
X139054938Y-97545413D01*
X139116094Y-97773655D01*
X139116096Y-97773659D01*
X139116097Y-97773663D01*
X139185989Y-97923546D01*
X139215965Y-97987830D01*
X139215967Y-97987834D01*
X139351501Y-98181395D01*
X139351506Y-98181402D01*
X139518597Y-98348493D01*
X139518603Y-98348498D01*
X139704158Y-98478425D01*
X139747783Y-98533002D01*
X139754977Y-98602500D01*
X139723454Y-98664855D01*
X139704158Y-98681575D01*
X139518597Y-98811505D01*
X139351505Y-98978597D01*
X139215965Y-99172169D01*
X139215964Y-99172171D01*
X139116098Y-99386335D01*
X139116094Y-99386344D01*
X139054938Y-99614586D01*
X139054936Y-99614596D01*
X139034341Y-99849999D01*
X139034341Y-99850000D01*
X139054936Y-100085403D01*
X139054938Y-100085413D01*
X139116094Y-100313655D01*
X139116096Y-100313659D01*
X139116097Y-100313663D01*
X139215965Y-100527830D01*
X139215967Y-100527834D01*
X139351501Y-100721395D01*
X139351506Y-100721402D01*
X139518597Y-100888493D01*
X139518603Y-100888498D01*
X139704158Y-101018425D01*
X139747783Y-101073002D01*
X139754977Y-101142500D01*
X139723454Y-101204855D01*
X139704158Y-101221575D01*
X139518597Y-101351505D01*
X139351505Y-101518597D01*
X139215965Y-101712169D01*
X139215964Y-101712171D01*
X139116098Y-101926335D01*
X139116094Y-101926344D01*
X139054938Y-102154586D01*
X139054936Y-102154596D01*
X139034341Y-102389999D01*
X139034341Y-102390000D01*
X139054936Y-102625403D01*
X139054938Y-102625413D01*
X139116094Y-102853655D01*
X139116096Y-102853659D01*
X139116097Y-102853663D01*
X139177174Y-102984643D01*
X139215965Y-103067830D01*
X139215967Y-103067834D01*
X139296241Y-103182476D01*
X139351505Y-103261401D01*
X139518599Y-103428495D01*
X139615384Y-103496265D01*
X139712165Y-103564032D01*
X139712167Y-103564033D01*
X139712170Y-103564035D01*
X139926337Y-103663903D01*
X139926343Y-103663904D01*
X139926344Y-103663905D01*
X139949789Y-103670187D01*
X140154592Y-103725063D01*
X140342918Y-103741539D01*
X140389999Y-103745659D01*
X140390000Y-103745659D01*
X140390001Y-103745659D01*
X140429234Y-103742226D01*
X140625408Y-103725063D01*
X140853663Y-103663903D01*
X141067830Y-103564035D01*
X141261401Y-103428495D01*
X141428495Y-103261401D01*
X141564035Y-103067830D01*
X141663903Y-102853663D01*
X141725063Y-102625408D01*
X141745659Y-102390000D01*
X141725063Y-102154592D01*
X141663903Y-101926337D01*
X141564035Y-101712171D01*
X141428495Y-101518599D01*
X141428494Y-101518597D01*
X141261402Y-101351506D01*
X141261396Y-101351501D01*
X141075842Y-101221575D01*
X141032217Y-101166998D01*
X141025023Y-101097500D01*
X141056546Y-101035145D01*
X141075842Y-101018425D01*
X141098026Y-101002891D01*
X141261401Y-100888495D01*
X141428495Y-100721401D01*
X141564035Y-100527830D01*
X141663903Y-100313663D01*
X141725063Y-100085408D01*
X141745659Y-99850000D01*
X141725063Y-99614592D01*
X141663903Y-99386337D01*
X141564035Y-99172171D01*
X141545971Y-99146372D01*
X141428494Y-98978597D01*
X141261402Y-98811506D01*
X141261396Y-98811501D01*
X141075842Y-98681575D01*
X141032217Y-98626998D01*
X141025023Y-98557500D01*
X141056546Y-98495145D01*
X141075842Y-98478425D01*
X141184274Y-98402500D01*
X141261401Y-98348495D01*
X141428495Y-98181401D01*
X141564035Y-97987830D01*
X141663903Y-97773663D01*
X141725063Y-97545408D01*
X141745659Y-97310000D01*
X141725063Y-97074592D01*
X141663903Y-96846337D01*
X141564035Y-96632171D01*
X141428495Y-96438599D01*
X141428494Y-96438597D01*
X141261402Y-96271506D01*
X141261401Y-96271505D01*
X141075405Y-96141269D01*
X141031781Y-96086692D01*
X141024588Y-96017193D01*
X141056110Y-95954839D01*
X141075405Y-95938119D01*
X141261082Y-95808105D01*
X141428105Y-95641082D01*
X141563600Y-95447578D01*
X141663429Y-95233492D01*
X141663432Y-95233486D01*
X141720636Y-95020000D01*
X140823686Y-95020000D01*
X140849493Y-94979844D01*
X140890000Y-94841889D01*
X140890000Y-94698111D01*
X140849493Y-94560156D01*
X140823686Y-94520000D01*
X141720636Y-94520000D01*
X141720635Y-94519999D01*
X141663432Y-94306513D01*
X141663429Y-94306507D01*
X141563600Y-94092422D01*
X141563599Y-94092420D01*
X141428113Y-93898926D01*
X141428108Y-93898920D01*
X141261078Y-93731890D01*
X141075405Y-93601879D01*
X141031780Y-93547302D01*
X141024588Y-93477804D01*
X141056110Y-93415449D01*
X141075406Y-93398730D01*
X141090800Y-93387951D01*
X141261401Y-93268495D01*
X141428495Y-93101401D01*
X141564035Y-92907830D01*
X141663903Y-92693663D01*
X141725063Y-92465408D01*
X141745659Y-92230000D01*
X141744423Y-92215878D01*
X141736712Y-92127736D01*
X141725063Y-91994592D01*
X141670186Y-91789786D01*
X141663905Y-91766344D01*
X141663904Y-91766343D01*
X141663903Y-91766337D01*
X141564035Y-91552171D01*
X141517832Y-91486185D01*
X141428494Y-91358597D01*
X141261402Y-91191506D01*
X141261396Y-91191501D01*
X141075842Y-91061575D01*
X141032217Y-91006998D01*
X141025023Y-90937500D01*
X141056546Y-90875145D01*
X141075842Y-90858425D01*
X141128345Y-90821662D01*
X141261401Y-90728495D01*
X141428495Y-90561401D01*
X141564035Y-90367830D01*
X141663903Y-90153663D01*
X141725063Y-89925408D01*
X141745659Y-89690000D01*
X141725063Y-89454592D01*
X141663903Y-89226337D01*
X141564035Y-89012171D01*
X141559686Y-89005959D01*
X141428494Y-88818597D01*
X141261402Y-88651506D01*
X141261396Y-88651501D01*
X141075842Y-88521575D01*
X141032217Y-88466998D01*
X141025023Y-88397500D01*
X141056546Y-88335145D01*
X141075842Y-88318425D01*
X141098026Y-88302891D01*
X141261401Y-88188495D01*
X141428495Y-88021401D01*
X141564035Y-87827830D01*
X141663903Y-87613663D01*
X141725063Y-87385408D01*
X141745659Y-87150000D01*
X141725063Y-86914592D01*
X141663903Y-86686337D01*
X141564035Y-86472171D01*
X141548612Y-86450145D01*
X141428496Y-86278600D01*
X141384874Y-86234978D01*
X141306567Y-86156671D01*
X141273084Y-86095351D01*
X141278068Y-86025659D01*
X141319939Y-85969725D01*
X141350915Y-85952810D01*
X141482331Y-85903796D01*
X141597546Y-85817546D01*
X141683796Y-85702331D01*
X141734091Y-85567483D01*
X141740500Y-85507873D01*
X141740499Y-83712128D01*
X141734091Y-83652517D01*
X141685680Y-83522721D01*
X141683797Y-83517671D01*
X141683793Y-83517664D01*
X141597547Y-83402455D01*
X141597544Y-83402452D01*
X141482335Y-83316206D01*
X141482328Y-83316202D01*
X141347482Y-83265908D01*
X141347483Y-83265908D01*
X141287883Y-83259501D01*
X141287881Y-83259500D01*
X141287873Y-83259500D01*
X141287864Y-83259500D01*
X139492129Y-83259500D01*
X139492123Y-83259501D01*
X139432516Y-83265908D01*
X139297671Y-83316202D01*
X139297664Y-83316206D01*
X139182455Y-83402452D01*
X139182452Y-83402455D01*
X139096206Y-83517664D01*
X139096202Y-83517671D01*
X139045908Y-83652517D01*
X139039501Y-83712116D01*
X139039501Y-83712123D01*
X139039500Y-83712135D01*
X139039500Y-83922000D01*
X139019815Y-83989039D01*
X138967011Y-84034794D01*
X138915500Y-84046000D01*
X138451034Y-84046000D01*
X138442936Y-84045469D01*
X138410000Y-84041133D01*
X138409999Y-84041133D01*
X138391516Y-84043566D01*
X138373032Y-84046000D01*
X138262766Y-84060517D01*
X138262765Y-84060517D01*
X138125565Y-84117347D01*
X138007748Y-84207751D01*
X137987520Y-84234111D01*
X137982169Y-84240213D01*
X136962180Y-85260202D01*
X136900857Y-85293687D01*
X136831165Y-85288703D01*
X136775232Y-85246831D01*
X136750815Y-85181367D01*
X136750499Y-85172521D01*
X136750499Y-84102129D01*
X136750498Y-84102123D01*
X136744091Y-84042516D01*
X136693797Y-83907671D01*
X136693793Y-83907664D01*
X136607547Y-83792455D01*
X136607544Y-83792452D01*
X136492335Y-83706206D01*
X136492328Y-83706202D01*
X136357482Y-83655908D01*
X136357483Y-83655908D01*
X136297883Y-83649501D01*
X136297881Y-83649500D01*
X136297873Y-83649500D01*
X136297865Y-83649500D01*
X134549500Y-83649500D01*
X134482461Y-83629815D01*
X134436706Y-83577011D01*
X134425500Y-83525500D01*
X134425500Y-83524343D01*
X134427164Y-83508054D01*
X134427105Y-83508049D01*
X134427734Y-83500859D01*
X134425500Y-83424082D01*
X134425500Y-82647366D01*
X134445185Y-82580327D01*
X134497989Y-82534572D01*
X134536250Y-82524076D01*
X134544483Y-82523191D01*
X134612997Y-82497637D01*
X134679331Y-82472896D01*
X134794546Y-82386646D01*
X134880796Y-82271431D01*
X134931091Y-82136583D01*
X134937500Y-82076973D01*
X134937499Y-80457228D01*
X134931091Y-80397617D01*
X134914465Y-80353041D01*
X134880797Y-80262771D01*
X134880793Y-80262764D01*
X134794547Y-80147555D01*
X134794544Y-80147552D01*
X134679335Y-80061306D01*
X134679328Y-80061302D01*
X134544482Y-80011008D01*
X134544483Y-80011008D01*
X134484883Y-80004601D01*
X134484881Y-80004600D01*
X134484873Y-80004600D01*
X134484864Y-80004600D01*
X132865129Y-80004600D01*
X132865123Y-80004601D01*
X132805516Y-80011008D01*
X132670671Y-80061302D01*
X132670664Y-80061306D01*
X132555455Y-80147552D01*
X132555452Y-80147555D01*
X132469206Y-80262764D01*
X132469202Y-80262771D01*
X132418908Y-80397616D01*
X132412770Y-80454710D01*
X132386032Y-80519261D01*
X132328639Y-80559109D01*
X132258814Y-80561602D01*
X132198725Y-80525949D01*
X132187906Y-80512577D01*
X132145827Y-80452481D01*
X132087318Y-80393972D01*
X131989620Y-80296274D01*
X131989616Y-80296271D01*
X131989615Y-80296270D01*
X131808666Y-80169568D01*
X131808662Y-80169566D01*
X131761457Y-80147554D01*
X131608450Y-80076206D01*
X131608447Y-80076205D01*
X131608445Y-80076204D01*
X131395070Y-80019030D01*
X131395062Y-80019029D01*
X131175002Y-79999777D01*
X131174998Y-79999777D01*
X130954937Y-80019029D01*
X130954929Y-80019030D01*
X130741554Y-80076204D01*
X130741548Y-80076207D01*
X130541340Y-80169565D01*
X130541338Y-80169566D01*
X130360381Y-80296272D01*
X130262680Y-80393973D01*
X130201356Y-80427457D01*
X130131665Y-80422473D01*
X130087318Y-80393972D01*
X129989621Y-80296275D01*
X129989615Y-80296270D01*
X129808666Y-80169568D01*
X129808662Y-80169566D01*
X129761457Y-80147554D01*
X129608450Y-80076206D01*
X129608447Y-80076205D01*
X129608445Y-80076204D01*
X129395070Y-80019030D01*
X129395062Y-80019029D01*
X129175002Y-79999777D01*
X129174998Y-79999777D01*
X128954937Y-80019029D01*
X128954929Y-80019030D01*
X128741554Y-80076204D01*
X128741548Y-80076207D01*
X128541340Y-80169565D01*
X128541338Y-80169566D01*
X128360377Y-80296275D01*
X128204175Y-80452477D01*
X128077466Y-80633438D01*
X128077462Y-80633445D01*
X128037104Y-80719992D01*
X127990931Y-80772431D01*
X127923738Y-80791582D01*
X127856857Y-80771365D01*
X127812341Y-80719990D01*
X127772100Y-80633693D01*
X127772099Y-80633691D01*
X127726740Y-80568911D01*
X127128779Y-81166872D01*
X127128533Y-81163584D01*
X127077872Y-81034502D01*
X126991414Y-80926087D01*
X126876841Y-80847973D01*
X126772697Y-80815849D01*
X127373187Y-80215358D01*
X127308409Y-80170000D01*
X127308407Y-80169999D01*
X127108284Y-80076680D01*
X127108270Y-80076675D01*
X126894986Y-80019526D01*
X126894976Y-80019524D01*
X126675001Y-80000279D01*
X126674999Y-80000279D01*
X126455023Y-80019524D01*
X126455013Y-80019526D01*
X126241729Y-80076675D01*
X126241720Y-80076679D01*
X126041586Y-80170003D01*
X125976812Y-80215357D01*
X125976811Y-80215358D01*
X126577980Y-80816527D01*
X126537881Y-80822571D01*
X126412946Y-80882737D01*
X126311295Y-80977055D01*
X126241961Y-81097145D01*
X126225149Y-81170802D01*
X125623258Y-80568911D01*
X125623257Y-80568912D01*
X125577903Y-80633686D01*
X125484579Y-80833820D01*
X125484575Y-80833829D01*
X125427426Y-81047113D01*
X125427424Y-81047123D01*
X125408179Y-81267099D01*
X125408179Y-81267100D01*
X125427424Y-81487076D01*
X125427426Y-81487086D01*
X125484575Y-81700370D01*
X125484580Y-81700384D01*
X125577899Y-81900507D01*
X125577900Y-81900509D01*
X125623258Y-81965287D01*
X126221220Y-81367325D01*
X126221467Y-81370616D01*
X126272128Y-81499698D01*
X126358586Y-81608113D01*
X126473159Y-81686227D01*
X126577301Y-81718350D01*
X125976811Y-82318841D01*
X126041582Y-82364194D01*
X126041592Y-82364200D01*
X126241715Y-82457519D01*
X126241729Y-82457524D01*
X126455013Y-82514673D01*
X126455023Y-82514675D01*
X126674999Y-82533921D01*
X126675001Y-82533921D01*
X126894976Y-82514675D01*
X126894986Y-82514673D01*
X127108270Y-82457524D01*
X127108284Y-82457519D01*
X127308408Y-82364200D01*
X127308420Y-82364193D01*
X127373186Y-82318842D01*
X127373187Y-82318840D01*
X126772020Y-81717672D01*
X126812119Y-81711629D01*
X126937054Y-81651463D01*
X127038705Y-81557145D01*
X127108039Y-81437055D01*
X127124850Y-81363397D01*
X127726740Y-81965287D01*
X127726742Y-81965286D01*
X127772093Y-81900520D01*
X127772095Y-81900517D01*
X127812341Y-81814209D01*
X127858513Y-81761770D01*
X127925707Y-81742617D01*
X127992588Y-81762832D01*
X128037106Y-81814209D01*
X128077464Y-81900758D01*
X128077468Y-81900766D01*
X128204170Y-82081715D01*
X128204174Y-82081720D01*
X128360380Y-82237926D01*
X128404192Y-82268603D01*
X128447495Y-82298925D01*
X128491120Y-82353502D01*
X128498313Y-82423000D01*
X128466791Y-82485355D01*
X128406561Y-82520769D01*
X128376372Y-82524500D01*
X127862484Y-82524500D01*
X127759704Y-82535000D01*
X127759703Y-82535001D01*
X127593164Y-82590186D01*
X127593162Y-82590187D01*
X127443848Y-82682286D01*
X127443844Y-82682289D01*
X127319789Y-82806344D01*
X127319786Y-82806348D01*
X127227687Y-82955662D01*
X127227686Y-82955664D01*
X127172501Y-83122203D01*
X127172500Y-83122204D01*
X127162000Y-83224984D01*
X127162000Y-84575015D01*
X127172500Y-84677795D01*
X127172501Y-84677796D01*
X127227686Y-84844335D01*
X127227687Y-84844337D01*
X127319786Y-84993651D01*
X127319789Y-84993655D01*
X127443844Y-85117710D01*
X127443848Y-85117713D01*
X127593162Y-85209812D01*
X127593164Y-85209813D01*
X127593166Y-85209814D01*
X127759703Y-85264999D01*
X127862492Y-85275500D01*
X127862497Y-85275500D01*
X128765500Y-85275500D01*
X128832539Y-85295185D01*
X128878294Y-85347989D01*
X128889500Y-85399500D01*
X128889500Y-87142150D01*
X128869815Y-87209189D01*
X128817011Y-87254944D01*
X128781688Y-87265089D01*
X128757272Y-87268304D01*
X128723527Y-87266093D01*
X128723293Y-87267874D01*
X128715236Y-87266813D01*
X128695451Y-87264208D01*
X128602727Y-87252000D01*
X128602720Y-87252000D01*
X128377280Y-87252000D01*
X128377272Y-87252000D01*
X128290393Y-87263438D01*
X128264764Y-87266813D01*
X128264762Y-87266813D01*
X128256708Y-87267874D01*
X128256316Y-87264899D01*
X128223684Y-87264899D01*
X128223292Y-87267874D01*
X128215237Y-87266813D01*
X128215236Y-87266813D01*
X128186271Y-87262999D01*
X128102727Y-87252000D01*
X128102720Y-87252000D01*
X127877280Y-87252000D01*
X127877272Y-87252000D01*
X127781792Y-87264571D01*
X127764764Y-87266813D01*
X127764763Y-87266813D01*
X127756707Y-87267874D01*
X127756472Y-87266095D01*
X127722729Y-87268304D01*
X127640000Y-87257411D01*
X127637845Y-87259301D01*
X127620315Y-87319002D01*
X127591487Y-87350338D01*
X127565486Y-87370289D01*
X127500319Y-87395484D01*
X127431874Y-87381446D01*
X127414515Y-87370290D01*
X127388512Y-87350338D01*
X127347310Y-87293910D01*
X127341120Y-87258394D01*
X127339999Y-87257411D01*
X127257270Y-87268304D01*
X127223527Y-87266093D01*
X127223293Y-87267874D01*
X127215236Y-87266813D01*
X127195451Y-87264208D01*
X127102727Y-87252000D01*
X127102720Y-87252000D01*
X126877280Y-87252000D01*
X126877272Y-87252000D01*
X126764764Y-87266813D01*
X126764763Y-87266813D01*
X126624770Y-87324800D01*
X126624767Y-87324801D01*
X126624767Y-87324802D01*
X126504549Y-87417049D01*
X126426001Y-87519415D01*
X126412300Y-87537270D01*
X126354313Y-87677263D01*
X126354313Y-87677264D01*
X126339500Y-87789772D01*
X126339500Y-89128000D01*
X126319815Y-89195039D01*
X126267011Y-89240794D01*
X126215500Y-89252000D01*
X124877272Y-89252000D01*
X124764764Y-89266813D01*
X124764763Y-89266813D01*
X124624770Y-89324800D01*
X124624767Y-89324801D01*
X124624767Y-89324802D01*
X124504549Y-89417049D01*
X124413818Y-89535292D01*
X124412300Y-89537270D01*
X124354313Y-89677263D01*
X124354313Y-89677264D01*
X124339500Y-89789772D01*
X124339500Y-90015227D01*
X124355374Y-90135792D01*
X124352399Y-90136183D01*
X124352399Y-90168816D01*
X124355374Y-90169208D01*
X124347280Y-90230686D01*
X124319013Y-90294582D01*
X124260689Y-90333053D01*
X124224341Y-90338500D01*
X122467479Y-90338500D01*
X122400440Y-90318815D01*
X122379798Y-90302181D01*
X120400319Y-88322702D01*
X120366834Y-88261379D01*
X120364000Y-88235021D01*
X120364000Y-82439896D01*
X120383685Y-82372857D01*
X120436489Y-82327102D01*
X120448996Y-82322190D01*
X120569334Y-82282314D01*
X120718656Y-82190212D01*
X120842712Y-82066156D01*
X120934814Y-81916834D01*
X120989999Y-81750297D01*
X121000500Y-81647509D01*
X121000499Y-80897492D01*
X120993977Y-80833650D01*
X120989999Y-80794703D01*
X120989998Y-80794700D01*
X120982619Y-80772431D01*
X120934814Y-80628166D01*
X120842712Y-80478844D01*
X120718656Y-80354788D01*
X120715819Y-80353038D01*
X120714283Y-80351330D01*
X120712989Y-80350307D01*
X120713163Y-80350085D01*
X120669096Y-80301094D01*
X120657872Y-80232132D01*
X120685713Y-80168049D01*
X120715817Y-80141962D01*
X120718656Y-80140212D01*
X120842712Y-80016156D01*
X120934814Y-79866834D01*
X120989999Y-79700297D01*
X121000500Y-79597509D01*
X121000499Y-78847492D01*
X120989999Y-78744703D01*
X120934814Y-78578166D01*
X120921820Y-78557100D01*
X121350172Y-78557100D01*
X121369462Y-78851412D01*
X121369464Y-78851424D01*
X121427001Y-79140684D01*
X121427005Y-79140699D01*
X121521812Y-79419988D01*
X121652258Y-79684506D01*
X121652265Y-79684519D01*
X121816122Y-79929748D01*
X121845406Y-79963139D01*
X122634438Y-79174107D01*
X122683348Y-79253099D01*
X122826931Y-79410601D01*
X122985388Y-79530263D01*
X122198959Y-80316692D01*
X122198959Y-80316693D01*
X122232344Y-80345972D01*
X122232348Y-80345975D01*
X122477580Y-80509834D01*
X122477593Y-80509841D01*
X122742111Y-80640287D01*
X123021400Y-80735094D01*
X123021415Y-80735098D01*
X123310675Y-80792635D01*
X123310687Y-80792637D01*
X123605000Y-80811927D01*
X123899312Y-80792637D01*
X123899324Y-80792635D01*
X124188584Y-80735098D01*
X124188599Y-80735094D01*
X124467888Y-80640287D01*
X124732406Y-80509841D01*
X124732419Y-80509834D01*
X124977650Y-80345977D01*
X125011039Y-80316693D01*
X125011040Y-80316692D01*
X124224611Y-79530263D01*
X124383069Y-79410601D01*
X124526652Y-79253099D01*
X124575560Y-79174108D01*
X125364592Y-79963140D01*
X125364593Y-79963139D01*
X125393877Y-79929750D01*
X125557734Y-79684519D01*
X125557741Y-79684506D01*
X125688187Y-79419988D01*
X125782994Y-79140699D01*
X125782998Y-79140684D01*
X125840535Y-78851424D01*
X125840537Y-78851412D01*
X125859827Y-78557100D01*
X134490172Y-78557100D01*
X134509462Y-78851412D01*
X134509464Y-78851424D01*
X134567001Y-79140684D01*
X134567005Y-79140699D01*
X134661812Y-79419988D01*
X134792258Y-79684506D01*
X134792265Y-79684519D01*
X134956122Y-79929748D01*
X134985406Y-79963139D01*
X135774438Y-79174107D01*
X135823348Y-79253099D01*
X135966931Y-79410601D01*
X136125388Y-79530263D01*
X135338959Y-80316692D01*
X135338959Y-80316693D01*
X135372344Y-80345972D01*
X135372348Y-80345975D01*
X135617580Y-80509834D01*
X135617593Y-80509841D01*
X135882111Y-80640287D01*
X136161400Y-80735094D01*
X136161415Y-80735098D01*
X136450675Y-80792635D01*
X136450687Y-80792637D01*
X136745000Y-80811927D01*
X137039312Y-80792637D01*
X137039324Y-80792635D01*
X137328584Y-80735098D01*
X137328599Y-80735094D01*
X137607888Y-80640287D01*
X137872406Y-80509841D01*
X137872419Y-80509834D01*
X138117650Y-80345977D01*
X138151039Y-80316693D01*
X138151040Y-80316692D01*
X137364611Y-79530263D01*
X137523069Y-79410601D01*
X137666652Y-79253099D01*
X137715560Y-79174108D01*
X138504592Y-79963140D01*
X138504593Y-79963139D01*
X138533877Y-79929750D01*
X138697734Y-79684519D01*
X138697741Y-79684506D01*
X138828187Y-79419988D01*
X138922994Y-79140699D01*
X138922998Y-79140684D01*
X138980535Y-78851424D01*
X138980537Y-78851412D01*
X138999827Y-78557100D01*
X138980537Y-78262787D01*
X138980535Y-78262775D01*
X138922998Y-77973515D01*
X138922994Y-77973500D01*
X138828187Y-77694211D01*
X138697741Y-77429693D01*
X138697734Y-77429680D01*
X138533875Y-77184448D01*
X138533872Y-77184444D01*
X138504593Y-77151059D01*
X138504592Y-77151059D01*
X137715560Y-77940091D01*
X137666652Y-77861101D01*
X137523069Y-77703599D01*
X137364610Y-77583935D01*
X138151039Y-76797506D01*
X138117648Y-76768222D01*
X137872419Y-76604365D01*
X137872406Y-76604358D01*
X137607888Y-76473912D01*
X137328599Y-76379105D01*
X137328584Y-76379101D01*
X137039324Y-76321564D01*
X137039312Y-76321562D01*
X136745000Y-76302272D01*
X136450687Y-76321562D01*
X136450675Y-76321564D01*
X136161415Y-76379101D01*
X136161400Y-76379105D01*
X135882111Y-76473912D01*
X135617593Y-76604358D01*
X135617580Y-76604365D01*
X135372350Y-76768223D01*
X135338958Y-76797506D01*
X136125388Y-77583936D01*
X135966931Y-77703599D01*
X135823348Y-77861101D01*
X135774439Y-77940091D01*
X134985406Y-77151058D01*
X134956123Y-77184450D01*
X134792265Y-77429680D01*
X134792258Y-77429693D01*
X134661812Y-77694211D01*
X134567005Y-77973500D01*
X134567001Y-77973515D01*
X134509464Y-78262775D01*
X134509462Y-78262787D01*
X134490172Y-78557100D01*
X125859827Y-78557100D01*
X125840537Y-78262787D01*
X125840535Y-78262775D01*
X125782998Y-77973515D01*
X125782994Y-77973500D01*
X125688187Y-77694211D01*
X125557741Y-77429693D01*
X125557734Y-77429680D01*
X125393875Y-77184448D01*
X125393872Y-77184444D01*
X125364593Y-77151059D01*
X125364592Y-77151059D01*
X124575560Y-77940091D01*
X124526652Y-77861101D01*
X124383069Y-77703599D01*
X124224610Y-77583935D01*
X125011039Y-76797506D01*
X124977648Y-76768222D01*
X124732419Y-76604365D01*
X124732406Y-76604358D01*
X124467888Y-76473912D01*
X124188599Y-76379105D01*
X124188584Y-76379101D01*
X123899324Y-76321564D01*
X123899312Y-76321562D01*
X123605000Y-76302272D01*
X123310687Y-76321562D01*
X123310675Y-76321564D01*
X123021415Y-76379101D01*
X123021400Y-76379105D01*
X122742111Y-76473912D01*
X122477593Y-76604358D01*
X122477580Y-76604365D01*
X122232350Y-76768223D01*
X122198958Y-76797506D01*
X122985388Y-77583936D01*
X122826931Y-77703599D01*
X122683348Y-77861101D01*
X122634439Y-77940091D01*
X121845406Y-77151058D01*
X121816123Y-77184450D01*
X121652265Y-77429680D01*
X121652258Y-77429693D01*
X121521812Y-77694211D01*
X121427005Y-77973500D01*
X121427001Y-77973515D01*
X121369464Y-78262775D01*
X121369462Y-78262787D01*
X121350172Y-78557100D01*
X120921820Y-78557100D01*
X120842712Y-78428844D01*
X120718656Y-78304788D01*
X120569334Y-78212686D01*
X120569331Y-78212685D01*
X120402795Y-78157500D01*
X120396558Y-78156165D01*
X120335127Y-78122877D01*
X120301444Y-78061662D01*
X120306204Y-77991955D01*
X120334840Y-77947237D01*
X120404816Y-77877262D01*
X120500789Y-77724522D01*
X120560368Y-77554255D01*
X120575288Y-77421838D01*
X120580565Y-77375003D01*
X120580565Y-77374996D01*
X120560369Y-77195750D01*
X120560368Y-77195745D01*
X120500788Y-77025476D01*
X120404815Y-76872737D01*
X120277262Y-76745184D01*
X120124523Y-76649211D01*
X119954254Y-76589631D01*
X119954249Y-76589630D01*
X119775004Y-76569435D01*
X119774996Y-76569435D01*
X119595750Y-76589630D01*
X119595745Y-76589631D01*
X119425476Y-76649211D01*
X119272737Y-76745184D01*
X119145184Y-76872737D01*
X119049211Y-77025476D01*
X118989631Y-77195745D01*
X118989630Y-77195750D01*
X118969435Y-77374996D01*
X118969435Y-77375003D01*
X118989630Y-77554249D01*
X118989631Y-77554254D01*
X119049211Y-77724523D01*
X119145184Y-77877262D01*
X119226468Y-77958546D01*
X119259953Y-78019869D01*
X119254969Y-78089561D01*
X119213097Y-78145494D01*
X119177792Y-78163933D01*
X119030666Y-78212686D01*
X119030663Y-78212687D01*
X118881342Y-78304789D01*
X118757289Y-78428842D01*
X118731839Y-78470104D01*
X118679891Y-78516829D01*
X118610928Y-78528050D01*
X118546846Y-78500207D01*
X118507990Y-78442138D01*
X118502300Y-78405007D01*
X118502300Y-75469900D01*
X118521985Y-75402861D01*
X118574789Y-75357106D01*
X118626300Y-75345900D01*
X142293700Y-75345900D01*
X142360739Y-75365585D01*
G37*
%TD.AperFunction*%
%TA.AperFunction,Conductor*%
G36*
X118707503Y-81996279D02*
G01*
X118731838Y-82024895D01*
X118757288Y-82066156D01*
X118881344Y-82190212D01*
X119030666Y-82282314D01*
X119151004Y-82322190D01*
X119208449Y-82361963D01*
X119235272Y-82426479D01*
X119236000Y-82439896D01*
X119236000Y-88478963D01*
X119235469Y-88487064D01*
X119231133Y-88519998D01*
X119231133Y-88520000D01*
X119250517Y-88667233D01*
X119250517Y-88667234D01*
X119307347Y-88804434D01*
X119372807Y-88889744D01*
X119397749Y-88922249D01*
X119424103Y-88942471D01*
X119430208Y-88947825D01*
X121754672Y-91272289D01*
X121760023Y-91278390D01*
X121780250Y-91304750D01*
X121809831Y-91327448D01*
X121809832Y-91327449D01*
X121850426Y-91358597D01*
X121898065Y-91395152D01*
X122035266Y-91451983D01*
X122182499Y-91471368D01*
X122182500Y-91471368D01*
X122215442Y-91467030D01*
X122223543Y-91466500D01*
X124224341Y-91466500D01*
X124291380Y-91486185D01*
X124337135Y-91538989D01*
X124347280Y-91574314D01*
X124355374Y-91635792D01*
X124352399Y-91636183D01*
X124352399Y-91668816D01*
X124355374Y-91669208D01*
X124339500Y-91789772D01*
X124339500Y-92015227D01*
X124355374Y-92135792D01*
X124352399Y-92136183D01*
X124352399Y-92168816D01*
X124355374Y-92169208D01*
X124339500Y-92289772D01*
X124339500Y-92515227D01*
X124355374Y-92635792D01*
X124352399Y-92636183D01*
X124352399Y-92668816D01*
X124355374Y-92669208D01*
X124339500Y-92789772D01*
X124339500Y-93015227D01*
X124355374Y-93135793D01*
X124353593Y-93136027D01*
X124355804Y-93169770D01*
X124344911Y-93252499D01*
X124346801Y-93254654D01*
X124406503Y-93272185D01*
X124437838Y-93301012D01*
X124457791Y-93327015D01*
X124482984Y-93392184D01*
X124468945Y-93460629D01*
X124457791Y-93477984D01*
X124437839Y-93503986D01*
X124381413Y-93545189D01*
X124345894Y-93551379D01*
X124344911Y-93552500D01*
X124355804Y-93635229D01*
X124353595Y-93668972D01*
X124355374Y-93669207D01*
X124339500Y-93789772D01*
X124339500Y-94015227D01*
X124355374Y-94135792D01*
X124352399Y-94136183D01*
X124352399Y-94168816D01*
X124355374Y-94169208D01*
X124354313Y-94177262D01*
X124354313Y-94177264D01*
X124351287Y-94200251D01*
X124339500Y-94289772D01*
X124339500Y-94515227D01*
X124355374Y-94635792D01*
X124352399Y-94636183D01*
X124352399Y-94668816D01*
X124355374Y-94669208D01*
X124354313Y-94677262D01*
X124354313Y-94677264D01*
X124350938Y-94702893D01*
X124339500Y-94789772D01*
X124339500Y-95015227D01*
X124355374Y-95135792D01*
X124352399Y-95136183D01*
X124352399Y-95168816D01*
X124355374Y-95169208D01*
X124339500Y-95289772D01*
X124339500Y-95515227D01*
X124354313Y-95627735D01*
X124354313Y-95627736D01*
X124409516Y-95761009D01*
X124412302Y-95767733D01*
X124504549Y-95887951D01*
X124624767Y-95980198D01*
X124764764Y-96038187D01*
X124877280Y-96053000D01*
X124877287Y-96053000D01*
X126215500Y-96053000D01*
X126282539Y-96072685D01*
X126328294Y-96125489D01*
X126339500Y-96177000D01*
X126339500Y-97515227D01*
X126354313Y-97627735D01*
X126354313Y-97627736D01*
X126409169Y-97760171D01*
X126412302Y-97767733D01*
X126504549Y-97887951D01*
X126624767Y-97980198D01*
X126764764Y-98038187D01*
X126868302Y-98051818D01*
X126877264Y-98052998D01*
X126877280Y-98053000D01*
X126877287Y-98053000D01*
X127102713Y-98053000D01*
X127102720Y-98053000D01*
X127215236Y-98038187D01*
X127215236Y-98038186D01*
X127223295Y-98037126D01*
X127223698Y-98040189D01*
X127256302Y-98040189D01*
X127256705Y-98037126D01*
X127264763Y-98038186D01*
X127264764Y-98038187D01*
X127377280Y-98053000D01*
X127377287Y-98053000D01*
X127602713Y-98053000D01*
X127602720Y-98053000D01*
X127715236Y-98038187D01*
X127715236Y-98038186D01*
X127723295Y-98037126D01*
X127723698Y-98040189D01*
X127756302Y-98040189D01*
X127756705Y-98037126D01*
X127764763Y-98038186D01*
X127764764Y-98038187D01*
X127877280Y-98053000D01*
X127877287Y-98053000D01*
X128102713Y-98053000D01*
X128102720Y-98053000D01*
X128215236Y-98038187D01*
X128215236Y-98038186D01*
X128223295Y-98037126D01*
X128223698Y-98040189D01*
X128256302Y-98040189D01*
X128256705Y-98037126D01*
X128264763Y-98038186D01*
X128264764Y-98038187D01*
X128377280Y-98053000D01*
X128377287Y-98053000D01*
X128602713Y-98053000D01*
X128602720Y-98053000D01*
X128715236Y-98038187D01*
X128715236Y-98038186D01*
X128723295Y-98037126D01*
X128723698Y-98040189D01*
X128756302Y-98040189D01*
X128756705Y-98037126D01*
X128764763Y-98038186D01*
X128764764Y-98038187D01*
X128877280Y-98053000D01*
X128877287Y-98053000D01*
X129102713Y-98053000D01*
X129102720Y-98053000D01*
X129215236Y-98038187D01*
X129215236Y-98038186D01*
X129223295Y-98037126D01*
X129223698Y-98040189D01*
X129256302Y-98040189D01*
X129256705Y-98037126D01*
X129264763Y-98038186D01*
X129264764Y-98038187D01*
X129377280Y-98053000D01*
X129377287Y-98053000D01*
X129392520Y-98053000D01*
X129459559Y-98072685D01*
X129505314Y-98125489D01*
X129515258Y-98194647D01*
X129486233Y-98258203D01*
X129480201Y-98264681D01*
X124390210Y-103354670D01*
X124384108Y-103360022D01*
X124357748Y-103380249D01*
X124323859Y-103424414D01*
X124323843Y-103424437D01*
X124267347Y-103498065D01*
X124210517Y-103635264D01*
X124210517Y-103635265D01*
X124191133Y-103782499D01*
X124195469Y-103815432D01*
X124196000Y-103823533D01*
X124196000Y-105673000D01*
X124176315Y-105740039D01*
X124123511Y-105785794D01*
X124072000Y-105797000D01*
X123788796Y-105797000D01*
X123788789Y-105797001D01*
X123729182Y-105803408D01*
X123594337Y-105853702D01*
X123594330Y-105853706D01*
X123479121Y-105939952D01*
X123479118Y-105939955D01*
X123392872Y-106055164D01*
X123392868Y-106055171D01*
X123342574Y-106190017D01*
X123336167Y-106249616D01*
X123336167Y-106249623D01*
X123336166Y-106249635D01*
X123336166Y-109568088D01*
X123316481Y-109635127D01*
X123263677Y-109680882D01*
X123212116Y-109692088D01*
X118626250Y-109690246D01*
X118559219Y-109670535D01*
X118513485Y-109617712D01*
X118502300Y-109566246D01*
X118502300Y-106980000D01*
X118860001Y-106980000D01*
X118860001Y-107104986D01*
X118870494Y-107207697D01*
X118925641Y-107374119D01*
X118925643Y-107374124D01*
X119017684Y-107523345D01*
X119141654Y-107647315D01*
X119290875Y-107739356D01*
X119290880Y-107739358D01*
X119457302Y-107794505D01*
X119457309Y-107794506D01*
X119560019Y-107804999D01*
X119809999Y-107804999D01*
X119810000Y-107804998D01*
X119810000Y-106980000D01*
X120310000Y-106980000D01*
X120310000Y-107804999D01*
X120559972Y-107804999D01*
X120559986Y-107804998D01*
X120662697Y-107794505D01*
X120829119Y-107739358D01*
X120829124Y-107739356D01*
X120978345Y-107647315D01*
X121102315Y-107523345D01*
X121194356Y-107374124D01*
X121194358Y-107374119D01*
X121249505Y-107207697D01*
X121249506Y-107207690D01*
X121259999Y-107104986D01*
X121260000Y-107104973D01*
X121260000Y-106980000D01*
X120310000Y-106980000D01*
X119810000Y-106980000D01*
X118860001Y-106980000D01*
X118502300Y-106980000D01*
X118502300Y-105055001D01*
X118859500Y-105055001D01*
X118859501Y-105055019D01*
X118870000Y-105157796D01*
X118870001Y-105157799D01*
X118925185Y-105324331D01*
X118925187Y-105324336D01*
X118960069Y-105380888D01*
X119017288Y-105473656D01*
X119141344Y-105597712D01*
X119144628Y-105599737D01*
X119144653Y-105599753D01*
X119146445Y-105601746D01*
X119147011Y-105602193D01*
X119146934Y-105602289D01*
X119191379Y-105651699D01*
X119202603Y-105720661D01*
X119174761Y-105784744D01*
X119144665Y-105810826D01*
X119141660Y-105812679D01*
X119141655Y-105812683D01*
X119017684Y-105936654D01*
X118925643Y-106085875D01*
X118925641Y-106085880D01*
X118870494Y-106252302D01*
X118870493Y-106252309D01*
X118860000Y-106355013D01*
X118860000Y-106480000D01*
X121259999Y-106480000D01*
X121259999Y-106355028D01*
X121259998Y-106355013D01*
X121249505Y-106252302D01*
X121194358Y-106085880D01*
X121194356Y-106085875D01*
X121102315Y-105936654D01*
X120978344Y-105812683D01*
X120978341Y-105812681D01*
X120975339Y-105810829D01*
X120973713Y-105809021D01*
X120972677Y-105808202D01*
X120972817Y-105808024D01*
X120928617Y-105758880D01*
X120917397Y-105689917D01*
X120945243Y-105625836D01*
X120975344Y-105599754D01*
X120978656Y-105597712D01*
X121102712Y-105473656D01*
X121194814Y-105324334D01*
X121199388Y-105310528D01*
X121239155Y-105253088D01*
X121303670Y-105226262D01*
X121372446Y-105238573D01*
X121404774Y-105261852D01*
X121422738Y-105279816D01*
X121575478Y-105375789D01*
X121740644Y-105433583D01*
X121745745Y-105435368D01*
X121745750Y-105435369D01*
X121924996Y-105455565D01*
X121925000Y-105455565D01*
X121925004Y-105455565D01*
X122104249Y-105435369D01*
X122104252Y-105435368D01*
X122104255Y-105435368D01*
X122274522Y-105375789D01*
X122427262Y-105279816D01*
X122554816Y-105152262D01*
X122650789Y-104999522D01*
X122710368Y-104829255D01*
X122718363Y-104758296D01*
X122730565Y-104650003D01*
X122730565Y-104649996D01*
X122710369Y-104470750D01*
X122710368Y-104470745D01*
X122650788Y-104300476D01*
X122611582Y-104238080D01*
X122554816Y-104147738D01*
X122427262Y-104020184D01*
X122420786Y-104016115D01*
X122274523Y-103924211D01*
X122104254Y-103864631D01*
X122104249Y-103864630D01*
X121925004Y-103844435D01*
X121924996Y-103844435D01*
X121745750Y-103864630D01*
X121745745Y-103864631D01*
X121575476Y-103924211D01*
X121422737Y-104020184D01*
X121386750Y-104056171D01*
X121325427Y-104089656D01*
X121255735Y-104084670D01*
X121199802Y-104042798D01*
X121193531Y-104033586D01*
X121173085Y-104000438D01*
X121102712Y-103886344D01*
X120978656Y-103762288D01*
X120829334Y-103670186D01*
X120662797Y-103615001D01*
X120662795Y-103615000D01*
X120560010Y-103604500D01*
X119559998Y-103604500D01*
X119559980Y-103604501D01*
X119457203Y-103615000D01*
X119457200Y-103615001D01*
X119290668Y-103670185D01*
X119290663Y-103670187D01*
X119141342Y-103762289D01*
X119017289Y-103886342D01*
X118925187Y-104035663D01*
X118925185Y-104035668D01*
X118920558Y-104049631D01*
X118870001Y-104202203D01*
X118870001Y-104202204D01*
X118870000Y-104202204D01*
X118859500Y-104304983D01*
X118859500Y-105055001D01*
X118502300Y-105055001D01*
X118502300Y-99350370D01*
X120179500Y-99350370D01*
X120179501Y-99350376D01*
X120185908Y-99409983D01*
X120236202Y-99544828D01*
X120236206Y-99544835D01*
X120322452Y-99660044D01*
X120322455Y-99660047D01*
X120437664Y-99746293D01*
X120437671Y-99746297D01*
X120572516Y-99796591D01*
X120598419Y-99799375D01*
X120632127Y-99803000D01*
X120655613Y-99802999D01*
X120721586Y-99822005D01*
X120766140Y-99850000D01*
X120781878Y-99859889D01*
X120952145Y-99919468D01*
X120952150Y-99919469D01*
X121131396Y-99939665D01*
X121133853Y-99939665D01*
X121135382Y-99940114D01*
X121138319Y-99940445D01*
X121138261Y-99940959D01*
X121200892Y-99959350D01*
X121246647Y-100012154D01*
X121257853Y-100063665D01*
X121257853Y-102602500D01*
X121262999Y-102674460D01*
X121263000Y-102674465D01*
X121303545Y-102812550D01*
X121303547Y-102812553D01*
X121381357Y-102933628D01*
X121490127Y-103027877D01*
X121621043Y-103087665D01*
X121763500Y-103108147D01*
X121763503Y-103108147D01*
X123496500Y-103108147D01*
X123568461Y-103103000D01*
X123568463Y-103102999D01*
X123568465Y-103102999D01*
X123706550Y-103062454D01*
X123706550Y-103062453D01*
X123706553Y-103062453D01*
X123827628Y-102984643D01*
X123921877Y-102875873D01*
X123981665Y-102744957D01*
X124002147Y-102602500D01*
X124002147Y-99477500D01*
X123997000Y-99405539D01*
X123991361Y-99386335D01*
X123956454Y-99267450D01*
X123956454Y-99267448D01*
X123899684Y-99179111D01*
X123880000Y-99112073D01*
X123880000Y-98902500D01*
X124380000Y-98902500D01*
X124380000Y-99802500D01*
X124627828Y-99802500D01*
X124627844Y-99802499D01*
X124687372Y-99796098D01*
X124687379Y-99796096D01*
X124822086Y-99745854D01*
X124822093Y-99745850D01*
X124937187Y-99659690D01*
X124937190Y-99659687D01*
X125023350Y-99544593D01*
X125023354Y-99544586D01*
X125073596Y-99409879D01*
X125073598Y-99409872D01*
X125079999Y-99350344D01*
X125080000Y-99350327D01*
X125080000Y-98902500D01*
X124380000Y-98902500D01*
X123880000Y-98902500D01*
X123880000Y-97502500D01*
X124380000Y-97502500D01*
X124380000Y-98402500D01*
X125080000Y-98402500D01*
X125080000Y-97954672D01*
X125079999Y-97954655D01*
X125073598Y-97895127D01*
X125073596Y-97895120D01*
X125023354Y-97760413D01*
X125023350Y-97760406D01*
X124937190Y-97645312D01*
X124937187Y-97645309D01*
X124822093Y-97559149D01*
X124822086Y-97559145D01*
X124687379Y-97508903D01*
X124687372Y-97508901D01*
X124627844Y-97502500D01*
X124380000Y-97502500D01*
X123880000Y-97502500D01*
X123632155Y-97502500D01*
X123572627Y-97508901D01*
X123572620Y-97508903D01*
X123437907Y-97559147D01*
X123435951Y-97560216D01*
X123433774Y-97560689D01*
X123429601Y-97562246D01*
X123429377Y-97561645D01*
X123367677Y-97575063D01*
X123325019Y-97564174D01*
X123222456Y-97517334D01*
X123115792Y-97501999D01*
X123080000Y-97496853D01*
X122180000Y-97496853D01*
X122108039Y-97501999D01*
X122108034Y-97502000D01*
X121969951Y-97542544D01*
X121969941Y-97542549D01*
X121950434Y-97555085D01*
X121883394Y-97574767D01*
X121830811Y-97561345D01*
X121830641Y-97561803D01*
X121826387Y-97560216D01*
X121823976Y-97559601D01*
X121822335Y-97558705D01*
X121687482Y-97508408D01*
X121687483Y-97508408D01*
X121627883Y-97502001D01*
X121627881Y-97502000D01*
X121627873Y-97502000D01*
X121627864Y-97502000D01*
X120632129Y-97502000D01*
X120632123Y-97502001D01*
X120572516Y-97508408D01*
X120437671Y-97558702D01*
X120437664Y-97558706D01*
X120322455Y-97644952D01*
X120322452Y-97644955D01*
X120236206Y-97760164D01*
X120236202Y-97760171D01*
X120185908Y-97895017D01*
X120179501Y-97954616D01*
X120179500Y-97954635D01*
X120179500Y-99350370D01*
X118502300Y-99350370D01*
X118502300Y-82089992D01*
X118521985Y-82022953D01*
X118574789Y-81977198D01*
X118643947Y-81967254D01*
X118707503Y-81996279D01*
G37*
%TD.AperFunction*%
%TA.AperFunction,Conductor*%
G36*
X133277773Y-97630707D02*
G01*
X133325384Y-97681844D01*
X133338500Y-97737349D01*
X133338500Y-100563353D01*
X133318815Y-100630392D01*
X133302181Y-100651034D01*
X128192534Y-105760681D01*
X128131211Y-105794166D01*
X128104853Y-105797000D01*
X126833000Y-105797000D01*
X126765961Y-105777315D01*
X126720206Y-105724511D01*
X126709000Y-105673000D01*
X126709000Y-103182476D01*
X126728685Y-103115437D01*
X126745314Y-103094800D01*
X131754813Y-98085300D01*
X131816132Y-98051818D01*
X131836126Y-98050984D01*
X131843323Y-98044672D01*
X131859685Y-97988952D01*
X131888512Y-97957616D01*
X131892250Y-97954749D01*
X131892254Y-97954744D01*
X131898001Y-97948998D01*
X131898672Y-97949669D01*
X131910706Y-97937631D01*
X131914502Y-97934717D01*
X131979666Y-97909516D01*
X132048113Y-97923546D01*
X132065484Y-97934708D01*
X132091486Y-97954661D01*
X132132689Y-98011087D01*
X132138878Y-98046602D01*
X132140000Y-98047586D01*
X132222730Y-98036695D01*
X132256469Y-98038915D01*
X132256705Y-98037126D01*
X132264763Y-98038186D01*
X132264764Y-98038187D01*
X132377280Y-98053000D01*
X132377287Y-98053000D01*
X132602713Y-98053000D01*
X132602720Y-98053000D01*
X132715236Y-98038187D01*
X132855233Y-97980198D01*
X132975451Y-97887951D01*
X133067698Y-97767733D01*
X133099939Y-97689897D01*
X133143780Y-97635493D01*
X133210074Y-97613428D01*
X133277773Y-97630707D01*
G37*
%TD.AperFunction*%
%TA.AperFunction,Conductor*%
G36*
X129048129Y-89598555D02*
G01*
X129065484Y-89609708D01*
X129091486Y-89629660D01*
X129132689Y-89686087D01*
X129138878Y-89721602D01*
X129140000Y-89722586D01*
X129222730Y-89711695D01*
X129256469Y-89713915D01*
X129256705Y-89712126D01*
X129264763Y-89713186D01*
X129264764Y-89713187D01*
X129377280Y-89728000D01*
X129377287Y-89728000D01*
X129602713Y-89728000D01*
X129602720Y-89728000D01*
X129715236Y-89713187D01*
X129715236Y-89713186D01*
X129723295Y-89712126D01*
X129723698Y-89715189D01*
X129756302Y-89715189D01*
X129756705Y-89712126D01*
X129764763Y-89713186D01*
X129764764Y-89713187D01*
X129877280Y-89728000D01*
X129877287Y-89728000D01*
X130102713Y-89728000D01*
X130102720Y-89728000D01*
X130215236Y-89713187D01*
X130215236Y-89713186D01*
X130223295Y-89712126D01*
X130223698Y-89715189D01*
X130256302Y-89715189D01*
X130256705Y-89712126D01*
X130264763Y-89713186D01*
X130264764Y-89713187D01*
X130377280Y-89728000D01*
X130377287Y-89728000D01*
X130602713Y-89728000D01*
X130602720Y-89728000D01*
X130715236Y-89713187D01*
X130715236Y-89713186D01*
X130723295Y-89712126D01*
X130723698Y-89715189D01*
X130756302Y-89715189D01*
X130756705Y-89712126D01*
X130764763Y-89713186D01*
X130764764Y-89713187D01*
X130877280Y-89728000D01*
X130877287Y-89728000D01*
X131102713Y-89728000D01*
X131102720Y-89728000D01*
X131215236Y-89713187D01*
X131215236Y-89713186D01*
X131223295Y-89712126D01*
X131223698Y-89715189D01*
X131256301Y-89715189D01*
X131256704Y-89712126D01*
X131264764Y-89713187D01*
X131309675Y-89719099D01*
X131373571Y-89747364D01*
X131412043Y-89805688D01*
X131412875Y-89875553D01*
X131398484Y-89908009D01*
X131359612Y-89969874D01*
X131300031Y-90140145D01*
X131300030Y-90140150D01*
X131279835Y-90319396D01*
X131279835Y-90319403D01*
X131300030Y-90498649D01*
X131300031Y-90498654D01*
X131359611Y-90668923D01*
X131397042Y-90728493D01*
X131455584Y-90821662D01*
X131583138Y-90949216D01*
X131735878Y-91045189D01*
X131856965Y-91087559D01*
X131906145Y-91104768D01*
X131906150Y-91104769D01*
X132085396Y-91124965D01*
X132085400Y-91124965D01*
X132085404Y-91124965D01*
X132264649Y-91104769D01*
X132264652Y-91104768D01*
X132264655Y-91104768D01*
X132434922Y-91045189D01*
X132486925Y-91012513D01*
X132554159Y-90993513D01*
X132620994Y-91013880D01*
X132666209Y-91067147D01*
X132675835Y-91101319D01*
X132678948Y-91124965D01*
X132680374Y-91135790D01*
X132677399Y-91136181D01*
X132677399Y-91168816D01*
X132680374Y-91169208D01*
X132664500Y-91289772D01*
X132664500Y-91515227D01*
X132680374Y-91635792D01*
X132677399Y-91636183D01*
X132677399Y-91668816D01*
X132680374Y-91669208D01*
X132664500Y-91789772D01*
X132664500Y-92015227D01*
X132680374Y-92135792D01*
X132677399Y-92136183D01*
X132677399Y-92168816D01*
X132680374Y-92169208D01*
X132664500Y-92289772D01*
X132664500Y-92515227D01*
X132680374Y-92635792D01*
X132677399Y-92636183D01*
X132677399Y-92668816D01*
X132680374Y-92669208D01*
X132664500Y-92789772D01*
X132664500Y-93015227D01*
X132680374Y-93135792D01*
X132677399Y-93136183D01*
X132677399Y-93168816D01*
X132680374Y-93169208D01*
X132664500Y-93289772D01*
X132664500Y-93515227D01*
X132680374Y-93635792D01*
X132677399Y-93636183D01*
X132677399Y-93668816D01*
X132680374Y-93669208D01*
X132664500Y-93789772D01*
X132664500Y-94015227D01*
X132680374Y-94135792D01*
X132677399Y-94136183D01*
X132677399Y-94168816D01*
X132680374Y-94169208D01*
X132679313Y-94177262D01*
X132679313Y-94177264D01*
X132676287Y-94200251D01*
X132664500Y-94289772D01*
X132664500Y-94515227D01*
X132680374Y-94635792D01*
X132677399Y-94636183D01*
X132677399Y-94668816D01*
X132680374Y-94669208D01*
X132679313Y-94677262D01*
X132679313Y-94677264D01*
X132675938Y-94702893D01*
X132664500Y-94789772D01*
X132664500Y-94909199D01*
X132644815Y-94976238D01*
X132592011Y-95021993D01*
X132526617Y-95032419D01*
X132466404Y-95025635D01*
X132466396Y-95025635D01*
X132287150Y-95045830D01*
X132287145Y-95045831D01*
X132116876Y-95105411D01*
X131964137Y-95201384D01*
X131836584Y-95328937D01*
X131740612Y-95481675D01*
X131740609Y-95481681D01*
X131735941Y-95495021D01*
X131695217Y-95551795D01*
X131630263Y-95577538D01*
X131606782Y-95577079D01*
X131606770Y-95577265D01*
X131602746Y-95577001D01*
X131602732Y-95577001D01*
X131602724Y-95577000D01*
X131602720Y-95577000D01*
X131377280Y-95577000D01*
X131377272Y-95577000D01*
X131290393Y-95588438D01*
X131264764Y-95591813D01*
X131264762Y-95591813D01*
X131256708Y-95592874D01*
X131256316Y-95589899D01*
X131223684Y-95589899D01*
X131223292Y-95592874D01*
X131215237Y-95591813D01*
X131215236Y-95591813D01*
X131186271Y-95587999D01*
X131102727Y-95577000D01*
X131102720Y-95577000D01*
X130877280Y-95577000D01*
X130877272Y-95577000D01*
X130781792Y-95589571D01*
X130764764Y-95591813D01*
X130764763Y-95591813D01*
X130756707Y-95592874D01*
X130756472Y-95591095D01*
X130722729Y-95593304D01*
X130640000Y-95582411D01*
X130637845Y-95584301D01*
X130620315Y-95644002D01*
X130591487Y-95675338D01*
X130565486Y-95695289D01*
X130500319Y-95720484D01*
X130431874Y-95706446D01*
X130414515Y-95695290D01*
X130388512Y-95675338D01*
X130347310Y-95618910D01*
X130341120Y-95583394D01*
X130339999Y-95582411D01*
X130257270Y-95593304D01*
X130223527Y-95591093D01*
X130223293Y-95592874D01*
X130215236Y-95591813D01*
X130195451Y-95589208D01*
X130102727Y-95577000D01*
X130102720Y-95577000D01*
X129877280Y-95577000D01*
X129877272Y-95577000D01*
X129790393Y-95588438D01*
X129764764Y-95591813D01*
X129764762Y-95591813D01*
X129756708Y-95592874D01*
X129756316Y-95589899D01*
X129723684Y-95589899D01*
X129723292Y-95592874D01*
X129715237Y-95591813D01*
X129715236Y-95591813D01*
X129686271Y-95587999D01*
X129602727Y-95577000D01*
X129602720Y-95577000D01*
X129377280Y-95577000D01*
X129377272Y-95577000D01*
X129290393Y-95588438D01*
X129264764Y-95591813D01*
X129264762Y-95591813D01*
X129256708Y-95592874D01*
X129256316Y-95589899D01*
X129223684Y-95589899D01*
X129223292Y-95592874D01*
X129215237Y-95591813D01*
X129215236Y-95591813D01*
X129186271Y-95587999D01*
X129102727Y-95577000D01*
X129102720Y-95577000D01*
X128877280Y-95577000D01*
X128877272Y-95577000D01*
X128790393Y-95588438D01*
X128764764Y-95591813D01*
X128764762Y-95591813D01*
X128756708Y-95592874D01*
X128756316Y-95589899D01*
X128723684Y-95589899D01*
X128723292Y-95592874D01*
X128715237Y-95591813D01*
X128715236Y-95591813D01*
X128686271Y-95587999D01*
X128602727Y-95577000D01*
X128602720Y-95577000D01*
X128377280Y-95577000D01*
X128377272Y-95577000D01*
X128290393Y-95588438D01*
X128264764Y-95591813D01*
X128264762Y-95591813D01*
X128256708Y-95592874D01*
X128256316Y-95589899D01*
X128223684Y-95589899D01*
X128223292Y-95592874D01*
X128215237Y-95591813D01*
X128215236Y-95591813D01*
X128186271Y-95587999D01*
X128102727Y-95577000D01*
X128102720Y-95577000D01*
X127877280Y-95577000D01*
X127877272Y-95577000D01*
X127790393Y-95588438D01*
X127764764Y-95591813D01*
X127764762Y-95591813D01*
X127756708Y-95592874D01*
X127756316Y-95589899D01*
X127723684Y-95589899D01*
X127723292Y-95592874D01*
X127715237Y-95591813D01*
X127715236Y-95591813D01*
X127686271Y-95587999D01*
X127602727Y-95577000D01*
X127602720Y-95577000D01*
X127377280Y-95577000D01*
X127377272Y-95577000D01*
X127290393Y-95588438D01*
X127264764Y-95591813D01*
X127264762Y-95591813D01*
X127256708Y-95592874D01*
X127256316Y-95589899D01*
X127223684Y-95589899D01*
X127223292Y-95592874D01*
X127215237Y-95591813D01*
X127215236Y-95591813D01*
X127186271Y-95587999D01*
X127102727Y-95577000D01*
X127102720Y-95577000D01*
X126939500Y-95577000D01*
X126872461Y-95557315D01*
X126826706Y-95504511D01*
X126815500Y-95453000D01*
X126815500Y-95289786D01*
X126815500Y-95289780D01*
X126800687Y-95177264D01*
X126800686Y-95177263D01*
X126799626Y-95169205D01*
X126802689Y-95168801D01*
X126802689Y-95136198D01*
X126799626Y-95135795D01*
X126810365Y-95054222D01*
X126815500Y-95015220D01*
X126815500Y-94789780D01*
X126812748Y-94768881D01*
X126823512Y-94699850D01*
X126869890Y-94647592D01*
X126877780Y-94643241D01*
X126879738Y-94642010D01*
X126879740Y-94642010D01*
X127032480Y-94546037D01*
X127160034Y-94418483D01*
X127256007Y-94265743D01*
X127315586Y-94095476D01*
X127315930Y-94092422D01*
X127335783Y-93916224D01*
X127335783Y-93916217D01*
X127315587Y-93736971D01*
X127315586Y-93736966D01*
X127286030Y-93652500D01*
X127256007Y-93566699D01*
X127228818Y-93523429D01*
X127209818Y-93456194D01*
X127228818Y-93391487D01*
X127291840Y-93291189D01*
X127351419Y-93120922D01*
X127351420Y-93120916D01*
X127371616Y-92941670D01*
X127371616Y-92941663D01*
X127351420Y-92762417D01*
X127351419Y-92762412D01*
X127321624Y-92677264D01*
X127291840Y-92592145D01*
X127195867Y-92439405D01*
X127068313Y-92311851D01*
X126938048Y-92230000D01*
X126915575Y-92215879D01*
X126915574Y-92215878D01*
X126889793Y-92206857D01*
X126833017Y-92166134D01*
X126807271Y-92101181D01*
X126807810Y-92073630D01*
X126815499Y-92015227D01*
X126815500Y-92015220D01*
X126815500Y-91789780D01*
X126800687Y-91677264D01*
X126800686Y-91677263D01*
X126799626Y-91669205D01*
X126802689Y-91668801D01*
X126802689Y-91636198D01*
X126799626Y-91635795D01*
X126810635Y-91552171D01*
X126815500Y-91515220D01*
X126815500Y-91289780D01*
X126813170Y-91272084D01*
X126823932Y-91203050D01*
X126870310Y-91150792D01*
X126937578Y-91131904D01*
X126949991Y-91132675D01*
X127106996Y-91150365D01*
X127107000Y-91150365D01*
X127107004Y-91150365D01*
X127286249Y-91130169D01*
X127286252Y-91130168D01*
X127286255Y-91130168D01*
X127456522Y-91070589D01*
X127609262Y-90974616D01*
X127736816Y-90847062D01*
X127832789Y-90694322D01*
X127892368Y-90524055D01*
X127909970Y-90367831D01*
X127912565Y-90344803D01*
X127912565Y-90344796D01*
X127892369Y-90165550D01*
X127892368Y-90165545D01*
X127832788Y-89995275D01*
X127784215Y-89917973D01*
X127765214Y-89850736D01*
X127785581Y-89783901D01*
X127838849Y-89738686D01*
X127889208Y-89728000D01*
X128102713Y-89728000D01*
X128102720Y-89728000D01*
X128215236Y-89713187D01*
X128215236Y-89713186D01*
X128223295Y-89712126D01*
X128223698Y-89715189D01*
X128256302Y-89715189D01*
X128256705Y-89712126D01*
X128264763Y-89713186D01*
X128264764Y-89713187D01*
X128377280Y-89728000D01*
X128377287Y-89728000D01*
X128602713Y-89728000D01*
X128602720Y-89728000D01*
X128715236Y-89713187D01*
X128715236Y-89713186D01*
X128723295Y-89712126D01*
X128723530Y-89713918D01*
X128757269Y-89711695D01*
X128839999Y-89722586D01*
X128842155Y-89720695D01*
X128859685Y-89660997D01*
X128888512Y-89629661D01*
X128914515Y-89609708D01*
X128979684Y-89584516D01*
X129048129Y-89598555D01*
G37*
%TD.AperFunction*%
%TD*%
M02*
