%TF.GenerationSoftware,KiCad,Pcbnew,7.0.9*%
%TF.CreationDate,2024-08-09T20:27:09+01:00*%
%TF.ProjectId,RISKYKVM,5249534b-594b-4564-9d2e-6b696361645f,rev?*%
%TF.SameCoordinates,Original*%
%TF.FileFunction,Legend,Top*%
%TF.FilePolarity,Positive*%
%FSLAX46Y46*%
G04 Gerber Fmt 4.6, Leading zero omitted, Abs format (unit mm)*
G04 Created by KiCad (PCBNEW 7.0.9) date 2024-08-09 20:27:09*
%MOMM*%
%LPD*%
G01*
G04 APERTURE LIST*
%ADD10C,0.152400*%
%ADD11C,0.150000*%
%ADD12C,0.120000*%
G04 APERTURE END LIST*
D10*
X138060375Y-99344917D02*
X138060375Y-98957870D01*
X138292603Y-99422327D02*
X137479803Y-99151394D01*
X137479803Y-99151394D02*
X138292603Y-98880460D01*
X137479803Y-98222479D02*
X137479803Y-98609527D01*
X137479803Y-98609527D02*
X137866851Y-98648231D01*
X137866851Y-98648231D02*
X137828146Y-98609527D01*
X137828146Y-98609527D02*
X137789441Y-98532117D01*
X137789441Y-98532117D02*
X137789441Y-98338593D01*
X137789441Y-98338593D02*
X137828146Y-98261184D01*
X137828146Y-98261184D02*
X137866851Y-98222479D01*
X137866851Y-98222479D02*
X137944260Y-98183774D01*
X137944260Y-98183774D02*
X138137784Y-98183774D01*
X138137784Y-98183774D02*
X138215194Y-98222479D01*
X138215194Y-98222479D02*
X138253899Y-98261184D01*
X138253899Y-98261184D02*
X138292603Y-98338593D01*
X138292603Y-98338593D02*
X138292603Y-98532117D01*
X138292603Y-98532117D02*
X138253899Y-98609527D01*
X138253899Y-98609527D02*
X138215194Y-98648231D01*
X137479803Y-97680613D02*
X137479803Y-97603203D01*
X137479803Y-97603203D02*
X137518508Y-97525794D01*
X137518508Y-97525794D02*
X137557213Y-97487089D01*
X137557213Y-97487089D02*
X137634622Y-97448384D01*
X137634622Y-97448384D02*
X137789441Y-97409679D01*
X137789441Y-97409679D02*
X137982965Y-97409679D01*
X137982965Y-97409679D02*
X138137784Y-97448384D01*
X138137784Y-97448384D02*
X138215194Y-97487089D01*
X138215194Y-97487089D02*
X138253899Y-97525794D01*
X138253899Y-97525794D02*
X138292603Y-97603203D01*
X138292603Y-97603203D02*
X138292603Y-97680613D01*
X138292603Y-97680613D02*
X138253899Y-97758022D01*
X138253899Y-97758022D02*
X138215194Y-97796727D01*
X138215194Y-97796727D02*
X138137784Y-97835432D01*
X138137784Y-97835432D02*
X137982965Y-97874136D01*
X137982965Y-97874136D02*
X137789441Y-97874136D01*
X137789441Y-97874136D02*
X137634622Y-97835432D01*
X137634622Y-97835432D02*
X137557213Y-97796727D01*
X137557213Y-97796727D02*
X137518508Y-97758022D01*
X137518508Y-97758022D02*
X137479803Y-97680613D01*
X137479803Y-96906518D02*
X137479803Y-96829108D01*
X137479803Y-96829108D02*
X137518508Y-96751699D01*
X137518508Y-96751699D02*
X137557213Y-96712994D01*
X137557213Y-96712994D02*
X137634622Y-96674289D01*
X137634622Y-96674289D02*
X137789441Y-96635584D01*
X137789441Y-96635584D02*
X137982965Y-96635584D01*
X137982965Y-96635584D02*
X138137784Y-96674289D01*
X138137784Y-96674289D02*
X138215194Y-96712994D01*
X138215194Y-96712994D02*
X138253899Y-96751699D01*
X138253899Y-96751699D02*
X138292603Y-96829108D01*
X138292603Y-96829108D02*
X138292603Y-96906518D01*
X138292603Y-96906518D02*
X138253899Y-96983927D01*
X138253899Y-96983927D02*
X138215194Y-97022632D01*
X138215194Y-97022632D02*
X138137784Y-97061337D01*
X138137784Y-97061337D02*
X137982965Y-97100041D01*
X137982965Y-97100041D02*
X137789441Y-97100041D01*
X137789441Y-97100041D02*
X137634622Y-97061337D01*
X137634622Y-97061337D02*
X137557213Y-97022632D01*
X137557213Y-97022632D02*
X137518508Y-96983927D01*
X137518508Y-96983927D02*
X137479803Y-96906518D01*
X138292603Y-95667966D02*
X137479803Y-95667966D01*
X138292603Y-95203509D02*
X137828146Y-95551851D01*
X137479803Y-95203509D02*
X137944260Y-95667966D01*
X137866851Y-94855166D02*
X137866851Y-94584232D01*
X138292603Y-94468118D02*
X138292603Y-94855166D01*
X138292603Y-94855166D02*
X137479803Y-94855166D01*
X137479803Y-94855166D02*
X137479803Y-94468118D01*
X137905556Y-93964957D02*
X138292603Y-93964957D01*
X137479803Y-94235890D02*
X137905556Y-93964957D01*
X137905556Y-93964957D02*
X137479803Y-93694023D01*
X137866851Y-93152156D02*
X137905556Y-93036042D01*
X137905556Y-93036042D02*
X137944260Y-92997337D01*
X137944260Y-92997337D02*
X138021670Y-92958633D01*
X138021670Y-92958633D02*
X138137784Y-92958633D01*
X138137784Y-92958633D02*
X138215194Y-92997337D01*
X138215194Y-92997337D02*
X138253899Y-93036042D01*
X138253899Y-93036042D02*
X138292603Y-93113452D01*
X138292603Y-93113452D02*
X138292603Y-93423090D01*
X138292603Y-93423090D02*
X137479803Y-93423090D01*
X137479803Y-93423090D02*
X137479803Y-93152156D01*
X137479803Y-93152156D02*
X137518508Y-93074747D01*
X137518508Y-93074747D02*
X137557213Y-93036042D01*
X137557213Y-93036042D02*
X137634622Y-92997337D01*
X137634622Y-92997337D02*
X137712032Y-92997337D01*
X137712032Y-92997337D02*
X137789441Y-93036042D01*
X137789441Y-93036042D02*
X137828146Y-93074747D01*
X137828146Y-93074747D02*
X137866851Y-93152156D01*
X137866851Y-93152156D02*
X137866851Y-93423090D01*
X137479803Y-92455471D02*
X137479803Y-92300652D01*
X137479803Y-92300652D02*
X137518508Y-92223242D01*
X137518508Y-92223242D02*
X137595918Y-92145833D01*
X137595918Y-92145833D02*
X137750737Y-92107128D01*
X137750737Y-92107128D02*
X138021670Y-92107128D01*
X138021670Y-92107128D02*
X138176489Y-92145833D01*
X138176489Y-92145833D02*
X138253899Y-92223242D01*
X138253899Y-92223242D02*
X138292603Y-92300652D01*
X138292603Y-92300652D02*
X138292603Y-92455471D01*
X138292603Y-92455471D02*
X138253899Y-92532880D01*
X138253899Y-92532880D02*
X138176489Y-92610290D01*
X138176489Y-92610290D02*
X138021670Y-92648994D01*
X138021670Y-92648994D02*
X137750737Y-92648994D01*
X137750737Y-92648994D02*
X137595918Y-92610290D01*
X137595918Y-92610290D02*
X137518508Y-92532880D01*
X137518508Y-92532880D02*
X137479803Y-92455471D01*
X138060375Y-91797489D02*
X138060375Y-91410442D01*
X138292603Y-91874899D02*
X137479803Y-91603966D01*
X137479803Y-91603966D02*
X138292603Y-91333032D01*
X138292603Y-90597642D02*
X137905556Y-90868575D01*
X138292603Y-91062099D02*
X137479803Y-91062099D01*
X137479803Y-91062099D02*
X137479803Y-90752461D01*
X137479803Y-90752461D02*
X137518508Y-90675051D01*
X137518508Y-90675051D02*
X137557213Y-90636346D01*
X137557213Y-90636346D02*
X137634622Y-90597642D01*
X137634622Y-90597642D02*
X137750737Y-90597642D01*
X137750737Y-90597642D02*
X137828146Y-90636346D01*
X137828146Y-90636346D02*
X137866851Y-90675051D01*
X137866851Y-90675051D02*
X137905556Y-90752461D01*
X137905556Y-90752461D02*
X137905556Y-91062099D01*
X138292603Y-90249299D02*
X137479803Y-90249299D01*
X137479803Y-90249299D02*
X137479803Y-90055775D01*
X137479803Y-90055775D02*
X137518508Y-89939661D01*
X137518508Y-89939661D02*
X137595918Y-89862251D01*
X137595918Y-89862251D02*
X137673327Y-89823546D01*
X137673327Y-89823546D02*
X137828146Y-89784842D01*
X137828146Y-89784842D02*
X137944260Y-89784842D01*
X137944260Y-89784842D02*
X138099079Y-89823546D01*
X138099079Y-89823546D02*
X138176489Y-89862251D01*
X138176489Y-89862251D02*
X138253899Y-89939661D01*
X138253899Y-89939661D02*
X138292603Y-90055775D01*
X138292603Y-90055775D02*
X138292603Y-90249299D01*
X139058243Y-106883995D02*
X138787310Y-106496948D01*
X138593786Y-106883995D02*
X138593786Y-106071195D01*
X138593786Y-106071195D02*
X138903424Y-106071195D01*
X138903424Y-106071195D02*
X138980834Y-106109900D01*
X138980834Y-106109900D02*
X139019539Y-106148605D01*
X139019539Y-106148605D02*
X139058243Y-106226014D01*
X139058243Y-106226014D02*
X139058243Y-106342129D01*
X139058243Y-106342129D02*
X139019539Y-106419538D01*
X139019539Y-106419538D02*
X138980834Y-106458243D01*
X138980834Y-106458243D02*
X138903424Y-106496948D01*
X138903424Y-106496948D02*
X138593786Y-106496948D01*
X139406586Y-106883995D02*
X139406586Y-106071195D01*
X139754930Y-106845291D02*
X139871044Y-106883995D01*
X139871044Y-106883995D02*
X140064568Y-106883995D01*
X140064568Y-106883995D02*
X140141977Y-106845291D01*
X140141977Y-106845291D02*
X140180682Y-106806586D01*
X140180682Y-106806586D02*
X140219387Y-106729176D01*
X140219387Y-106729176D02*
X140219387Y-106651767D01*
X140219387Y-106651767D02*
X140180682Y-106574357D01*
X140180682Y-106574357D02*
X140141977Y-106535652D01*
X140141977Y-106535652D02*
X140064568Y-106496948D01*
X140064568Y-106496948D02*
X139909749Y-106458243D01*
X139909749Y-106458243D02*
X139832339Y-106419538D01*
X139832339Y-106419538D02*
X139793634Y-106380833D01*
X139793634Y-106380833D02*
X139754930Y-106303424D01*
X139754930Y-106303424D02*
X139754930Y-106226014D01*
X139754930Y-106226014D02*
X139793634Y-106148605D01*
X139793634Y-106148605D02*
X139832339Y-106109900D01*
X139832339Y-106109900D02*
X139909749Y-106071195D01*
X139909749Y-106071195D02*
X140103272Y-106071195D01*
X140103272Y-106071195D02*
X140219387Y-106109900D01*
X140567729Y-106883995D02*
X140567729Y-106071195D01*
X141032186Y-106883995D02*
X140683844Y-106419538D01*
X141032186Y-106071195D02*
X140567729Y-106535652D01*
X141535348Y-106496948D02*
X141535348Y-106883995D01*
X141264415Y-106071195D02*
X141535348Y-106496948D01*
X141535348Y-106496948D02*
X141806282Y-106071195D01*
X138593786Y-108192603D02*
X138593786Y-107379803D01*
X139058243Y-108192603D02*
X138709901Y-107728146D01*
X139058243Y-107379803D02*
X138593786Y-107844260D01*
X139290472Y-107379803D02*
X139561405Y-108192603D01*
X139561405Y-108192603D02*
X139832339Y-107379803D01*
X140103272Y-108192603D02*
X140103272Y-107379803D01*
X140103272Y-107379803D02*
X140374206Y-107960375D01*
X140374206Y-107960375D02*
X140645139Y-107379803D01*
X140645139Y-107379803D02*
X140645139Y-108192603D01*
X132358243Y-85515194D02*
X132319539Y-85553899D01*
X132319539Y-85553899D02*
X132203424Y-85592603D01*
X132203424Y-85592603D02*
X132126015Y-85592603D01*
X132126015Y-85592603D02*
X132009901Y-85553899D01*
X132009901Y-85553899D02*
X131932491Y-85476489D01*
X131932491Y-85476489D02*
X131893786Y-85399079D01*
X131893786Y-85399079D02*
X131855082Y-85244260D01*
X131855082Y-85244260D02*
X131855082Y-85128146D01*
X131855082Y-85128146D02*
X131893786Y-84973327D01*
X131893786Y-84973327D02*
X131932491Y-84895918D01*
X131932491Y-84895918D02*
X132009901Y-84818508D01*
X132009901Y-84818508D02*
X132126015Y-84779803D01*
X132126015Y-84779803D02*
X132203424Y-84779803D01*
X132203424Y-84779803D02*
X132319539Y-84818508D01*
X132319539Y-84818508D02*
X132358243Y-84857213D01*
X133093634Y-85592603D02*
X132706586Y-85592603D01*
X132706586Y-85592603D02*
X132706586Y-84779803D01*
X133364567Y-85592603D02*
X133364567Y-84779803D01*
X133829024Y-85592603D02*
X133480682Y-85128146D01*
X133829024Y-84779803D02*
X133364567Y-85244260D01*
X119158243Y-83692603D02*
X118887310Y-83305556D01*
X118693786Y-83692603D02*
X118693786Y-82879803D01*
X118693786Y-82879803D02*
X119003424Y-82879803D01*
X119003424Y-82879803D02*
X119080834Y-82918508D01*
X119080834Y-82918508D02*
X119119539Y-82957213D01*
X119119539Y-82957213D02*
X119158243Y-83034622D01*
X119158243Y-83034622D02*
X119158243Y-83150737D01*
X119158243Y-83150737D02*
X119119539Y-83228146D01*
X119119539Y-83228146D02*
X119080834Y-83266851D01*
X119080834Y-83266851D02*
X119003424Y-83305556D01*
X119003424Y-83305556D02*
X118693786Y-83305556D01*
X119506586Y-83266851D02*
X119777520Y-83266851D01*
X119893634Y-83692603D02*
X119506586Y-83692603D01*
X119506586Y-83692603D02*
X119506586Y-82879803D01*
X119506586Y-82879803D02*
X119893634Y-82879803D01*
X120203272Y-83460375D02*
X120590319Y-83460375D01*
X120125862Y-83692603D02*
X120396795Y-82879803D01*
X120396795Y-82879803D02*
X120667729Y-83692603D01*
X120938662Y-83692603D02*
X120938662Y-82879803D01*
X120938662Y-82879803D02*
X121132186Y-82879803D01*
X121132186Y-82879803D02*
X121248300Y-82918508D01*
X121248300Y-82918508D02*
X121325710Y-82995918D01*
X121325710Y-82995918D02*
X121364415Y-83073327D01*
X121364415Y-83073327D02*
X121403119Y-83228146D01*
X121403119Y-83228146D02*
X121403119Y-83344260D01*
X121403119Y-83344260D02*
X121364415Y-83499079D01*
X121364415Y-83499079D02*
X121325710Y-83576489D01*
X121325710Y-83576489D02*
X121248300Y-83653899D01*
X121248300Y-83653899D02*
X121132186Y-83692603D01*
X121132186Y-83692603D02*
X120938662Y-83692603D01*
X121906281Y-83305556D02*
X121906281Y-83692603D01*
X121635348Y-82879803D02*
X121906281Y-83305556D01*
X121906281Y-83305556D02*
X122177215Y-82879803D01*
X131993786Y-87192603D02*
X131993786Y-86379803D01*
X131993786Y-86379803D02*
X132187310Y-86379803D01*
X132187310Y-86379803D02*
X132303424Y-86418508D01*
X132303424Y-86418508D02*
X132380834Y-86495918D01*
X132380834Y-86495918D02*
X132419539Y-86573327D01*
X132419539Y-86573327D02*
X132458243Y-86728146D01*
X132458243Y-86728146D02*
X132458243Y-86844260D01*
X132458243Y-86844260D02*
X132419539Y-86999079D01*
X132419539Y-86999079D02*
X132380834Y-87076489D01*
X132380834Y-87076489D02*
X132303424Y-87153899D01*
X132303424Y-87153899D02*
X132187310Y-87192603D01*
X132187310Y-87192603D02*
X131993786Y-87192603D01*
X132806586Y-87192603D02*
X132806586Y-86379803D01*
X133348453Y-86379803D02*
X133503272Y-86379803D01*
X133503272Y-86379803D02*
X133580682Y-86418508D01*
X133580682Y-86418508D02*
X133658091Y-86495918D01*
X133658091Y-86495918D02*
X133696796Y-86650737D01*
X133696796Y-86650737D02*
X133696796Y-86921670D01*
X133696796Y-86921670D02*
X133658091Y-87076489D01*
X133658091Y-87076489D02*
X133580682Y-87153899D01*
X133580682Y-87153899D02*
X133503272Y-87192603D01*
X133503272Y-87192603D02*
X133348453Y-87192603D01*
X133348453Y-87192603D02*
X133271044Y-87153899D01*
X133271044Y-87153899D02*
X133193634Y-87076489D01*
X133193634Y-87076489D02*
X133154930Y-86921670D01*
X133154930Y-86921670D02*
X133154930Y-86650737D01*
X133154930Y-86650737D02*
X133193634Y-86495918D01*
X133193634Y-86495918D02*
X133271044Y-86418508D01*
X133271044Y-86418508D02*
X133348453Y-86379803D01*
X123042603Y-107831213D02*
X122229803Y-107831213D01*
X122229803Y-107831213D02*
X122229803Y-107521575D01*
X122229803Y-107521575D02*
X122268508Y-107444165D01*
X122268508Y-107444165D02*
X122307213Y-107405460D01*
X122307213Y-107405460D02*
X122384622Y-107366756D01*
X122384622Y-107366756D02*
X122500737Y-107366756D01*
X122500737Y-107366756D02*
X122578146Y-107405460D01*
X122578146Y-107405460D02*
X122616851Y-107444165D01*
X122616851Y-107444165D02*
X122655556Y-107521575D01*
X122655556Y-107521575D02*
X122655556Y-107831213D01*
X122229803Y-106863594D02*
X122229803Y-106708775D01*
X122229803Y-106708775D02*
X122268508Y-106631365D01*
X122268508Y-106631365D02*
X122345918Y-106553956D01*
X122345918Y-106553956D02*
X122500737Y-106515251D01*
X122500737Y-106515251D02*
X122771670Y-106515251D01*
X122771670Y-106515251D02*
X122926489Y-106553956D01*
X122926489Y-106553956D02*
X123003899Y-106631365D01*
X123003899Y-106631365D02*
X123042603Y-106708775D01*
X123042603Y-106708775D02*
X123042603Y-106863594D01*
X123042603Y-106863594D02*
X123003899Y-106941003D01*
X123003899Y-106941003D02*
X122926489Y-107018413D01*
X122926489Y-107018413D02*
X122771670Y-107057117D01*
X122771670Y-107057117D02*
X122500737Y-107057117D01*
X122500737Y-107057117D02*
X122345918Y-107018413D01*
X122345918Y-107018413D02*
X122268508Y-106941003D01*
X122268508Y-106941003D02*
X122229803Y-106863594D01*
X122229803Y-106244317D02*
X123042603Y-106050793D01*
X123042603Y-106050793D02*
X122462032Y-105895974D01*
X122462032Y-105895974D02*
X123042603Y-105741155D01*
X123042603Y-105741155D02*
X122229803Y-105547632D01*
X122616851Y-105237994D02*
X122616851Y-104967060D01*
X123042603Y-104850946D02*
X123042603Y-105237994D01*
X123042603Y-105237994D02*
X122229803Y-105237994D01*
X122229803Y-105237994D02*
X122229803Y-104850946D01*
X123042603Y-104038147D02*
X122655556Y-104309080D01*
X123042603Y-104502604D02*
X122229803Y-104502604D01*
X122229803Y-104502604D02*
X122229803Y-104192966D01*
X122229803Y-104192966D02*
X122268508Y-104115556D01*
X122268508Y-104115556D02*
X122307213Y-104076851D01*
X122307213Y-104076851D02*
X122384622Y-104038147D01*
X122384622Y-104038147D02*
X122500737Y-104038147D01*
X122500737Y-104038147D02*
X122578146Y-104076851D01*
X122578146Y-104076851D02*
X122616851Y-104115556D01*
X122616851Y-104115556D02*
X122655556Y-104192966D01*
X122655556Y-104192966D02*
X122655556Y-104502604D01*
D11*
X122254819Y-81938094D02*
X121254819Y-81938094D01*
X121254819Y-81938094D02*
X121254819Y-81699999D01*
X121254819Y-81699999D02*
X121302438Y-81557142D01*
X121302438Y-81557142D02*
X121397676Y-81461904D01*
X121397676Y-81461904D02*
X121492914Y-81414285D01*
X121492914Y-81414285D02*
X121683390Y-81366666D01*
X121683390Y-81366666D02*
X121826247Y-81366666D01*
X121826247Y-81366666D02*
X122016723Y-81414285D01*
X122016723Y-81414285D02*
X122111961Y-81461904D01*
X122111961Y-81461904D02*
X122207200Y-81557142D01*
X122207200Y-81557142D02*
X122254819Y-81699999D01*
X122254819Y-81699999D02*
X122254819Y-81938094D01*
X121350057Y-80985713D02*
X121302438Y-80938094D01*
X121302438Y-80938094D02*
X121254819Y-80842856D01*
X121254819Y-80842856D02*
X121254819Y-80604761D01*
X121254819Y-80604761D02*
X121302438Y-80509523D01*
X121302438Y-80509523D02*
X121350057Y-80461904D01*
X121350057Y-80461904D02*
X121445295Y-80414285D01*
X121445295Y-80414285D02*
X121540533Y-80414285D01*
X121540533Y-80414285D02*
X121683390Y-80461904D01*
X121683390Y-80461904D02*
X122254819Y-81033332D01*
X122254819Y-81033332D02*
X122254819Y-80414285D01*
X140056666Y-81734819D02*
X140056666Y-82449104D01*
X140056666Y-82449104D02*
X140009047Y-82591961D01*
X140009047Y-82591961D02*
X139913809Y-82687200D01*
X139913809Y-82687200D02*
X139770952Y-82734819D01*
X139770952Y-82734819D02*
X139675714Y-82734819D01*
X140961428Y-82068152D02*
X140961428Y-82734819D01*
X140723333Y-81687200D02*
X140485238Y-82401485D01*
X140485238Y-82401485D02*
X141104285Y-82401485D01*
X120754819Y-109398094D02*
X119754819Y-109398094D01*
X119754819Y-109398094D02*
X119754819Y-109159999D01*
X119754819Y-109159999D02*
X119802438Y-109017142D01*
X119802438Y-109017142D02*
X119897676Y-108921904D01*
X119897676Y-108921904D02*
X119992914Y-108874285D01*
X119992914Y-108874285D02*
X120183390Y-108826666D01*
X120183390Y-108826666D02*
X120326247Y-108826666D01*
X120326247Y-108826666D02*
X120516723Y-108874285D01*
X120516723Y-108874285D02*
X120611961Y-108921904D01*
X120611961Y-108921904D02*
X120707200Y-109017142D01*
X120707200Y-109017142D02*
X120754819Y-109159999D01*
X120754819Y-109159999D02*
X120754819Y-109398094D01*
X120754819Y-107874285D02*
X120754819Y-108445713D01*
X120754819Y-108159999D02*
X119754819Y-108159999D01*
X119754819Y-108159999D02*
X119897676Y-108255237D01*
X119897676Y-108255237D02*
X119992914Y-108350475D01*
X119992914Y-108350475D02*
X120040533Y-108445713D01*
X128978095Y-86257319D02*
X128978095Y-87066842D01*
X128978095Y-87066842D02*
X129025714Y-87162080D01*
X129025714Y-87162080D02*
X129073333Y-87209700D01*
X129073333Y-87209700D02*
X129168571Y-87257319D01*
X129168571Y-87257319D02*
X129359047Y-87257319D01*
X129359047Y-87257319D02*
X129454285Y-87209700D01*
X129454285Y-87209700D02*
X129501904Y-87162080D01*
X129501904Y-87162080D02*
X129549523Y-87066842D01*
X129549523Y-87066842D02*
X129549523Y-86257319D01*
X130549523Y-87257319D02*
X129978095Y-87257319D01*
X130263809Y-87257319D02*
X130263809Y-86257319D01*
X130263809Y-86257319D02*
X130168571Y-86400176D01*
X130168571Y-86400176D02*
X130073333Y-86495414D01*
X130073333Y-86495414D02*
X129978095Y-86543033D01*
X120560819Y-97737004D02*
X121370342Y-97737004D01*
X121370342Y-97737004D02*
X121465580Y-97689385D01*
X121465580Y-97689385D02*
X121513200Y-97641766D01*
X121513200Y-97641766D02*
X121560819Y-97546528D01*
X121560819Y-97546528D02*
X121560819Y-97356052D01*
X121560819Y-97356052D02*
X121513200Y-97260814D01*
X121513200Y-97260814D02*
X121465580Y-97213195D01*
X121465580Y-97213195D02*
X121370342Y-97165576D01*
X121370342Y-97165576D02*
X120560819Y-97165576D01*
X120656057Y-96737004D02*
X120608438Y-96689385D01*
X120608438Y-96689385D02*
X120560819Y-96594147D01*
X120560819Y-96594147D02*
X120560819Y-96356052D01*
X120560819Y-96356052D02*
X120608438Y-96260814D01*
X120608438Y-96260814D02*
X120656057Y-96213195D01*
X120656057Y-96213195D02*
X120751295Y-96165576D01*
X120751295Y-96165576D02*
X120846533Y-96165576D01*
X120846533Y-96165576D02*
X120989390Y-96213195D01*
X120989390Y-96213195D02*
X121560819Y-96784623D01*
X121560819Y-96784623D02*
X121560819Y-96165576D01*
D12*
%TO.C,D2*%
X118840000Y-82107500D02*
X120760000Y-82107500D01*
X120760000Y-82107500D02*
X120760000Y-79247500D01*
X118840000Y-79247500D02*
X118840000Y-82107500D01*
%TO.C,J4*%
X139060000Y-83280000D02*
X140390000Y-83280000D01*
X139060000Y-84610000D02*
X139060000Y-83280000D01*
X139060000Y-85880000D02*
X139060000Y-103720000D01*
X139060000Y-85880000D02*
X141720000Y-85880000D01*
X139060000Y-103720000D02*
X141720000Y-103720000D01*
X141720000Y-85880000D02*
X141720000Y-103720000D01*
%TO.C,F1*%
X130464564Y-84810000D02*
X129260436Y-84810000D01*
X130464564Y-82990000D02*
X129260436Y-82990000D01*
%TO.C,J3*%
X137535000Y-82387100D02*
X137535000Y-80407100D01*
X137535000Y-82387100D02*
X122815000Y-82387100D01*
X134175000Y-83267100D02*
X133675000Y-82767100D01*
X133675000Y-82767100D02*
X133175000Y-83267100D01*
X133175000Y-83267100D02*
X134175000Y-83267100D01*
X122815000Y-80407100D02*
X122815000Y-82387100D01*
%TO.C,J1*%
X123576667Y-106037500D02*
X123576667Y-109777500D01*
X137023333Y-106037500D02*
X123576667Y-106037500D01*
X137023333Y-109777500D02*
X137023333Y-106037500D01*
X137263333Y-105797500D02*
X133070000Y-105797500D01*
X137263333Y-108037500D02*
X137263333Y-105797500D01*
%TO.C,D1*%
X119100000Y-107565000D02*
X121020000Y-107565000D01*
X121020000Y-107565000D02*
X121020000Y-104705000D01*
X119100000Y-104705000D02*
X119100000Y-107565000D01*
%TO.C,U1*%
X126130000Y-89042500D02*
X126130000Y-89492500D01*
X126130000Y-89492500D02*
X124840000Y-89492500D01*
X126130000Y-96262500D02*
X126130000Y-95812500D01*
X126580000Y-89042500D02*
X126130000Y-89042500D01*
X126580000Y-96262500D02*
X126130000Y-96262500D01*
X132900000Y-89042500D02*
X133350000Y-89042500D01*
X132900000Y-96262500D02*
X133350000Y-96262500D01*
X133350000Y-89042500D02*
X133350000Y-89492500D01*
X133350000Y-96262500D02*
X133350000Y-95812500D01*
%TO.C,U2*%
X124760000Y-98102500D02*
X124760000Y-99242500D01*
X124990000Y-99242500D02*
X124760000Y-99242500D01*
X124990000Y-99242500D02*
X124990000Y-101962500D01*
X120270000Y-99242500D02*
X120500000Y-99242500D01*
X124990000Y-101962500D02*
X123680000Y-101962500D01*
X121580000Y-101962500D02*
X120270000Y-101962500D01*
X120270000Y-101962500D02*
X120270000Y-99242500D01*
%TO.C,J2*%
X134070000Y-83670000D02*
X135400000Y-83670000D01*
X134070000Y-85000000D02*
X134070000Y-83670000D01*
X134070000Y-86270000D02*
X134070000Y-88870000D01*
X134070000Y-86270000D02*
X136730000Y-86270000D01*
X134070000Y-88870000D02*
X136730000Y-88870000D01*
X136730000Y-86270000D02*
X136730000Y-88870000D01*
%TD*%
M02*
