%TF.GenerationSoftware,KiCad,Pcbnew,7.0.9*%
%TF.CreationDate,2024-08-09T20:27:09+01:00*%
%TF.ProjectId,RISKYKVM,5249534b-594b-4564-9d2e-6b696361645f,rev?*%
%TF.SameCoordinates,Original*%
%TF.FileFunction,Copper,L3,Inr*%
%TF.FilePolarity,Positive*%
%FSLAX46Y46*%
G04 Gerber Fmt 4.6, Leading zero omitted, Abs format (unit mm)*
G04 Created by KiCad (PCBNEW 7.0.9) date 2024-08-09 20:27:09*
%MOMM*%
%LPD*%
G01*
G04 APERTURE LIST*
%TA.AperFunction,ComponentPad*%
%ADD10R,1.700000X1.700000*%
%TD*%
%TA.AperFunction,ComponentPad*%
%ADD11O,1.700000X1.700000*%
%TD*%
%TA.AperFunction,ComponentPad*%
%ADD12R,1.524000X1.524000*%
%TD*%
%TA.AperFunction,ComponentPad*%
%ADD13C,1.524000*%
%TD*%
%TA.AperFunction,ComponentPad*%
%ADD14C,3.500000*%
%TD*%
%TA.AperFunction,ViaPad*%
%ADD15C,0.600000*%
%TD*%
G04 APERTURE END LIST*
D10*
%TO.N,/KB_CLK*%
%TO.C,J4*%
X140390000Y-84610000D03*
D11*
%TO.N,/KB_DATA*%
X140390000Y-87150000D03*
%TO.N,/KB_RESET*%
X140390000Y-89690000D03*
%TO.N,+5V*%
X140390000Y-92230000D03*
%TO.N,GND*%
X140390000Y-94770000D03*
%TO.N,unconnected-(J4-Pin_6-Pad6)*%
X140390000Y-97310000D03*
%TO.N,unconnected-(J4-Pin_7-Pad7)*%
X140390000Y-99850000D03*
%TO.N,unconnected-(J4-Pin_8-Pad8)*%
X140390000Y-102390000D03*
%TD*%
D12*
%TO.N,Net-(J3-VBUS)*%
%TO.C,J3*%
X133675000Y-81267100D03*
D13*
%TO.N,/USB_DM*%
X131175000Y-81267100D03*
%TO.N,/USB_DP*%
X129175000Y-81267100D03*
%TO.N,GND*%
X126675000Y-81267100D03*
D14*
X136745000Y-78557100D03*
X123605000Y-78557100D03*
%TD*%
D10*
%TO.N,/SWCLK*%
%TO.C,J2*%
X135400000Y-85000000D03*
D11*
%TO.N,/SWDIO*%
X135400000Y-87540000D03*
%TD*%
D15*
%TO.N,+3.3V*%
X119775000Y-77375000D03*
X121925000Y-104650000D03*
X122630000Y-98740000D03*
X132085400Y-90319400D03*
X132466400Y-95831200D03*
X127107000Y-90344800D03*
X126530218Y-93916221D03*
%TO.N,GND*%
X137100000Y-92450000D03*
X128900000Y-108100000D03*
X138400000Y-96200000D03*
X135057200Y-90319400D03*
X131980000Y-98100000D03*
X124077800Y-98676900D03*
X122600000Y-95100000D03*
X129720000Y-77770000D03*
X128010000Y-99540000D03*
X127500000Y-87390000D03*
X122600000Y-97000000D03*
%TO.N,+5V*%
X121131400Y-99134100D03*
X128360000Y-83820000D03*
%TO.N,/NRST*%
X126566051Y-92941667D03*
%TO.N,/PIN6*%
X134455000Y-107797500D03*
%TO.N,/PIN9*%
X126145000Y-107797500D03*
%TO.N,Net-(D1-A)*%
X120150000Y-104630000D03*
%TO.N,Net-(D2-A)*%
X119800000Y-79250000D03*
%TD*%
%TA.AperFunction,Conductor*%
%TO.N,+3.3V*%
G36*
X142360739Y-75365585D02*
G01*
X142406494Y-75418389D01*
X142417700Y-75469900D01*
X142417700Y-109775500D01*
X142398015Y-109842539D01*
X142345211Y-109888294D01*
X142293700Y-109899500D01*
X118626300Y-109899500D01*
X118559261Y-109879815D01*
X118513506Y-109827011D01*
X118502300Y-109775500D01*
X118502300Y-107797503D01*
X125339435Y-107797503D01*
X125359630Y-107976749D01*
X125359631Y-107976754D01*
X125419211Y-108147023D01*
X125502295Y-108279249D01*
X125515184Y-108299762D01*
X125642738Y-108427316D01*
X125795478Y-108523289D01*
X125965745Y-108582868D01*
X125965750Y-108582869D01*
X126144996Y-108603065D01*
X126145000Y-108603065D01*
X126145004Y-108603065D01*
X126324249Y-108582869D01*
X126324252Y-108582868D01*
X126324255Y-108582868D01*
X126494522Y-108523289D01*
X126647262Y-108427316D01*
X126774816Y-108299762D01*
X126870789Y-108147022D01*
X126887242Y-108100003D01*
X128094435Y-108100003D01*
X128114630Y-108279249D01*
X128114631Y-108279254D01*
X128174211Y-108449523D01*
X128270184Y-108602262D01*
X128397738Y-108729816D01*
X128550478Y-108825789D01*
X128720745Y-108885368D01*
X128720750Y-108885369D01*
X128899996Y-108905565D01*
X128900000Y-108905565D01*
X128900004Y-108905565D01*
X129079249Y-108885369D01*
X129079252Y-108885368D01*
X129079255Y-108885368D01*
X129249522Y-108825789D01*
X129402262Y-108729816D01*
X129529816Y-108602262D01*
X129625789Y-108449522D01*
X129685368Y-108279255D01*
X129705565Y-108100000D01*
X129691678Y-107976749D01*
X129685369Y-107920750D01*
X129685368Y-107920745D01*
X129642244Y-107797503D01*
X133649435Y-107797503D01*
X133669630Y-107976749D01*
X133669631Y-107976754D01*
X133729211Y-108147023D01*
X133812295Y-108279249D01*
X133825184Y-108299762D01*
X133952738Y-108427316D01*
X134105478Y-108523289D01*
X134275745Y-108582868D01*
X134275750Y-108582869D01*
X134454996Y-108603065D01*
X134455000Y-108603065D01*
X134455004Y-108603065D01*
X134634249Y-108582869D01*
X134634252Y-108582868D01*
X134634255Y-108582868D01*
X134804522Y-108523289D01*
X134957262Y-108427316D01*
X135084816Y-108299762D01*
X135180789Y-108147022D01*
X135240368Y-107976755D01*
X135240369Y-107976749D01*
X135260565Y-107797503D01*
X135260565Y-107797496D01*
X135240369Y-107618250D01*
X135240368Y-107618245D01*
X135180788Y-107447976D01*
X135084815Y-107295237D01*
X134957262Y-107167684D01*
X134804523Y-107071711D01*
X134634254Y-107012131D01*
X134634249Y-107012130D01*
X134455004Y-106991935D01*
X134454996Y-106991935D01*
X134275750Y-107012130D01*
X134275745Y-107012131D01*
X134105476Y-107071711D01*
X133952737Y-107167684D01*
X133825184Y-107295237D01*
X133729211Y-107447976D01*
X133669631Y-107618245D01*
X133669630Y-107618250D01*
X133649435Y-107797496D01*
X133649435Y-107797503D01*
X129642244Y-107797503D01*
X129625789Y-107750478D01*
X129529816Y-107597738D01*
X129402262Y-107470184D01*
X129249523Y-107374211D01*
X129079254Y-107314631D01*
X129079249Y-107314630D01*
X128900004Y-107294435D01*
X128899996Y-107294435D01*
X128720750Y-107314630D01*
X128720745Y-107314631D01*
X128550476Y-107374211D01*
X128397737Y-107470184D01*
X128270184Y-107597737D01*
X128174211Y-107750476D01*
X128114631Y-107920745D01*
X128114630Y-107920750D01*
X128094435Y-108099996D01*
X128094435Y-108100003D01*
X126887242Y-108100003D01*
X126930368Y-107976755D01*
X126930369Y-107976749D01*
X126950565Y-107797503D01*
X126950565Y-107797496D01*
X126930369Y-107618250D01*
X126930368Y-107618245D01*
X126870788Y-107447976D01*
X126774815Y-107295237D01*
X126647262Y-107167684D01*
X126494523Y-107071711D01*
X126324254Y-107012131D01*
X126324249Y-107012130D01*
X126145004Y-106991935D01*
X126144996Y-106991935D01*
X125965750Y-107012130D01*
X125965745Y-107012131D01*
X125795476Y-107071711D01*
X125642737Y-107167684D01*
X125515184Y-107295237D01*
X125419211Y-107447976D01*
X125359631Y-107618245D01*
X125359630Y-107618250D01*
X125339435Y-107797496D01*
X125339435Y-107797503D01*
X118502300Y-107797503D01*
X118502300Y-104630003D01*
X119344435Y-104630003D01*
X119364630Y-104809249D01*
X119364631Y-104809254D01*
X119424211Y-104979523D01*
X119520184Y-105132262D01*
X119647738Y-105259816D01*
X119800478Y-105355789D01*
X119970745Y-105415368D01*
X119970750Y-105415369D01*
X120149996Y-105435565D01*
X120150000Y-105435565D01*
X120150004Y-105435565D01*
X120329249Y-105415369D01*
X120329252Y-105415368D01*
X120329255Y-105415368D01*
X120499522Y-105355789D01*
X120652262Y-105259816D01*
X120779816Y-105132262D01*
X120875789Y-104979522D01*
X120935368Y-104809255D01*
X120955565Y-104630000D01*
X120935368Y-104450745D01*
X120875789Y-104280478D01*
X120779816Y-104127738D01*
X120652262Y-104000184D01*
X120499523Y-103904211D01*
X120329254Y-103844631D01*
X120329249Y-103844630D01*
X120150004Y-103824435D01*
X120149996Y-103824435D01*
X119970750Y-103844630D01*
X119970745Y-103844631D01*
X119800476Y-103904211D01*
X119647737Y-104000184D01*
X119520184Y-104127737D01*
X119424211Y-104280476D01*
X119364631Y-104450745D01*
X119364630Y-104450750D01*
X119344435Y-104629996D01*
X119344435Y-104630003D01*
X118502300Y-104630003D01*
X118502300Y-99134103D01*
X120325835Y-99134103D01*
X120346030Y-99313349D01*
X120346031Y-99313354D01*
X120405611Y-99483623D01*
X120501584Y-99636362D01*
X120629138Y-99763916D01*
X120719480Y-99820682D01*
X120766139Y-99850000D01*
X120781878Y-99859889D01*
X120952145Y-99919468D01*
X120952150Y-99919469D01*
X121131396Y-99939665D01*
X121131400Y-99939665D01*
X121131404Y-99939665D01*
X121310649Y-99919469D01*
X121310652Y-99919468D01*
X121310655Y-99919468D01*
X121480922Y-99859889D01*
X121633662Y-99763916D01*
X121761216Y-99636362D01*
X121821762Y-99540003D01*
X127204435Y-99540003D01*
X127224630Y-99719249D01*
X127224631Y-99719254D01*
X127284211Y-99889523D01*
X127315718Y-99939665D01*
X127380184Y-100042262D01*
X127507738Y-100169816D01*
X127660478Y-100265789D01*
X127797271Y-100313655D01*
X127830745Y-100325368D01*
X127830750Y-100325369D01*
X128009996Y-100345565D01*
X128010000Y-100345565D01*
X128010004Y-100345565D01*
X128189249Y-100325369D01*
X128189252Y-100325368D01*
X128189255Y-100325368D01*
X128359522Y-100265789D01*
X128512262Y-100169816D01*
X128639816Y-100042262D01*
X128735789Y-99889522D01*
X128795368Y-99719255D01*
X128807161Y-99614592D01*
X128815565Y-99540003D01*
X128815565Y-99539996D01*
X128795369Y-99360750D01*
X128795368Y-99360745D01*
X128735789Y-99190478D01*
X128639816Y-99037738D01*
X128512262Y-98910184D01*
X128472768Y-98885368D01*
X128359523Y-98814211D01*
X128189254Y-98754631D01*
X128189249Y-98754630D01*
X128010004Y-98734435D01*
X128009996Y-98734435D01*
X127830750Y-98754630D01*
X127830745Y-98754631D01*
X127660476Y-98814211D01*
X127507737Y-98910184D01*
X127380184Y-99037737D01*
X127284211Y-99190476D01*
X127224631Y-99360745D01*
X127224630Y-99360750D01*
X127204435Y-99539996D01*
X127204435Y-99540003D01*
X121821762Y-99540003D01*
X121857189Y-99483622D01*
X121916768Y-99313355D01*
X121931888Y-99179162D01*
X121936965Y-99134103D01*
X121936965Y-99134096D01*
X121916769Y-98954850D01*
X121916768Y-98954845D01*
X121882235Y-98856155D01*
X121857189Y-98784578D01*
X121838371Y-98754630D01*
X121789532Y-98676903D01*
X123272235Y-98676903D01*
X123292430Y-98856149D01*
X123292431Y-98856154D01*
X123352011Y-99026423D01*
X123443590Y-99172169D01*
X123447984Y-99179162D01*
X123575538Y-99306716D01*
X123728278Y-99402689D01*
X123898545Y-99462268D01*
X123898550Y-99462269D01*
X124077796Y-99482465D01*
X124077800Y-99482465D01*
X124077804Y-99482465D01*
X124257049Y-99462269D01*
X124257052Y-99462268D01*
X124257055Y-99462268D01*
X124427322Y-99402689D01*
X124580062Y-99306716D01*
X124707616Y-99179162D01*
X124803589Y-99026422D01*
X124863168Y-98856155D01*
X124863169Y-98856149D01*
X124883365Y-98676903D01*
X124883365Y-98676896D01*
X124863169Y-98497650D01*
X124863168Y-98497645D01*
X124811061Y-98348732D01*
X124803589Y-98327378D01*
X124707616Y-98174638D01*
X124632981Y-98100003D01*
X131174435Y-98100003D01*
X131194630Y-98279249D01*
X131194631Y-98279254D01*
X131254211Y-98449523D01*
X131288620Y-98504284D01*
X131350184Y-98602262D01*
X131477738Y-98729816D01*
X131564888Y-98784576D01*
X131612051Y-98814211D01*
X131630478Y-98825789D01*
X131717259Y-98856155D01*
X131800745Y-98885368D01*
X131800750Y-98885369D01*
X131979996Y-98905565D01*
X131980000Y-98905565D01*
X131980004Y-98905565D01*
X132159249Y-98885369D01*
X132159252Y-98885368D01*
X132159255Y-98885368D01*
X132329522Y-98825789D01*
X132482262Y-98729816D01*
X132609816Y-98602262D01*
X132705789Y-98449522D01*
X132765368Y-98279255D01*
X132765369Y-98279249D01*
X132785565Y-98100003D01*
X132785565Y-98099996D01*
X132765369Y-97920750D01*
X132765368Y-97920745D01*
X132717998Y-97785369D01*
X132705789Y-97750478D01*
X132609816Y-97597738D01*
X132482262Y-97470184D01*
X132329523Y-97374211D01*
X132159254Y-97314631D01*
X132159249Y-97314630D01*
X131980004Y-97294435D01*
X131979996Y-97294435D01*
X131800750Y-97314630D01*
X131800745Y-97314631D01*
X131630476Y-97374211D01*
X131477737Y-97470184D01*
X131350184Y-97597737D01*
X131254211Y-97750476D01*
X131194631Y-97920745D01*
X131194630Y-97920750D01*
X131174435Y-98099996D01*
X131174435Y-98100003D01*
X124632981Y-98100003D01*
X124580062Y-98047084D01*
X124427323Y-97951111D01*
X124257054Y-97891531D01*
X124257049Y-97891530D01*
X124077804Y-97871335D01*
X124077796Y-97871335D01*
X123898550Y-97891530D01*
X123898545Y-97891531D01*
X123728276Y-97951111D01*
X123575537Y-98047084D01*
X123447984Y-98174637D01*
X123352011Y-98327376D01*
X123292431Y-98497645D01*
X123292430Y-98497650D01*
X123272235Y-98676896D01*
X123272235Y-98676903D01*
X121789532Y-98676903D01*
X121761215Y-98631837D01*
X121633662Y-98504284D01*
X121480923Y-98408311D01*
X121310654Y-98348731D01*
X121310649Y-98348730D01*
X121131404Y-98328535D01*
X121131396Y-98328535D01*
X120952150Y-98348730D01*
X120952145Y-98348731D01*
X120781876Y-98408311D01*
X120629137Y-98504284D01*
X120501584Y-98631837D01*
X120405611Y-98784576D01*
X120346031Y-98954845D01*
X120346030Y-98954850D01*
X120325835Y-99134096D01*
X120325835Y-99134103D01*
X118502300Y-99134103D01*
X118502300Y-97000003D01*
X121794435Y-97000003D01*
X121814630Y-97179249D01*
X121814631Y-97179254D01*
X121874211Y-97349523D01*
X121889724Y-97374211D01*
X121970184Y-97502262D01*
X122097738Y-97629816D01*
X122250478Y-97725789D01*
X122387271Y-97773655D01*
X122420745Y-97785368D01*
X122420750Y-97785369D01*
X122599996Y-97805565D01*
X122600000Y-97805565D01*
X122600004Y-97805565D01*
X122779249Y-97785369D01*
X122779252Y-97785368D01*
X122779255Y-97785368D01*
X122949522Y-97725789D01*
X123102262Y-97629816D01*
X123229816Y-97502262D01*
X123325789Y-97349522D01*
X123385368Y-97179255D01*
X123397161Y-97074592D01*
X123405565Y-97000003D01*
X123405565Y-96999996D01*
X123385369Y-96820750D01*
X123385368Y-96820745D01*
X123325788Y-96650476D01*
X123229815Y-96497737D01*
X123102262Y-96370184D01*
X122949523Y-96274211D01*
X122779254Y-96214631D01*
X122779249Y-96214630D01*
X122649424Y-96200003D01*
X137594435Y-96200003D01*
X137614630Y-96379249D01*
X137614631Y-96379254D01*
X137674211Y-96549523D01*
X137737646Y-96650478D01*
X137770184Y-96702262D01*
X137897738Y-96829816D01*
X137988080Y-96886582D01*
X137989759Y-96887637D01*
X138050478Y-96925789D01*
X138139371Y-96956894D01*
X138220745Y-96985368D01*
X138220750Y-96985369D01*
X138399996Y-97005565D01*
X138400000Y-97005565D01*
X138400004Y-97005565D01*
X138579249Y-96985369D01*
X138579252Y-96985368D01*
X138579255Y-96985368D01*
X138749522Y-96925789D01*
X138897191Y-96833001D01*
X138964427Y-96814002D01*
X139031263Y-96834370D01*
X139076477Y-96887637D01*
X139085715Y-96956894D01*
X139082938Y-96970089D01*
X139054938Y-97074586D01*
X139054936Y-97074596D01*
X139034341Y-97309999D01*
X139034341Y-97310000D01*
X139054936Y-97545403D01*
X139054938Y-97545413D01*
X139116094Y-97773655D01*
X139116096Y-97773659D01*
X139116097Y-97773663D01*
X139184683Y-97920745D01*
X139215965Y-97987830D01*
X139215967Y-97987834D01*
X139294507Y-98100000D01*
X139346769Y-98174638D01*
X139351501Y-98181395D01*
X139351506Y-98181402D01*
X139518597Y-98348493D01*
X139518603Y-98348498D01*
X139704158Y-98478425D01*
X139747783Y-98533002D01*
X139754977Y-98602500D01*
X139723454Y-98664855D01*
X139704158Y-98681575D01*
X139518597Y-98811505D01*
X139351505Y-98978597D01*
X139215965Y-99172169D01*
X139215964Y-99172171D01*
X139116098Y-99386335D01*
X139116094Y-99386344D01*
X139054938Y-99614586D01*
X139054936Y-99614596D01*
X139034341Y-99849999D01*
X139034341Y-99850000D01*
X139054936Y-100085403D01*
X139054938Y-100085413D01*
X139116094Y-100313655D01*
X139116096Y-100313659D01*
X139116097Y-100313663D01*
X139215965Y-100527830D01*
X139215967Y-100527834D01*
X139351501Y-100721395D01*
X139351506Y-100721402D01*
X139518597Y-100888493D01*
X139518603Y-100888498D01*
X139704158Y-101018425D01*
X139747783Y-101073002D01*
X139754977Y-101142500D01*
X139723454Y-101204855D01*
X139704158Y-101221575D01*
X139518597Y-101351505D01*
X139351505Y-101518597D01*
X139215965Y-101712169D01*
X139215964Y-101712171D01*
X139116098Y-101926335D01*
X139116094Y-101926344D01*
X139054938Y-102154586D01*
X139054936Y-102154596D01*
X139034341Y-102389999D01*
X139034341Y-102390000D01*
X139054936Y-102625403D01*
X139054938Y-102625413D01*
X139116094Y-102853655D01*
X139116096Y-102853659D01*
X139116097Y-102853663D01*
X139215965Y-103067830D01*
X139215967Y-103067834D01*
X139324281Y-103222521D01*
X139351505Y-103261401D01*
X139518599Y-103428495D01*
X139615384Y-103496265D01*
X139712165Y-103564032D01*
X139712167Y-103564033D01*
X139712170Y-103564035D01*
X139926337Y-103663903D01*
X140154592Y-103725063D01*
X140342918Y-103741539D01*
X140389999Y-103745659D01*
X140390000Y-103745659D01*
X140390001Y-103745659D01*
X140429234Y-103742226D01*
X140625408Y-103725063D01*
X140853663Y-103663903D01*
X141067830Y-103564035D01*
X141261401Y-103428495D01*
X141428495Y-103261401D01*
X141564035Y-103067830D01*
X141663903Y-102853663D01*
X141725063Y-102625408D01*
X141745659Y-102390000D01*
X141725063Y-102154592D01*
X141663903Y-101926337D01*
X141564035Y-101712171D01*
X141428495Y-101518599D01*
X141428494Y-101518597D01*
X141261402Y-101351506D01*
X141261396Y-101351501D01*
X141075842Y-101221575D01*
X141032217Y-101166998D01*
X141025023Y-101097500D01*
X141056546Y-101035145D01*
X141075842Y-101018425D01*
X141098026Y-101002891D01*
X141261401Y-100888495D01*
X141428495Y-100721401D01*
X141564035Y-100527830D01*
X141663903Y-100313663D01*
X141725063Y-100085408D01*
X141745659Y-99850000D01*
X141725063Y-99614592D01*
X141678626Y-99441285D01*
X141663905Y-99386344D01*
X141663904Y-99386343D01*
X141663903Y-99386337D01*
X141564035Y-99172171D01*
X141469905Y-99037738D01*
X141428494Y-98978597D01*
X141261402Y-98811506D01*
X141261396Y-98811501D01*
X141075842Y-98681575D01*
X141032217Y-98626998D01*
X141025023Y-98557500D01*
X141056546Y-98495145D01*
X141075842Y-98478425D01*
X141175975Y-98408311D01*
X141261401Y-98348495D01*
X141428495Y-98181401D01*
X141564035Y-97987830D01*
X141663903Y-97773663D01*
X141725063Y-97545408D01*
X141745659Y-97310000D01*
X141725063Y-97074592D01*
X141663903Y-96846337D01*
X141564035Y-96632171D01*
X141506165Y-96549523D01*
X141428494Y-96438597D01*
X141261402Y-96271506D01*
X141261396Y-96271501D01*
X141075842Y-96141575D01*
X141032217Y-96086998D01*
X141025023Y-96017500D01*
X141056546Y-95955145D01*
X141075842Y-95938425D01*
X141122771Y-95905565D01*
X141261401Y-95808495D01*
X141428495Y-95641401D01*
X141564035Y-95447830D01*
X141663903Y-95233663D01*
X141725063Y-95005408D01*
X141745659Y-94770000D01*
X141725063Y-94534592D01*
X141663903Y-94306337D01*
X141564035Y-94092171D01*
X141428495Y-93898599D01*
X141428494Y-93898597D01*
X141261402Y-93731506D01*
X141261396Y-93731501D01*
X141075842Y-93601575D01*
X141032217Y-93546998D01*
X141025023Y-93477500D01*
X141056546Y-93415145D01*
X141075842Y-93398425D01*
X141228989Y-93291190D01*
X141261401Y-93268495D01*
X141428495Y-93101401D01*
X141564035Y-92907830D01*
X141663903Y-92693663D01*
X141725063Y-92465408D01*
X141745659Y-92230000D01*
X141744423Y-92215878D01*
X141725063Y-91994596D01*
X141725063Y-91994592D01*
X141663903Y-91766337D01*
X141564035Y-91552171D01*
X141428495Y-91358599D01*
X141428494Y-91358597D01*
X141261402Y-91191506D01*
X141261396Y-91191501D01*
X141075842Y-91061575D01*
X141032217Y-91006998D01*
X141025023Y-90937500D01*
X141056546Y-90875145D01*
X141075842Y-90858425D01*
X141128345Y-90821662D01*
X141261401Y-90728495D01*
X141428495Y-90561401D01*
X141564035Y-90367830D01*
X141663903Y-90153663D01*
X141725063Y-89925408D01*
X141745659Y-89690000D01*
X141725063Y-89454592D01*
X141663903Y-89226337D01*
X141564035Y-89012171D01*
X141468032Y-88875063D01*
X141428494Y-88818597D01*
X141261402Y-88651506D01*
X141261396Y-88651501D01*
X141075842Y-88521575D01*
X141032217Y-88466998D01*
X141025023Y-88397500D01*
X141056546Y-88335145D01*
X141075842Y-88318425D01*
X141098026Y-88302891D01*
X141261401Y-88188495D01*
X141428495Y-88021401D01*
X141564035Y-87827830D01*
X141663903Y-87613663D01*
X141725063Y-87385408D01*
X141745659Y-87150000D01*
X141725063Y-86914592D01*
X141663903Y-86686337D01*
X141564035Y-86472171D01*
X141548612Y-86450145D01*
X141428496Y-86278600D01*
X141428495Y-86278599D01*
X141306567Y-86156671D01*
X141273084Y-86095351D01*
X141278068Y-86025659D01*
X141319939Y-85969725D01*
X141350915Y-85952810D01*
X141482331Y-85903796D01*
X141597546Y-85817546D01*
X141683796Y-85702331D01*
X141734091Y-85567483D01*
X141740500Y-85507873D01*
X141740499Y-83712128D01*
X141734091Y-83652517D01*
X141729702Y-83640750D01*
X141683797Y-83517671D01*
X141683793Y-83517664D01*
X141597547Y-83402455D01*
X141597544Y-83402452D01*
X141482335Y-83316206D01*
X141482328Y-83316202D01*
X141347482Y-83265908D01*
X141347483Y-83265908D01*
X141287883Y-83259501D01*
X141287881Y-83259500D01*
X141287873Y-83259500D01*
X141287864Y-83259500D01*
X139492129Y-83259500D01*
X139492123Y-83259501D01*
X139432516Y-83265908D01*
X139297671Y-83316202D01*
X139297664Y-83316206D01*
X139182455Y-83402452D01*
X139182452Y-83402455D01*
X139096206Y-83517664D01*
X139096202Y-83517671D01*
X139045908Y-83652517D01*
X139039501Y-83712116D01*
X139039501Y-83712123D01*
X139039500Y-83712135D01*
X139039500Y-85507870D01*
X139039501Y-85507876D01*
X139045908Y-85567483D01*
X139096202Y-85702328D01*
X139096206Y-85702335D01*
X139182452Y-85817544D01*
X139182455Y-85817547D01*
X139297664Y-85903793D01*
X139297671Y-85903797D01*
X139429081Y-85952810D01*
X139485015Y-85994681D01*
X139509432Y-86060145D01*
X139494580Y-86128418D01*
X139473430Y-86156673D01*
X139351503Y-86278600D01*
X139215965Y-86472169D01*
X139215964Y-86472171D01*
X139116098Y-86686335D01*
X139116094Y-86686344D01*
X139054938Y-86914586D01*
X139054936Y-86914596D01*
X139034341Y-87149999D01*
X139034341Y-87150000D01*
X139054936Y-87385403D01*
X139054938Y-87385413D01*
X139116094Y-87613655D01*
X139116096Y-87613659D01*
X139116097Y-87613663D01*
X139215965Y-87827830D01*
X139215967Y-87827834D01*
X139324281Y-87982521D01*
X139350394Y-88019815D01*
X139351501Y-88021395D01*
X139351506Y-88021402D01*
X139518597Y-88188493D01*
X139518603Y-88188498D01*
X139704158Y-88318425D01*
X139747783Y-88373002D01*
X139754977Y-88442500D01*
X139723454Y-88504855D01*
X139704158Y-88521575D01*
X139518597Y-88651505D01*
X139351505Y-88818597D01*
X139215965Y-89012169D01*
X139215964Y-89012171D01*
X139116098Y-89226335D01*
X139116094Y-89226344D01*
X139054938Y-89454586D01*
X139054936Y-89454596D01*
X139034341Y-89689999D01*
X139034341Y-89690000D01*
X139054936Y-89925403D01*
X139054938Y-89925413D01*
X139116094Y-90153655D01*
X139116096Y-90153659D01*
X139116097Y-90153663D01*
X139193380Y-90319396D01*
X139215965Y-90367830D01*
X139215967Y-90367834D01*
X139351501Y-90561395D01*
X139351506Y-90561402D01*
X139518597Y-90728493D01*
X139518603Y-90728498D01*
X139704158Y-90858425D01*
X139747783Y-90913002D01*
X139754977Y-90982500D01*
X139723454Y-91044855D01*
X139704158Y-91061575D01*
X139518597Y-91191505D01*
X139351505Y-91358597D01*
X139215965Y-91552169D01*
X139215964Y-91552171D01*
X139116098Y-91766335D01*
X139116094Y-91766344D01*
X139054938Y-91994586D01*
X139054936Y-91994596D01*
X139034341Y-92229999D01*
X139034341Y-92230000D01*
X139054936Y-92465403D01*
X139054938Y-92465413D01*
X139116094Y-92693655D01*
X139116096Y-92693659D01*
X139116097Y-92693663D01*
X139215965Y-92907830D01*
X139215967Y-92907834D01*
X139351501Y-93101395D01*
X139351506Y-93101402D01*
X139518597Y-93268493D01*
X139518603Y-93268498D01*
X139704158Y-93398425D01*
X139747783Y-93453002D01*
X139754977Y-93522500D01*
X139723454Y-93584855D01*
X139704158Y-93601575D01*
X139518597Y-93731505D01*
X139351505Y-93898597D01*
X139215965Y-94092169D01*
X139215964Y-94092171D01*
X139116098Y-94306335D01*
X139116094Y-94306344D01*
X139054938Y-94534586D01*
X139054936Y-94534596D01*
X139034341Y-94769999D01*
X139034341Y-94770000D01*
X139054936Y-95005403D01*
X139054938Y-95005413D01*
X139116094Y-95233655D01*
X139116096Y-95233659D01*
X139116097Y-95233663D01*
X139215965Y-95447830D01*
X139215967Y-95447834D01*
X139351501Y-95641395D01*
X139351506Y-95641402D01*
X139518597Y-95808493D01*
X139518603Y-95808498D01*
X139704158Y-95938425D01*
X139747783Y-95993002D01*
X139754977Y-96062500D01*
X139723454Y-96124855D01*
X139704158Y-96141575D01*
X139518600Y-96271503D01*
X139407314Y-96382789D01*
X139345991Y-96416273D01*
X139276299Y-96411289D01*
X139220366Y-96369417D01*
X139195949Y-96303953D01*
X139196412Y-96281228D01*
X139205565Y-96200000D01*
X139198982Y-96141575D01*
X139185369Y-96020750D01*
X139185368Y-96020745D01*
X139175660Y-95993002D01*
X139125789Y-95850478D01*
X139029816Y-95697738D01*
X138902262Y-95570184D01*
X138749523Y-95474211D01*
X138579254Y-95414631D01*
X138579249Y-95414630D01*
X138400004Y-95394435D01*
X138399996Y-95394435D01*
X138220750Y-95414630D01*
X138220745Y-95414631D01*
X138050476Y-95474211D01*
X137897737Y-95570184D01*
X137770184Y-95697737D01*
X137674211Y-95850476D01*
X137614631Y-96020745D01*
X137614630Y-96020750D01*
X137594435Y-96199996D01*
X137594435Y-96200003D01*
X122649424Y-96200003D01*
X122600004Y-96194435D01*
X122599996Y-96194435D01*
X122420750Y-96214630D01*
X122420745Y-96214631D01*
X122250476Y-96274211D01*
X122097737Y-96370184D01*
X121970184Y-96497737D01*
X121874211Y-96650476D01*
X121814631Y-96820745D01*
X121814630Y-96820750D01*
X121794435Y-96999996D01*
X121794435Y-97000003D01*
X118502300Y-97000003D01*
X118502300Y-95100003D01*
X121794435Y-95100003D01*
X121814630Y-95279249D01*
X121814631Y-95279254D01*
X121874211Y-95449523D01*
X121889724Y-95474211D01*
X121970184Y-95602262D01*
X122097738Y-95729816D01*
X122188080Y-95786582D01*
X122222959Y-95808498D01*
X122250478Y-95825789D01*
X122420745Y-95885368D01*
X122420750Y-95885369D01*
X122599996Y-95905565D01*
X122600000Y-95905565D01*
X122600004Y-95905565D01*
X122779249Y-95885369D01*
X122779252Y-95885368D01*
X122779255Y-95885368D01*
X122949522Y-95825789D01*
X123102262Y-95729816D01*
X123229816Y-95602262D01*
X123325789Y-95449522D01*
X123385368Y-95279255D01*
X123405565Y-95100000D01*
X123394907Y-95005408D01*
X123385369Y-94920750D01*
X123385368Y-94920745D01*
X123332620Y-94770000D01*
X123325789Y-94750478D01*
X123229816Y-94597738D01*
X123102262Y-94470184D01*
X122949523Y-94374211D01*
X122779254Y-94314631D01*
X122779249Y-94314630D01*
X122600004Y-94294435D01*
X122599996Y-94294435D01*
X122420750Y-94314630D01*
X122420745Y-94314631D01*
X122250476Y-94374211D01*
X122097737Y-94470184D01*
X121970184Y-94597737D01*
X121874211Y-94750476D01*
X121814631Y-94920745D01*
X121814630Y-94920750D01*
X121794435Y-95099996D01*
X121794435Y-95100003D01*
X118502300Y-95100003D01*
X118502300Y-92941670D01*
X125760486Y-92941670D01*
X125780681Y-93120916D01*
X125780682Y-93120921D01*
X125840262Y-93291190D01*
X125907643Y-93398425D01*
X125936235Y-93443929D01*
X126063789Y-93571483D01*
X126216529Y-93667456D01*
X126386796Y-93727035D01*
X126386801Y-93727036D01*
X126566047Y-93747232D01*
X126566051Y-93747232D01*
X126566055Y-93747232D01*
X126745300Y-93727036D01*
X126745303Y-93727035D01*
X126745306Y-93727035D01*
X126915573Y-93667456D01*
X127068313Y-93571483D01*
X127195867Y-93443929D01*
X127291840Y-93291189D01*
X127351419Y-93120922D01*
X127351420Y-93120916D01*
X127371616Y-92941670D01*
X127371616Y-92941663D01*
X127351420Y-92762417D01*
X127351419Y-92762412D01*
X127291839Y-92592143D01*
X127212206Y-92465408D01*
X127202526Y-92450003D01*
X136294435Y-92450003D01*
X136314630Y-92629249D01*
X136314631Y-92629254D01*
X136374211Y-92799523D01*
X136442265Y-92907830D01*
X136470184Y-92952262D01*
X136597738Y-93079816D01*
X136750478Y-93175789D01*
X136920745Y-93235368D01*
X136920750Y-93235369D01*
X137099996Y-93255565D01*
X137100000Y-93255565D01*
X137100004Y-93255565D01*
X137279249Y-93235369D01*
X137279252Y-93235368D01*
X137279255Y-93235368D01*
X137449522Y-93175789D01*
X137602262Y-93079816D01*
X137729816Y-92952262D01*
X137825789Y-92799522D01*
X137885368Y-92629255D01*
X137885369Y-92629249D01*
X137905565Y-92450003D01*
X137905565Y-92449996D01*
X137885369Y-92270750D01*
X137885368Y-92270745D01*
X137866169Y-92215878D01*
X137825789Y-92100478D01*
X137729816Y-91947738D01*
X137602262Y-91820184D01*
X137449523Y-91724211D01*
X137279254Y-91664631D01*
X137279249Y-91664630D01*
X137100004Y-91644435D01*
X137099996Y-91644435D01*
X136920750Y-91664630D01*
X136920745Y-91664631D01*
X136750476Y-91724211D01*
X136597737Y-91820184D01*
X136470184Y-91947737D01*
X136374211Y-92100476D01*
X136314631Y-92270745D01*
X136314630Y-92270750D01*
X136294435Y-92449996D01*
X136294435Y-92450003D01*
X127202526Y-92450003D01*
X127195867Y-92439405D01*
X127068313Y-92311851D01*
X126915574Y-92215878D01*
X126745305Y-92156298D01*
X126745300Y-92156297D01*
X126566055Y-92136102D01*
X126566047Y-92136102D01*
X126386801Y-92156297D01*
X126386796Y-92156298D01*
X126216527Y-92215878D01*
X126063788Y-92311851D01*
X125936235Y-92439404D01*
X125840262Y-92592143D01*
X125780682Y-92762412D01*
X125780681Y-92762417D01*
X125760486Y-92941663D01*
X125760486Y-92941670D01*
X118502300Y-92941670D01*
X118502300Y-90319403D01*
X134251635Y-90319403D01*
X134271830Y-90498649D01*
X134271831Y-90498654D01*
X134331411Y-90668923D01*
X134368842Y-90728493D01*
X134427384Y-90821662D01*
X134554938Y-90949216D01*
X134707678Y-91045189D01*
X134877945Y-91104768D01*
X134877950Y-91104769D01*
X135057196Y-91124965D01*
X135057200Y-91124965D01*
X135057204Y-91124965D01*
X135236449Y-91104769D01*
X135236452Y-91104768D01*
X135236455Y-91104768D01*
X135406722Y-91045189D01*
X135559462Y-90949216D01*
X135687016Y-90821662D01*
X135782989Y-90668922D01*
X135842568Y-90498655D01*
X135857308Y-90367834D01*
X135862765Y-90319403D01*
X135862765Y-90319396D01*
X135842569Y-90140150D01*
X135842568Y-90140145D01*
X135782988Y-89969876D01*
X135687015Y-89817137D01*
X135559462Y-89689584D01*
X135406723Y-89593611D01*
X135236454Y-89534031D01*
X135236449Y-89534030D01*
X135057204Y-89513835D01*
X135057196Y-89513835D01*
X134877950Y-89534030D01*
X134877945Y-89534031D01*
X134707676Y-89593611D01*
X134554937Y-89689584D01*
X134427384Y-89817137D01*
X134331411Y-89969876D01*
X134271831Y-90140145D01*
X134271830Y-90140150D01*
X134251635Y-90319396D01*
X134251635Y-90319403D01*
X118502300Y-90319403D01*
X118502300Y-87390003D01*
X126694435Y-87390003D01*
X126714630Y-87569249D01*
X126714631Y-87569254D01*
X126774211Y-87739523D01*
X126829701Y-87827834D01*
X126870184Y-87892262D01*
X126997738Y-88019816D01*
X127150478Y-88115789D01*
X127320745Y-88175368D01*
X127320750Y-88175369D01*
X127499996Y-88195565D01*
X127500000Y-88195565D01*
X127500004Y-88195565D01*
X127679249Y-88175369D01*
X127679252Y-88175368D01*
X127679255Y-88175368D01*
X127849522Y-88115789D01*
X128002262Y-88019816D01*
X128129816Y-87892262D01*
X128225789Y-87739522D01*
X128285368Y-87569255D01*
X128285369Y-87569249D01*
X128288665Y-87540000D01*
X134044341Y-87540000D01*
X134064936Y-87775403D01*
X134064938Y-87775413D01*
X134126094Y-88003655D01*
X134126096Y-88003659D01*
X134126097Y-88003663D01*
X134206165Y-88175368D01*
X134225965Y-88217830D01*
X134225967Y-88217834D01*
X134308110Y-88335145D01*
X134361505Y-88411401D01*
X134528599Y-88578495D01*
X134625384Y-88646265D01*
X134722165Y-88714032D01*
X134722167Y-88714033D01*
X134722170Y-88714035D01*
X134936337Y-88813903D01*
X135164592Y-88875063D01*
X135352918Y-88891539D01*
X135399999Y-88895659D01*
X135400000Y-88895659D01*
X135400001Y-88895659D01*
X135439234Y-88892226D01*
X135635408Y-88875063D01*
X135863663Y-88813903D01*
X136077830Y-88714035D01*
X136271401Y-88578495D01*
X136438495Y-88411401D01*
X136574035Y-88217830D01*
X136673903Y-88003663D01*
X136735063Y-87775408D01*
X136755659Y-87540000D01*
X136735063Y-87304592D01*
X136673903Y-87076337D01*
X136574035Y-86862171D01*
X136502623Y-86760184D01*
X136438496Y-86668600D01*
X136434107Y-86664211D01*
X136316567Y-86546671D01*
X136283084Y-86485351D01*
X136288068Y-86415659D01*
X136329939Y-86359725D01*
X136360915Y-86342810D01*
X136492331Y-86293796D01*
X136607546Y-86207546D01*
X136693796Y-86092331D01*
X136744091Y-85957483D01*
X136750500Y-85897873D01*
X136750499Y-84102128D01*
X136744091Y-84042517D01*
X136727955Y-83999255D01*
X136693797Y-83907671D01*
X136693793Y-83907664D01*
X136607547Y-83792455D01*
X136607544Y-83792452D01*
X136492335Y-83706206D01*
X136492328Y-83706202D01*
X136357482Y-83655908D01*
X136357483Y-83655908D01*
X136297883Y-83649501D01*
X136297881Y-83649500D01*
X136297873Y-83649500D01*
X136297864Y-83649500D01*
X134502129Y-83649500D01*
X134502123Y-83649501D01*
X134442516Y-83655908D01*
X134307671Y-83706202D01*
X134307664Y-83706206D01*
X134192455Y-83792452D01*
X134192452Y-83792455D01*
X134106206Y-83907664D01*
X134106202Y-83907671D01*
X134055908Y-84042517D01*
X134049501Y-84102116D01*
X134049501Y-84102123D01*
X134049500Y-84102135D01*
X134049500Y-85897870D01*
X134049501Y-85897876D01*
X134055908Y-85957483D01*
X134106202Y-86092328D01*
X134106206Y-86092335D01*
X134192452Y-86207544D01*
X134192455Y-86207547D01*
X134307664Y-86293793D01*
X134307671Y-86293797D01*
X134439081Y-86342810D01*
X134495015Y-86384681D01*
X134519432Y-86450145D01*
X134504580Y-86518418D01*
X134483430Y-86546673D01*
X134361503Y-86668600D01*
X134225965Y-86862169D01*
X134225964Y-86862171D01*
X134126098Y-87076335D01*
X134126094Y-87076344D01*
X134064938Y-87304586D01*
X134064936Y-87304596D01*
X134044341Y-87539999D01*
X134044341Y-87540000D01*
X128288665Y-87540000D01*
X128305565Y-87390003D01*
X128305565Y-87389996D01*
X128285369Y-87210750D01*
X128285368Y-87210745D01*
X128238339Y-87076344D01*
X128225789Y-87040478D01*
X128129816Y-86887738D01*
X128002262Y-86760184D01*
X127849523Y-86664211D01*
X127679254Y-86604631D01*
X127679249Y-86604630D01*
X127500004Y-86584435D01*
X127499996Y-86584435D01*
X127320750Y-86604630D01*
X127320745Y-86604631D01*
X127150476Y-86664211D01*
X126997737Y-86760184D01*
X126870184Y-86887737D01*
X126774211Y-87040476D01*
X126714631Y-87210745D01*
X126714630Y-87210750D01*
X126694435Y-87389996D01*
X126694435Y-87390003D01*
X118502300Y-87390003D01*
X118502300Y-83820003D01*
X127554435Y-83820003D01*
X127574630Y-83999249D01*
X127574631Y-83999254D01*
X127634211Y-84169523D01*
X127730184Y-84322262D01*
X127857738Y-84449816D01*
X128010478Y-84545789D01*
X128180745Y-84605368D01*
X128180750Y-84605369D01*
X128359996Y-84625565D01*
X128360000Y-84625565D01*
X128360004Y-84625565D01*
X128539249Y-84605369D01*
X128539252Y-84605368D01*
X128539255Y-84605368D01*
X128709522Y-84545789D01*
X128862262Y-84449816D01*
X128989816Y-84322262D01*
X129085789Y-84169522D01*
X129145368Y-83999255D01*
X129165565Y-83820000D01*
X129162461Y-83792455D01*
X129145369Y-83640750D01*
X129145368Y-83640745D01*
X129085789Y-83470478D01*
X128989816Y-83317738D01*
X128862262Y-83190184D01*
X128709523Y-83094211D01*
X128539254Y-83034631D01*
X128539249Y-83034630D01*
X128360004Y-83014435D01*
X128359996Y-83014435D01*
X128180750Y-83034630D01*
X128180745Y-83034631D01*
X128010476Y-83094211D01*
X127857737Y-83190184D01*
X127730184Y-83317737D01*
X127634211Y-83470476D01*
X127574631Y-83640745D01*
X127574630Y-83640750D01*
X127554435Y-83819996D01*
X127554435Y-83820003D01*
X118502300Y-83820003D01*
X118502300Y-81267102D01*
X125407677Y-81267102D01*
X125426929Y-81487162D01*
X125426930Y-81487170D01*
X125484104Y-81700545D01*
X125484105Y-81700547D01*
X125484106Y-81700550D01*
X125512929Y-81762361D01*
X125577466Y-81900762D01*
X125577468Y-81900766D01*
X125704170Y-82081715D01*
X125704175Y-82081721D01*
X125860378Y-82237924D01*
X125860384Y-82237929D01*
X126041333Y-82364631D01*
X126041335Y-82364632D01*
X126041338Y-82364634D01*
X126241550Y-82457994D01*
X126454932Y-82515170D01*
X126612123Y-82528922D01*
X126674998Y-82534423D01*
X126675000Y-82534423D01*
X126675002Y-82534423D01*
X126730151Y-82529598D01*
X126895068Y-82515170D01*
X127108450Y-82457994D01*
X127308662Y-82364634D01*
X127489620Y-82237926D01*
X127645826Y-82081720D01*
X127772534Y-81900762D01*
X127812618Y-81814800D01*
X127858790Y-81762361D01*
X127925983Y-81743209D01*
X127992864Y-81763424D01*
X128037382Y-81814801D01*
X128077464Y-81900758D01*
X128077468Y-81900766D01*
X128204170Y-82081715D01*
X128204175Y-82081721D01*
X128360378Y-82237924D01*
X128360384Y-82237929D01*
X128541333Y-82364631D01*
X128541335Y-82364632D01*
X128541338Y-82364634D01*
X128741550Y-82457994D01*
X128954932Y-82515170D01*
X129112123Y-82528922D01*
X129174998Y-82534423D01*
X129175000Y-82534423D01*
X129175002Y-82534423D01*
X129230151Y-82529598D01*
X129395068Y-82515170D01*
X129608450Y-82457994D01*
X129808662Y-82364634D01*
X129989620Y-82237926D01*
X130087319Y-82140227D01*
X130148642Y-82106742D01*
X130218334Y-82111726D01*
X130262681Y-82140227D01*
X130360378Y-82237924D01*
X130360384Y-82237929D01*
X130541333Y-82364631D01*
X130541335Y-82364632D01*
X130541338Y-82364634D01*
X130741550Y-82457994D01*
X130954932Y-82515170D01*
X131112123Y-82528922D01*
X131174998Y-82534423D01*
X131175000Y-82534423D01*
X131175002Y-82534423D01*
X131230151Y-82529598D01*
X131395068Y-82515170D01*
X131608450Y-82457994D01*
X131808662Y-82364634D01*
X131989620Y-82237926D01*
X132145826Y-82081720D01*
X132187907Y-82021620D01*
X132242481Y-81977997D01*
X132311980Y-81970803D01*
X132374335Y-82002325D01*
X132409749Y-82062554D01*
X132412771Y-82079490D01*
X132418909Y-82136583D01*
X132469202Y-82271428D01*
X132469206Y-82271435D01*
X132555452Y-82386644D01*
X132555455Y-82386647D01*
X132670664Y-82472893D01*
X132670671Y-82472897D01*
X132805517Y-82523191D01*
X132805516Y-82523191D01*
X132812444Y-82523935D01*
X132865127Y-82529600D01*
X134484872Y-82529599D01*
X134544483Y-82523191D01*
X134679331Y-82472896D01*
X134794546Y-82386646D01*
X134880796Y-82271431D01*
X134931091Y-82136583D01*
X134937500Y-82076973D01*
X134937499Y-80457228D01*
X134931091Y-80397617D01*
X134911978Y-80346373D01*
X134880797Y-80262771D01*
X134880793Y-80262764D01*
X134794547Y-80147555D01*
X134794544Y-80147552D01*
X134679335Y-80061306D01*
X134679328Y-80061302D01*
X134544482Y-80011008D01*
X134544483Y-80011008D01*
X134484883Y-80004601D01*
X134484881Y-80004600D01*
X134484873Y-80004600D01*
X134484864Y-80004600D01*
X132865129Y-80004600D01*
X132865123Y-80004601D01*
X132805516Y-80011008D01*
X132670671Y-80061302D01*
X132670664Y-80061306D01*
X132555455Y-80147552D01*
X132555452Y-80147555D01*
X132469206Y-80262764D01*
X132469202Y-80262771D01*
X132418908Y-80397616D01*
X132412770Y-80454710D01*
X132386032Y-80519261D01*
X132328639Y-80559109D01*
X132258814Y-80561602D01*
X132198725Y-80525949D01*
X132187906Y-80512577D01*
X132186293Y-80510274D01*
X132175000Y-80494145D01*
X132145827Y-80452481D01*
X132087318Y-80393972D01*
X131989620Y-80296274D01*
X131989616Y-80296271D01*
X131989615Y-80296270D01*
X131808666Y-80169568D01*
X131808662Y-80169566D01*
X131761457Y-80147554D01*
X131608450Y-80076206D01*
X131608447Y-80076205D01*
X131608445Y-80076204D01*
X131395070Y-80019030D01*
X131395062Y-80019029D01*
X131175002Y-79999777D01*
X131174998Y-79999777D01*
X130954937Y-80019029D01*
X130954929Y-80019030D01*
X130741554Y-80076204D01*
X130741548Y-80076207D01*
X130541340Y-80169565D01*
X130541338Y-80169566D01*
X130360381Y-80296272D01*
X130262680Y-80393973D01*
X130201356Y-80427457D01*
X130131665Y-80422473D01*
X130087318Y-80393972D01*
X129989621Y-80296275D01*
X129989615Y-80296270D01*
X129808666Y-80169568D01*
X129808662Y-80169566D01*
X129761457Y-80147554D01*
X129608450Y-80076206D01*
X129608447Y-80076205D01*
X129608445Y-80076204D01*
X129395070Y-80019030D01*
X129395062Y-80019029D01*
X129175002Y-79999777D01*
X129174998Y-79999777D01*
X128954937Y-80019029D01*
X128954929Y-80019030D01*
X128741554Y-80076204D01*
X128741548Y-80076207D01*
X128541340Y-80169565D01*
X128541338Y-80169566D01*
X128360377Y-80296275D01*
X128204175Y-80452477D01*
X128077466Y-80633438D01*
X128077465Y-80633440D01*
X128037382Y-80719399D01*
X127991209Y-80771838D01*
X127924016Y-80790990D01*
X127857135Y-80770774D01*
X127812618Y-80719399D01*
X127772534Y-80633440D01*
X127772533Y-80633438D01*
X127722233Y-80561602D01*
X127675000Y-80494145D01*
X127645827Y-80452481D01*
X127587318Y-80393972D01*
X127489620Y-80296274D01*
X127489616Y-80296271D01*
X127489615Y-80296270D01*
X127308666Y-80169568D01*
X127308662Y-80169566D01*
X127261457Y-80147554D01*
X127108450Y-80076206D01*
X127108447Y-80076205D01*
X127108445Y-80076204D01*
X126895070Y-80019030D01*
X126895062Y-80019029D01*
X126675002Y-79999777D01*
X126674998Y-79999777D01*
X126454937Y-80019029D01*
X126454929Y-80019030D01*
X126241554Y-80076204D01*
X126241548Y-80076207D01*
X126041340Y-80169565D01*
X126041338Y-80169566D01*
X125860377Y-80296275D01*
X125704175Y-80452477D01*
X125577466Y-80633438D01*
X125577465Y-80633440D01*
X125484107Y-80833648D01*
X125484104Y-80833654D01*
X125426930Y-81047029D01*
X125426929Y-81047037D01*
X125407677Y-81267097D01*
X125407677Y-81267102D01*
X118502300Y-81267102D01*
X118502300Y-79250003D01*
X118994435Y-79250003D01*
X119014630Y-79429249D01*
X119014631Y-79429254D01*
X119074211Y-79599523D01*
X119127773Y-79684765D01*
X119170184Y-79752262D01*
X119297738Y-79879816D01*
X119450478Y-79975789D01*
X119532818Y-80004601D01*
X119620745Y-80035368D01*
X119620750Y-80035369D01*
X119799996Y-80055565D01*
X119800000Y-80055565D01*
X119800004Y-80055565D01*
X119979249Y-80035369D01*
X119979252Y-80035368D01*
X119979255Y-80035368D01*
X120149522Y-79975789D01*
X120302262Y-79879816D01*
X120429816Y-79752262D01*
X120525789Y-79599522D01*
X120585368Y-79429255D01*
X120585369Y-79429249D01*
X120605565Y-79250003D01*
X120605565Y-79249996D01*
X120585369Y-79070750D01*
X120585368Y-79070745D01*
X120525788Y-78900476D01*
X120429815Y-78747737D01*
X120302262Y-78620184D01*
X120201876Y-78557107D01*
X121349671Y-78557107D01*
X121368964Y-78851463D01*
X121368965Y-78851473D01*
X121368966Y-78851480D01*
X121368968Y-78851490D01*
X121426518Y-79140816D01*
X121426521Y-79140830D01*
X121521349Y-79420180D01*
X121651825Y-79684760D01*
X121651829Y-79684767D01*
X121815725Y-79930055D01*
X122010241Y-80151858D01*
X122232044Y-80346374D01*
X122453199Y-80494145D01*
X122477335Y-80510272D01*
X122741923Y-80640752D01*
X123021278Y-80735581D01*
X123310620Y-80793134D01*
X123338888Y-80794986D01*
X123604993Y-80812429D01*
X123605000Y-80812429D01*
X123605007Y-80812429D01*
X123840675Y-80796981D01*
X123899380Y-80793134D01*
X124188722Y-80735581D01*
X124468077Y-80640752D01*
X124732665Y-80510272D01*
X124977957Y-80346373D01*
X125199758Y-80151858D01*
X125394273Y-79930057D01*
X125558172Y-79684765D01*
X125688652Y-79420177D01*
X125783481Y-79140822D01*
X125841034Y-78851480D01*
X125847834Y-78747737D01*
X125860329Y-78557107D01*
X125860329Y-78557092D01*
X125841035Y-78262736D01*
X125841034Y-78262720D01*
X125783481Y-77973378D01*
X125714444Y-77770003D01*
X128914435Y-77770003D01*
X128934630Y-77949249D01*
X128934631Y-77949254D01*
X128994211Y-78119523D01*
X129084181Y-78262709D01*
X129090184Y-78272262D01*
X129217738Y-78399816D01*
X129370478Y-78495789D01*
X129540745Y-78555368D01*
X129540750Y-78555369D01*
X129719996Y-78575565D01*
X129720000Y-78575565D01*
X129720004Y-78575565D01*
X129883824Y-78557107D01*
X134489671Y-78557107D01*
X134508964Y-78851463D01*
X134508965Y-78851473D01*
X134508966Y-78851480D01*
X134508968Y-78851490D01*
X134566518Y-79140816D01*
X134566521Y-79140830D01*
X134661349Y-79420180D01*
X134791825Y-79684760D01*
X134791829Y-79684767D01*
X134955725Y-79930055D01*
X135150241Y-80151858D01*
X135372044Y-80346374D01*
X135593199Y-80494145D01*
X135617335Y-80510272D01*
X135881923Y-80640752D01*
X136161278Y-80735581D01*
X136450620Y-80793134D01*
X136478888Y-80794986D01*
X136744993Y-80812429D01*
X136745000Y-80812429D01*
X136745007Y-80812429D01*
X136980675Y-80796981D01*
X137039380Y-80793134D01*
X137328722Y-80735581D01*
X137608077Y-80640752D01*
X137872665Y-80510272D01*
X138117957Y-80346373D01*
X138339758Y-80151858D01*
X138534273Y-79930057D01*
X138698172Y-79684765D01*
X138828652Y-79420177D01*
X138923481Y-79140822D01*
X138981034Y-78851480D01*
X138987834Y-78747737D01*
X139000329Y-78557107D01*
X139000329Y-78557092D01*
X138981035Y-78262736D01*
X138981034Y-78262720D01*
X138923481Y-77973378D01*
X138828652Y-77694023D01*
X138698172Y-77429436D01*
X138692186Y-77420478D01*
X138590129Y-77267738D01*
X138534273Y-77184143D01*
X138491655Y-77135547D01*
X138339758Y-76962341D01*
X138117955Y-76767825D01*
X137872667Y-76603929D01*
X137872660Y-76603925D01*
X137608080Y-76473449D01*
X137328730Y-76378621D01*
X137328724Y-76378619D01*
X137328722Y-76378619D01*
X137039380Y-76321066D01*
X137039373Y-76321065D01*
X137039363Y-76321064D01*
X136745007Y-76301771D01*
X136744993Y-76301771D01*
X136450636Y-76321064D01*
X136450624Y-76321065D01*
X136450620Y-76321066D01*
X136450612Y-76321067D01*
X136450609Y-76321068D01*
X136161283Y-76378618D01*
X136161269Y-76378621D01*
X135881919Y-76473449D01*
X135617334Y-76603928D01*
X135372041Y-76767828D01*
X135150241Y-76962341D01*
X134955728Y-77184141D01*
X134791828Y-77429434D01*
X134661349Y-77694019D01*
X134566521Y-77973369D01*
X134566518Y-77973383D01*
X134508968Y-78262709D01*
X134508964Y-78262736D01*
X134489671Y-78557092D01*
X134489671Y-78557107D01*
X129883824Y-78557107D01*
X129899249Y-78555369D01*
X129899252Y-78555368D01*
X129899255Y-78555368D01*
X130069522Y-78495789D01*
X130222262Y-78399816D01*
X130349816Y-78272262D01*
X130445789Y-78119522D01*
X130505368Y-77949255D01*
X130525565Y-77770000D01*
X130517004Y-77694019D01*
X130505369Y-77590750D01*
X130505368Y-77590745D01*
X130445789Y-77420478D01*
X130349816Y-77267738D01*
X130222262Y-77140184D01*
X130069523Y-77044211D01*
X129899254Y-76984631D01*
X129899249Y-76984630D01*
X129720004Y-76964435D01*
X129719996Y-76964435D01*
X129540750Y-76984630D01*
X129540745Y-76984631D01*
X129370476Y-77044211D01*
X129217737Y-77140184D01*
X129090184Y-77267737D01*
X128994211Y-77420476D01*
X128934631Y-77590745D01*
X128934630Y-77590750D01*
X128914435Y-77769996D01*
X128914435Y-77770003D01*
X125714444Y-77770003D01*
X125688652Y-77694023D01*
X125558172Y-77429436D01*
X125552186Y-77420478D01*
X125450129Y-77267738D01*
X125394273Y-77184143D01*
X125351655Y-77135547D01*
X125199758Y-76962341D01*
X124977955Y-76767825D01*
X124732667Y-76603929D01*
X124732660Y-76603925D01*
X124468080Y-76473449D01*
X124188730Y-76378621D01*
X124188724Y-76378619D01*
X124188722Y-76378619D01*
X123899380Y-76321066D01*
X123899373Y-76321065D01*
X123899363Y-76321064D01*
X123605007Y-76301771D01*
X123604993Y-76301771D01*
X123310636Y-76321064D01*
X123310624Y-76321065D01*
X123310620Y-76321066D01*
X123310612Y-76321067D01*
X123310609Y-76321068D01*
X123021283Y-76378618D01*
X123021269Y-76378621D01*
X122741919Y-76473449D01*
X122477334Y-76603928D01*
X122232041Y-76767828D01*
X122010241Y-76962341D01*
X121815728Y-77184141D01*
X121651828Y-77429434D01*
X121521349Y-77694019D01*
X121426521Y-77973369D01*
X121426518Y-77973383D01*
X121368968Y-78262709D01*
X121368964Y-78262736D01*
X121349671Y-78557092D01*
X121349671Y-78557107D01*
X120201876Y-78557107D01*
X120149523Y-78524211D01*
X119979254Y-78464631D01*
X119979249Y-78464630D01*
X119800004Y-78444435D01*
X119799996Y-78444435D01*
X119620750Y-78464630D01*
X119620745Y-78464631D01*
X119450476Y-78524211D01*
X119297737Y-78620184D01*
X119170184Y-78747737D01*
X119074211Y-78900476D01*
X119014631Y-79070745D01*
X119014630Y-79070750D01*
X118994435Y-79249996D01*
X118994435Y-79250003D01*
X118502300Y-79250003D01*
X118502300Y-75469900D01*
X118521985Y-75402861D01*
X118574789Y-75357106D01*
X118626300Y-75345900D01*
X142293700Y-75345900D01*
X142360739Y-75365585D01*
G37*
%TD.AperFunction*%
%TD*%
M02*
