%TF.GenerationSoftware,KiCad,Pcbnew,7.0.9*%
%TF.CreationDate,2024-08-25T17:31:10+01:00*%
%TF.ProjectId,RISKYKVM,5249534b-594b-4564-9d2e-6b696361645f,rev?*%
%TF.SameCoordinates,Original*%
%TF.FileFunction,Copper,L4,Bot*%
%TF.FilePolarity,Positive*%
%FSLAX46Y46*%
G04 Gerber Fmt 4.6, Leading zero omitted, Abs format (unit mm)*
G04 Created by KiCad (PCBNEW 7.0.9) date 2024-08-25 17:31:11*
%MOMM*%
%LPD*%
G01*
G04 APERTURE LIST*
G04 Aperture macros list*
%AMRoundRect*
0 Rectangle with rounded corners*
0 $1 Rounding radius*
0 $2 $3 $4 $5 $6 $7 $8 $9 X,Y pos of 4 corners*
0 Add a 4 corners polygon primitive as box body*
4,1,4,$2,$3,$4,$5,$6,$7,$8,$9,$2,$3,0*
0 Add four circle primitives for the rounded corners*
1,1,$1+$1,$2,$3*
1,1,$1+$1,$4,$5*
1,1,$1+$1,$6,$7*
1,1,$1+$1,$8,$9*
0 Add four rect primitives between the rounded corners*
20,1,$1+$1,$2,$3,$4,$5,0*
20,1,$1+$1,$4,$5,$6,$7,0*
20,1,$1+$1,$6,$7,$8,$9,0*
20,1,$1+$1,$8,$9,$2,$3,0*%
G04 Aperture macros list end*
%TA.AperFunction,ComponentPad*%
%ADD10R,1.700000X1.700000*%
%TD*%
%TA.AperFunction,ComponentPad*%
%ADD11O,1.700000X1.700000*%
%TD*%
%TA.AperFunction,ComponentPad*%
%ADD12R,1.524000X1.524000*%
%TD*%
%TA.AperFunction,ComponentPad*%
%ADD13C,1.524000*%
%TD*%
%TA.AperFunction,ComponentPad*%
%ADD14C,3.500000*%
%TD*%
%TA.AperFunction,SMDPad,CuDef*%
%ADD15R,1.846667X3.480000*%
%TD*%
%TA.AperFunction,SMDPad,CuDef*%
%ADD16RoundRect,0.237500X-0.250000X-0.237500X0.250000X-0.237500X0.250000X0.237500X-0.250000X0.237500X0*%
%TD*%
%TA.AperFunction,SMDPad,CuDef*%
%ADD17RoundRect,0.237500X-0.300000X-0.237500X0.300000X-0.237500X0.300000X0.237500X-0.300000X0.237500X0*%
%TD*%
%TA.AperFunction,SMDPad,CuDef*%
%ADD18RoundRect,0.237500X0.237500X-0.250000X0.237500X0.250000X-0.237500X0.250000X-0.237500X-0.250000X0*%
%TD*%
%TA.AperFunction,SMDPad,CuDef*%
%ADD19RoundRect,0.237500X-0.237500X0.300000X-0.237500X-0.300000X0.237500X-0.300000X0.237500X0.300000X0*%
%TD*%
%TA.AperFunction,SMDPad,CuDef*%
%ADD20RoundRect,0.237500X0.300000X0.237500X-0.300000X0.237500X-0.300000X-0.237500X0.300000X-0.237500X0*%
%TD*%
%TA.AperFunction,ViaPad*%
%ADD21C,0.600000*%
%TD*%
%TA.AperFunction,Conductor*%
%ADD22C,0.127000*%
%TD*%
%TA.AperFunction,Conductor*%
%ADD23C,0.200000*%
%TD*%
%TA.AperFunction,Conductor*%
%ADD24C,0.600000*%
%TD*%
G04 APERTURE END LIST*
D10*
%TO.P,J4,1,Pin_1*%
%TO.N,/KB_CLK*%
X140390000Y-84610000D03*
D11*
%TO.P,J4,2,Pin_2*%
%TO.N,/KB_DATA*%
X140390000Y-87150000D03*
%TO.P,J4,3,Pin_3*%
%TO.N,/KB_RESET*%
X140390000Y-89690000D03*
%TO.P,J4,4,Pin_4*%
%TO.N,+5V*%
X140390000Y-92230000D03*
%TO.P,J4,5,Pin_5*%
%TO.N,GND*%
X140390000Y-94770000D03*
%TO.P,J4,6,Pin_6*%
%TO.N,unconnected-(J4-Pin_6-Pad6)*%
X140390000Y-97310000D03*
%TO.P,J4,7,Pin_7*%
%TO.N,unconnected-(J4-Pin_7-Pad7)*%
X140390000Y-99850000D03*
%TO.P,J4,8,Pin_8*%
%TO.N,unconnected-(J4-Pin_8-Pad8)*%
X140390000Y-102390000D03*
%TD*%
D12*
%TO.P,J3,1,VBUS*%
%TO.N,Net-(J3-VBUS)*%
X133675000Y-81267100D03*
D13*
%TO.P,J3,2,D-*%
%TO.N,/USB_DM*%
X131175000Y-81267100D03*
%TO.P,J3,3,D+*%
%TO.N,/USB_DP*%
X129175000Y-81267100D03*
%TO.P,J3,4,GND*%
%TO.N,GND*%
X126675000Y-81267100D03*
D14*
%TO.P,J3,5,Shield*%
X136745000Y-78557100D03*
X123605000Y-78557100D03*
%TD*%
D15*
%TO.P,J1,9,9*%
%TO.N,/PIN9*%
X126145000Y-108037500D03*
%TO.P,J1,8,8*%
%TO.N,GND*%
X128915000Y-108037500D03*
%TO.P,J1,7,7*%
%TO.N,+5V*%
X131685000Y-108037500D03*
%TO.P,J1,6,6*%
%TO.N,/PIN6*%
X134455000Y-108037500D03*
%TD*%
D10*
%TO.P,J2,1,Pin_1*%
%TO.N,/SWCLK*%
X135400000Y-85000000D03*
D11*
%TO.P,J2,2,Pin_2*%
%TO.N,/SWDIO*%
X135400000Y-87540000D03*
%TD*%
D16*
%TO.P,R1,1*%
%TO.N,Net-(D1-A)*%
X120080000Y-104720000D03*
%TO.P,R1,2*%
%TO.N,+3.3V*%
X121905000Y-104720000D03*
%TD*%
D17*
%TO.P,C2,1*%
%TO.N,+3.3V*%
X127209700Y-90294000D03*
%TO.P,C2,2*%
%TO.N,GND*%
X128934700Y-90294000D03*
%TD*%
D18*
%TO.P,R3,1*%
%TO.N,Net-(D2-A)*%
X119775000Y-79162500D03*
%TO.P,R3,2*%
%TO.N,+3.3V*%
X119775000Y-77337500D03*
%TD*%
D19*
%TO.P,C4,1*%
%TO.N,+5V*%
X120990000Y-99265000D03*
%TO.P,C4,2*%
%TO.N,GND*%
X120990000Y-100990000D03*
%TD*%
D20*
%TO.P,C1,1*%
%TO.N,+3.3V*%
X124308400Y-96981500D03*
%TO.P,C1,2*%
%TO.N,GND*%
X122583400Y-96981500D03*
%TD*%
%TO.P,C6,1*%
%TO.N,+3.3V*%
X132439900Y-94891400D03*
%TO.P,C6,2*%
%TO.N,GND*%
X130714900Y-94891400D03*
%TD*%
D19*
%TO.P,C3,1*%
%TO.N,+3.3V*%
X132136200Y-90345900D03*
%TO.P,C3,2*%
%TO.N,GND*%
X132136200Y-92070900D03*
%TD*%
%TO.P,C5,1*%
%TO.N,+3.3V*%
X127513400Y-95248100D03*
%TO.P,C5,2*%
%TO.N,GND*%
X127513400Y-96973100D03*
%TD*%
D18*
%TO.P,R2,1*%
%TO.N,+3.3V*%
X127437200Y-93670300D03*
%TO.P,R2,2*%
%TO.N,/NRST*%
X127437200Y-91845300D03*
%TD*%
D19*
%TO.P,C9,1*%
%TO.N,/NRST*%
X128910400Y-91895300D03*
%TO.P,C9,2*%
%TO.N,GND*%
X128910400Y-93620300D03*
%TD*%
D21*
%TO.N,GND*%
X130700000Y-94900000D03*
%TO.N,+3.3V*%
X122630000Y-98740000D03*
X132085400Y-90319400D03*
X119775000Y-77375000D03*
X132466400Y-95831200D03*
X121925000Y-104650000D03*
X127107000Y-90344800D03*
X126530218Y-93916221D03*
%TO.N,GND*%
X137100000Y-92450000D03*
X128900000Y-108100000D03*
X138400000Y-96200000D03*
X131980000Y-98100000D03*
X124077800Y-98676900D03*
X122600000Y-95100000D03*
X129720000Y-77770000D03*
X128010000Y-99540000D03*
X122600000Y-97000000D03*
%TO.N,+5V*%
X121131400Y-99134100D03*
X128360000Y-83820000D03*
%TO.N,/NRST*%
X126566051Y-92941667D03*
%TO.N,/PIN6*%
X134455000Y-107797500D03*
%TO.N,/PIN9*%
X126145000Y-107797500D03*
%TO.N,Net-(D1-A)*%
X120150000Y-104630000D03*
%TO.N,Net-(D2-A)*%
X119800000Y-79250000D03*
%TD*%
D22*
%TO.N,GND*%
X130700000Y-94876500D02*
X129443800Y-93620300D01*
X130700000Y-94900000D02*
X130700000Y-94876500D01*
X130723500Y-94900000D02*
X130700000Y-94900000D01*
D23*
%TO.N,+3.3V*%
X132439900Y-94891400D02*
X132439900Y-95804700D01*
D22*
X126530218Y-94264918D02*
X126530218Y-93916221D01*
X127513400Y-95248100D02*
X126530218Y-94264918D01*
X127822200Y-95556900D02*
X131774400Y-95556900D01*
X122583400Y-98693400D02*
X122630000Y-98740000D01*
X126776139Y-93670300D02*
X126530218Y-93916221D01*
D23*
X132439900Y-95804700D02*
X132466400Y-95831200D01*
D22*
X126121900Y-95248100D02*
X122630000Y-98740000D01*
X127437200Y-93670300D02*
X126776139Y-93670300D01*
D23*
X127158900Y-90344800D02*
X127209700Y-90294000D01*
D22*
X127513400Y-95248100D02*
X127822200Y-95556900D01*
X131774400Y-95556900D02*
X132439900Y-94891400D01*
D23*
X127107000Y-90344800D02*
X127158900Y-90344800D01*
D22*
X127513400Y-95248100D02*
X126121900Y-95248100D01*
X127209700Y-90294000D02*
X127209700Y-90169700D01*
%TO.N,GND*%
X130714900Y-93492200D02*
X132136200Y-92070900D01*
X129443800Y-93620300D02*
X128910400Y-93620300D01*
X130714900Y-94891400D02*
X130723500Y-94900000D01*
D23*
X122640000Y-97020000D02*
X122600000Y-97000000D01*
X122600000Y-97000000D02*
X122707300Y-97330700D01*
D22*
X130714900Y-94891400D02*
X130714900Y-93492200D01*
D24*
%TO.N,+5V*%
X131685000Y-107797500D02*
X131685000Y-106980833D01*
X131685000Y-107797500D02*
X131685000Y-100935000D01*
X120990000Y-99265000D02*
X120990000Y-91190000D01*
X124171167Y-99467000D02*
X121192000Y-99467000D01*
X121192000Y-99467000D02*
X120990000Y-99265000D01*
X131685000Y-100935000D02*
X140390000Y-92230000D01*
X131685000Y-106980833D02*
X124171167Y-99467000D01*
X120990000Y-91190000D02*
X128360000Y-83820000D01*
D22*
%TO.N,/NRST*%
X127487200Y-91895300D02*
X127437200Y-91845300D01*
X128961200Y-91895300D02*
X127487200Y-91895300D01*
X127437200Y-92070518D02*
X126566051Y-92941667D01*
X127437200Y-91845300D02*
X127437200Y-92070518D01*
%TD*%
%TA.AperFunction,Conductor*%
%TO.N,GND*%
G36*
X142360739Y-75365585D02*
G01*
X142406494Y-75418389D01*
X142417700Y-75469900D01*
X142417700Y-109376000D01*
X142398015Y-109443039D01*
X142345211Y-109488794D01*
X142293700Y-109500000D01*
X136002834Y-109500000D01*
X135935795Y-109480315D01*
X135890040Y-109427511D01*
X135878834Y-109376000D01*
X135878833Y-106249629D01*
X135878832Y-106249623D01*
X135878831Y-106249616D01*
X135872425Y-106190017D01*
X135822130Y-106055169D01*
X135822129Y-106055168D01*
X135822127Y-106055164D01*
X135735881Y-105939955D01*
X135735878Y-105939952D01*
X135620669Y-105853706D01*
X135620662Y-105853702D01*
X135485816Y-105803408D01*
X135485817Y-105803408D01*
X135426217Y-105797001D01*
X135426215Y-105797000D01*
X135426207Y-105797000D01*
X135426198Y-105797000D01*
X133483795Y-105797000D01*
X133483789Y-105797001D01*
X133424182Y-105803408D01*
X133289337Y-105853702D01*
X133289330Y-105853706D01*
X133174121Y-105939952D01*
X133174119Y-105939954D01*
X133169265Y-105946439D01*
X133113330Y-105988309D01*
X133043638Y-105993291D01*
X132982316Y-105959805D01*
X132970735Y-105946439D01*
X132965880Y-105939954D01*
X132965878Y-105939952D01*
X132850669Y-105853706D01*
X132850662Y-105853702D01*
X132715816Y-105803408D01*
X132715817Y-105803408D01*
X132656217Y-105797001D01*
X132656215Y-105797000D01*
X132656207Y-105797000D01*
X132656199Y-105797000D01*
X132609500Y-105797000D01*
X132542461Y-105777315D01*
X132496706Y-105724511D01*
X132485500Y-105673000D01*
X132485500Y-101317939D01*
X132505185Y-101250900D01*
X132521814Y-101230263D01*
X138842567Y-94909509D01*
X138903888Y-94876026D01*
X138973580Y-94881010D01*
X139029513Y-94922882D01*
X139053774Y-94986383D01*
X139055430Y-95005316D01*
X139055432Y-95005326D01*
X139116566Y-95233483D01*
X139116570Y-95233492D01*
X139216399Y-95447578D01*
X139351894Y-95641082D01*
X139518917Y-95808105D01*
X139704595Y-95938119D01*
X139748219Y-95992696D01*
X139755412Y-96062195D01*
X139723890Y-96124549D01*
X139704595Y-96141269D01*
X139518594Y-96271508D01*
X139351505Y-96438597D01*
X139215965Y-96632169D01*
X139215964Y-96632171D01*
X139116098Y-96846335D01*
X139116094Y-96846344D01*
X139054938Y-97074586D01*
X139054936Y-97074596D01*
X139034341Y-97309999D01*
X139034341Y-97310000D01*
X139054936Y-97545403D01*
X139054938Y-97545413D01*
X139116094Y-97773655D01*
X139116096Y-97773659D01*
X139116097Y-97773663D01*
X139201588Y-97956998D01*
X139215965Y-97987830D01*
X139215967Y-97987834D01*
X139351501Y-98181395D01*
X139351506Y-98181402D01*
X139518597Y-98348493D01*
X139518603Y-98348498D01*
X139704158Y-98478425D01*
X139747783Y-98533002D01*
X139754977Y-98602500D01*
X139723454Y-98664855D01*
X139704158Y-98681575D01*
X139518597Y-98811505D01*
X139351505Y-98978597D01*
X139215965Y-99172169D01*
X139215964Y-99172171D01*
X139116098Y-99386335D01*
X139116094Y-99386344D01*
X139054938Y-99614586D01*
X139054936Y-99614596D01*
X139034341Y-99849999D01*
X139034341Y-99850000D01*
X139054936Y-100085403D01*
X139054938Y-100085413D01*
X139116094Y-100313655D01*
X139116096Y-100313659D01*
X139116097Y-100313663D01*
X139189485Y-100471044D01*
X139215965Y-100527830D01*
X139215967Y-100527834D01*
X139351501Y-100721395D01*
X139351506Y-100721402D01*
X139518597Y-100888493D01*
X139518603Y-100888498D01*
X139704158Y-101018425D01*
X139747783Y-101073002D01*
X139754977Y-101142500D01*
X139723454Y-101204855D01*
X139704158Y-101221575D01*
X139518597Y-101351505D01*
X139351505Y-101518597D01*
X139215965Y-101712169D01*
X139215964Y-101712171D01*
X139116098Y-101926335D01*
X139116094Y-101926344D01*
X139054938Y-102154586D01*
X139054936Y-102154596D01*
X139034341Y-102389999D01*
X139034341Y-102390000D01*
X139054936Y-102625403D01*
X139054938Y-102625413D01*
X139116094Y-102853655D01*
X139116096Y-102853659D01*
X139116097Y-102853663D01*
X139215965Y-103067830D01*
X139215967Y-103067834D01*
X139324281Y-103222521D01*
X139351505Y-103261401D01*
X139518599Y-103428495D01*
X139615384Y-103496265D01*
X139712165Y-103564032D01*
X139712167Y-103564033D01*
X139712170Y-103564035D01*
X139926337Y-103663903D01*
X140154592Y-103725063D01*
X140342918Y-103741539D01*
X140389999Y-103745659D01*
X140390000Y-103745659D01*
X140390001Y-103745659D01*
X140429234Y-103742226D01*
X140625408Y-103725063D01*
X140853663Y-103663903D01*
X141067830Y-103564035D01*
X141261401Y-103428495D01*
X141428495Y-103261401D01*
X141564035Y-103067830D01*
X141663903Y-102853663D01*
X141725063Y-102625408D01*
X141745659Y-102390000D01*
X141725063Y-102154592D01*
X141663903Y-101926337D01*
X141564035Y-101712171D01*
X141488154Y-101603800D01*
X141428494Y-101518597D01*
X141261402Y-101351506D01*
X141261396Y-101351501D01*
X141075842Y-101221575D01*
X141032217Y-101166998D01*
X141025023Y-101097500D01*
X141056546Y-101035145D01*
X141075842Y-101018425D01*
X141098026Y-101002891D01*
X141261401Y-100888495D01*
X141428495Y-100721401D01*
X141564035Y-100527830D01*
X141663903Y-100313663D01*
X141725063Y-100085408D01*
X141745659Y-99850000D01*
X141725063Y-99614592D01*
X141663903Y-99386337D01*
X141564035Y-99172171D01*
X141428495Y-98978599D01*
X141428494Y-98978597D01*
X141261402Y-98811506D01*
X141261396Y-98811501D01*
X141075842Y-98681575D01*
X141032217Y-98626998D01*
X141025023Y-98557500D01*
X141056546Y-98495145D01*
X141075842Y-98478425D01*
X141201443Y-98390478D01*
X141261401Y-98348495D01*
X141428495Y-98181401D01*
X141564035Y-97987830D01*
X141663903Y-97773663D01*
X141725063Y-97545408D01*
X141745659Y-97310000D01*
X141742000Y-97268184D01*
X141738056Y-97223100D01*
X141725063Y-97074592D01*
X141663903Y-96846337D01*
X141564035Y-96632171D01*
X141558276Y-96623945D01*
X141428494Y-96438597D01*
X141261402Y-96271506D01*
X141261401Y-96271505D01*
X141075405Y-96141269D01*
X141031781Y-96086692D01*
X141024588Y-96017193D01*
X141056110Y-95954839D01*
X141075405Y-95938119D01*
X141261082Y-95808105D01*
X141428105Y-95641082D01*
X141563600Y-95447578D01*
X141663429Y-95233492D01*
X141663432Y-95233486D01*
X141720636Y-95020000D01*
X140823686Y-95020000D01*
X140849493Y-94979844D01*
X140890000Y-94841889D01*
X140890000Y-94698111D01*
X140849493Y-94560156D01*
X140823686Y-94520000D01*
X141720636Y-94520000D01*
X141720635Y-94519999D01*
X141663432Y-94306513D01*
X141663429Y-94306507D01*
X141563600Y-94092422D01*
X141563599Y-94092420D01*
X141428113Y-93898926D01*
X141428108Y-93898920D01*
X141261078Y-93731890D01*
X141075405Y-93601879D01*
X141031780Y-93547302D01*
X141024588Y-93477804D01*
X141056110Y-93415449D01*
X141075406Y-93398730D01*
X141261401Y-93268495D01*
X141428495Y-93101401D01*
X141564035Y-92907830D01*
X141663903Y-92693663D01*
X141725063Y-92465408D01*
X141745659Y-92230000D01*
X141744423Y-92215878D01*
X141725063Y-91994596D01*
X141725063Y-91994592D01*
X141663903Y-91766337D01*
X141564035Y-91552171D01*
X141559801Y-91546123D01*
X141428494Y-91358597D01*
X141261402Y-91191506D01*
X141261396Y-91191501D01*
X141075842Y-91061575D01*
X141032217Y-91006998D01*
X141025023Y-90937500D01*
X141056546Y-90875145D01*
X141075842Y-90858425D01*
X141214389Y-90761413D01*
X141261401Y-90728495D01*
X141428495Y-90561401D01*
X141564035Y-90367830D01*
X141663903Y-90153663D01*
X141725063Y-89925408D01*
X141745659Y-89690000D01*
X141725063Y-89454592D01*
X141663903Y-89226337D01*
X141564035Y-89012171D01*
X141468032Y-88875063D01*
X141428494Y-88818597D01*
X141261402Y-88651506D01*
X141261396Y-88651501D01*
X141075842Y-88521575D01*
X141032217Y-88466998D01*
X141025023Y-88397500D01*
X141056546Y-88335145D01*
X141075842Y-88318425D01*
X141098026Y-88302891D01*
X141261401Y-88188495D01*
X141428495Y-88021401D01*
X141564035Y-87827830D01*
X141663903Y-87613663D01*
X141725063Y-87385408D01*
X141745659Y-87150000D01*
X141725063Y-86914592D01*
X141663903Y-86686337D01*
X141564035Y-86472171D01*
X141548612Y-86450145D01*
X141428496Y-86278600D01*
X141428495Y-86278599D01*
X141306567Y-86156671D01*
X141273084Y-86095351D01*
X141278068Y-86025659D01*
X141319939Y-85969725D01*
X141350915Y-85952810D01*
X141482331Y-85903796D01*
X141597546Y-85817546D01*
X141683796Y-85702331D01*
X141734091Y-85567483D01*
X141740500Y-85507873D01*
X141740499Y-83712128D01*
X141734091Y-83652517D01*
X141729700Y-83640745D01*
X141683797Y-83517671D01*
X141683793Y-83517664D01*
X141597547Y-83402455D01*
X141597544Y-83402452D01*
X141482335Y-83316206D01*
X141482328Y-83316202D01*
X141347482Y-83265908D01*
X141347483Y-83265908D01*
X141287883Y-83259501D01*
X141287881Y-83259500D01*
X141287873Y-83259500D01*
X141287864Y-83259500D01*
X139492129Y-83259500D01*
X139492123Y-83259501D01*
X139432516Y-83265908D01*
X139297671Y-83316202D01*
X139297664Y-83316206D01*
X139182455Y-83402452D01*
X139182452Y-83402455D01*
X139096206Y-83517664D01*
X139096202Y-83517671D01*
X139045908Y-83652517D01*
X139039501Y-83712116D01*
X139039501Y-83712123D01*
X139039500Y-83712135D01*
X139039500Y-85507870D01*
X139039501Y-85507876D01*
X139045908Y-85567483D01*
X139096202Y-85702328D01*
X139096206Y-85702335D01*
X139182452Y-85817544D01*
X139182455Y-85817547D01*
X139297664Y-85903793D01*
X139297671Y-85903797D01*
X139429081Y-85952810D01*
X139485015Y-85994681D01*
X139509432Y-86060145D01*
X139494580Y-86128418D01*
X139473430Y-86156673D01*
X139351503Y-86278600D01*
X139215965Y-86472169D01*
X139215964Y-86472171D01*
X139116098Y-86686335D01*
X139116094Y-86686344D01*
X139054938Y-86914586D01*
X139054936Y-86914596D01*
X139034341Y-87149999D01*
X139034341Y-87150000D01*
X139054936Y-87385403D01*
X139054938Y-87385413D01*
X139116094Y-87613655D01*
X139116096Y-87613659D01*
X139116097Y-87613663D01*
X139215965Y-87827830D01*
X139215967Y-87827834D01*
X139324281Y-87982521D01*
X139339085Y-88003664D01*
X139351501Y-88021395D01*
X139351506Y-88021402D01*
X139518597Y-88188493D01*
X139518603Y-88188498D01*
X139704158Y-88318425D01*
X139747783Y-88373002D01*
X139754977Y-88442500D01*
X139723454Y-88504855D01*
X139704158Y-88521575D01*
X139518597Y-88651505D01*
X139351505Y-88818597D01*
X139215965Y-89012169D01*
X139215964Y-89012171D01*
X139116098Y-89226335D01*
X139116094Y-89226344D01*
X139054938Y-89454586D01*
X139054936Y-89454596D01*
X139034341Y-89689999D01*
X139034341Y-89690000D01*
X139054936Y-89925403D01*
X139054938Y-89925413D01*
X139116094Y-90153655D01*
X139116096Y-90153659D01*
X139116097Y-90153663D01*
X139215965Y-90367830D01*
X139215967Y-90367834D01*
X139351501Y-90561395D01*
X139351506Y-90561402D01*
X139518597Y-90728493D01*
X139518603Y-90728498D01*
X139704158Y-90858425D01*
X139747783Y-90913002D01*
X139754977Y-90982500D01*
X139723454Y-91044855D01*
X139704158Y-91061575D01*
X139518597Y-91191505D01*
X139351505Y-91358597D01*
X139215965Y-91552169D01*
X139215964Y-91552171D01*
X139116098Y-91766335D01*
X139116094Y-91766344D01*
X139054938Y-91994586D01*
X139054936Y-91994596D01*
X139034341Y-92229999D01*
X139034341Y-92230002D01*
X139047288Y-92377991D01*
X139033521Y-92446491D01*
X139011441Y-92476479D01*
X131182738Y-100305184D01*
X131055186Y-100432735D01*
X131055183Y-100432739D01*
X131032966Y-100468096D01*
X131028941Y-100473769D01*
X131002910Y-100506410D01*
X130984791Y-100544033D01*
X130981427Y-100550120D01*
X130959212Y-100585476D01*
X130959208Y-100585483D01*
X130945416Y-100624895D01*
X130942755Y-100631320D01*
X130924639Y-100668939D01*
X130915344Y-100709659D01*
X130913419Y-100716341D01*
X130899632Y-100755744D01*
X130894955Y-100797235D01*
X130893791Y-100804089D01*
X130884500Y-100844806D01*
X130884500Y-104748893D01*
X130864815Y-104815932D01*
X130812011Y-104861687D01*
X130742853Y-104871631D01*
X130679297Y-104842606D01*
X130672819Y-104836574D01*
X124673429Y-98837184D01*
X124673426Y-98837182D01*
X124638071Y-98814966D01*
X124632396Y-98810940D01*
X124599756Y-98784910D01*
X124562126Y-98766787D01*
X124556039Y-98763422D01*
X124520692Y-98741212D01*
X124481281Y-98727421D01*
X124474855Y-98724759D01*
X124437228Y-98706639D01*
X124396512Y-98697345D01*
X124389829Y-98695420D01*
X124350426Y-98681632D01*
X124308930Y-98676955D01*
X124302075Y-98675791D01*
X124261367Y-98666501D01*
X124261363Y-98666500D01*
X124261361Y-98666500D01*
X124261358Y-98666500D01*
X123800479Y-98666500D01*
X123733440Y-98646815D01*
X123687685Y-98594011D01*
X123677741Y-98524853D01*
X123706766Y-98461297D01*
X123712798Y-98454819D01*
X124174298Y-97993318D01*
X124235621Y-97959833D01*
X124261979Y-97956999D01*
X124657570Y-97956999D01*
X124657576Y-97956999D01*
X124758653Y-97946674D01*
X124922416Y-97892408D01*
X125069250Y-97801840D01*
X125191240Y-97679850D01*
X125281808Y-97533016D01*
X125336074Y-97369253D01*
X125346400Y-97268177D01*
X125346400Y-97223100D01*
X126538401Y-97223100D01*
X126538401Y-97322254D01*
X126548719Y-97423252D01*
X126602946Y-97586900D01*
X126602951Y-97586911D01*
X126693452Y-97733634D01*
X126693455Y-97733638D01*
X126815361Y-97855544D01*
X126815365Y-97855547D01*
X126962088Y-97946048D01*
X126962099Y-97946053D01*
X127125747Y-98000280D01*
X127226752Y-98010599D01*
X127263400Y-98010599D01*
X127263400Y-97223100D01*
X127763400Y-97223100D01*
X127763400Y-98010599D01*
X127800040Y-98010599D01*
X127800054Y-98010598D01*
X127901052Y-98000280D01*
X128064700Y-97946053D01*
X128064711Y-97946048D01*
X128211434Y-97855547D01*
X128211438Y-97855544D01*
X128333344Y-97733638D01*
X128333347Y-97733634D01*
X128423848Y-97586911D01*
X128423853Y-97586900D01*
X128478080Y-97423252D01*
X128488399Y-97322254D01*
X128488400Y-97322241D01*
X128488400Y-97223100D01*
X127763400Y-97223100D01*
X127263400Y-97223100D01*
X126538401Y-97223100D01*
X125346400Y-97223100D01*
X125346399Y-96872577D01*
X125366083Y-96805539D01*
X125382713Y-96784902D01*
X126319197Y-95848419D01*
X126380520Y-95814934D01*
X126406878Y-95812100D01*
X126502435Y-95812100D01*
X126569474Y-95831785D01*
X126607972Y-95871001D01*
X126693060Y-96008950D01*
X126693061Y-96008951D01*
X126707382Y-96023272D01*
X126740867Y-96084595D01*
X126735883Y-96154287D01*
X126707385Y-96198632D01*
X126693452Y-96212565D01*
X126602951Y-96359288D01*
X126602946Y-96359299D01*
X126548719Y-96522947D01*
X126538400Y-96623945D01*
X126538400Y-96723100D01*
X128488399Y-96723100D01*
X128488399Y-96623960D01*
X128488398Y-96623945D01*
X128478080Y-96522947D01*
X128423853Y-96359299D01*
X128423851Y-96359294D01*
X128393444Y-96309997D01*
X128375004Y-96242604D01*
X128395927Y-96175941D01*
X128449569Y-96131171D01*
X128498983Y-96120900D01*
X131634489Y-96120900D01*
X131701528Y-96140585D01*
X131739482Y-96178927D01*
X131836582Y-96333460D01*
X131836584Y-96333462D01*
X131964138Y-96461016D01*
X132054480Y-96517782D01*
X132062700Y-96522947D01*
X132116878Y-96556989D01*
X132287145Y-96616568D01*
X132287150Y-96616569D01*
X132466396Y-96636765D01*
X132466400Y-96636765D01*
X132466404Y-96636765D01*
X132645649Y-96616569D01*
X132645652Y-96616568D01*
X132645655Y-96616568D01*
X132815922Y-96556989D01*
X132968662Y-96461016D01*
X133096216Y-96333462D01*
X133192189Y-96180722D01*
X133251768Y-96010455D01*
X133251938Y-96008951D01*
X133271965Y-95831202D01*
X133271965Y-95831198D01*
X133259342Y-95719175D01*
X133271396Y-95650353D01*
X133294880Y-95617609D01*
X133322740Y-95589750D01*
X133413308Y-95442916D01*
X133467574Y-95279153D01*
X133477900Y-95178077D01*
X133477899Y-94604724D01*
X133473346Y-94560156D01*
X133467574Y-94503647D01*
X133413308Y-94339884D01*
X133322740Y-94193050D01*
X133200750Y-94071060D01*
X133077228Y-93994871D01*
X133053918Y-93980493D01*
X133053913Y-93980491D01*
X133020675Y-93969477D01*
X132890153Y-93926226D01*
X132890151Y-93926225D01*
X132789078Y-93915900D01*
X132090730Y-93915900D01*
X132090712Y-93915901D01*
X131989647Y-93926225D01*
X131825884Y-93980492D01*
X131825881Y-93980493D01*
X131679048Y-94071061D01*
X131664725Y-94085384D01*
X131603401Y-94118868D01*
X131533709Y-94113882D01*
X131489365Y-94085382D01*
X131475438Y-94071455D01*
X131475434Y-94071452D01*
X131328711Y-93980951D01*
X131328700Y-93980946D01*
X131165052Y-93926719D01*
X131064054Y-93916400D01*
X130964900Y-93916400D01*
X130964900Y-94868900D01*
X130945215Y-94935939D01*
X130892411Y-94981694D01*
X130840900Y-94992900D01*
X128610477Y-94992900D01*
X128543438Y-94973215D01*
X128497683Y-94920411D01*
X128487119Y-94881502D01*
X128486560Y-94876026D01*
X128478574Y-94797847D01*
X128478572Y-94797843D01*
X128478054Y-94792765D01*
X128490824Y-94724072D01*
X128538704Y-94673188D01*
X128606494Y-94656267D01*
X128614016Y-94656805D01*
X128623753Y-94657799D01*
X128660400Y-94657799D01*
X128660400Y-93870300D01*
X129160400Y-93870300D01*
X129160400Y-94657799D01*
X129197040Y-94657799D01*
X129197054Y-94657798D01*
X129298052Y-94647480D01*
X129461700Y-94593253D01*
X129461707Y-94593250D01*
X129488302Y-94576846D01*
X129555694Y-94558405D01*
X129622358Y-94579327D01*
X129657841Y-94621841D01*
X129677400Y-94641400D01*
X130464900Y-94641400D01*
X130464900Y-93916399D01*
X130365760Y-93916400D01*
X130365744Y-93916401D01*
X130264747Y-93926719D01*
X130101099Y-93980946D01*
X130101090Y-93980951D01*
X130074496Y-93997354D01*
X130007103Y-94015794D01*
X129940440Y-93994871D01*
X129895671Y-93941228D01*
X129885400Y-93891815D01*
X129885400Y-93870300D01*
X129160400Y-93870300D01*
X128660400Y-93870300D01*
X128660400Y-93494300D01*
X128680085Y-93427261D01*
X128732889Y-93381506D01*
X128784400Y-93370300D01*
X129885399Y-93370300D01*
X129885399Y-93271160D01*
X129885398Y-93271145D01*
X129875080Y-93170147D01*
X129820853Y-93006499D01*
X129820848Y-93006488D01*
X129730347Y-92859765D01*
X129730344Y-92859761D01*
X129716417Y-92845834D01*
X129682932Y-92784511D01*
X129687916Y-92714819D01*
X129716417Y-92670472D01*
X129730740Y-92656150D01*
X129821308Y-92509316D01*
X129875574Y-92345553D01*
X129878093Y-92320900D01*
X131161201Y-92320900D01*
X131161201Y-92420054D01*
X131171519Y-92521052D01*
X131225746Y-92684700D01*
X131225751Y-92684711D01*
X131316252Y-92831434D01*
X131316255Y-92831438D01*
X131438161Y-92953344D01*
X131438165Y-92953347D01*
X131584888Y-93043848D01*
X131584899Y-93043853D01*
X131748547Y-93098080D01*
X131849552Y-93108399D01*
X131886200Y-93108399D01*
X131886200Y-92320900D01*
X132386200Y-92320900D01*
X132386200Y-93108399D01*
X132422840Y-93108399D01*
X132422854Y-93108398D01*
X132523852Y-93098080D01*
X132687500Y-93043853D01*
X132687511Y-93043848D01*
X132834234Y-92953347D01*
X132834238Y-92953344D01*
X132956144Y-92831438D01*
X132956147Y-92831434D01*
X133046648Y-92684711D01*
X133046653Y-92684700D01*
X133100880Y-92521052D01*
X133111199Y-92420054D01*
X133111200Y-92420041D01*
X133111200Y-92320900D01*
X132386200Y-92320900D01*
X131886200Y-92320900D01*
X131161201Y-92320900D01*
X129878093Y-92320900D01*
X129885900Y-92244477D01*
X129885899Y-91546124D01*
X129875574Y-91445047D01*
X129821308Y-91281284D01*
X129821304Y-91281278D01*
X129821303Y-91281275D01*
X129760845Y-91183258D01*
X129742404Y-91115866D01*
X129763326Y-91049202D01*
X129778704Y-91030478D01*
X129817144Y-90992039D01*
X129817145Y-90992037D01*
X129907648Y-90845311D01*
X129907653Y-90845300D01*
X129957434Y-90695069D01*
X131160700Y-90695069D01*
X131160701Y-90695087D01*
X131171025Y-90796152D01*
X131225292Y-90959915D01*
X131225293Y-90959918D01*
X131232339Y-90971341D01*
X131315859Y-91106749D01*
X131315861Y-91106751D01*
X131330182Y-91121072D01*
X131363667Y-91182395D01*
X131358683Y-91252087D01*
X131330185Y-91296432D01*
X131316252Y-91310365D01*
X131225751Y-91457088D01*
X131225746Y-91457099D01*
X131171519Y-91620747D01*
X131161200Y-91721745D01*
X131161200Y-91820900D01*
X133111199Y-91820900D01*
X133111199Y-91721760D01*
X133111198Y-91721745D01*
X133100880Y-91620747D01*
X133046653Y-91457099D01*
X133046648Y-91457088D01*
X132956147Y-91310365D01*
X132956144Y-91310361D01*
X132942217Y-91296434D01*
X132908732Y-91235111D01*
X132913716Y-91165419D01*
X132942217Y-91121072D01*
X132956540Y-91106750D01*
X133047108Y-90959916D01*
X133101374Y-90796153D01*
X133111700Y-90695077D01*
X133111699Y-89996724D01*
X133101374Y-89895647D01*
X133047108Y-89731884D01*
X132956540Y-89585050D01*
X132834550Y-89463060D01*
X132743329Y-89406795D01*
X132687718Y-89372493D01*
X132687713Y-89372491D01*
X132686269Y-89372012D01*
X132523953Y-89318226D01*
X132523951Y-89318225D01*
X132422878Y-89307900D01*
X131849530Y-89307900D01*
X131849512Y-89307901D01*
X131748447Y-89318225D01*
X131584684Y-89372492D01*
X131584681Y-89372493D01*
X131437848Y-89463061D01*
X131315861Y-89585048D01*
X131225293Y-89731881D01*
X131225292Y-89731884D01*
X131171026Y-89895647D01*
X131171026Y-89895648D01*
X131171025Y-89895648D01*
X131160700Y-89996715D01*
X131160700Y-90695069D01*
X129957434Y-90695069D01*
X129961880Y-90681652D01*
X129972199Y-90580654D01*
X129972200Y-90580641D01*
X129972200Y-90544000D01*
X128808700Y-90544000D01*
X128741661Y-90524315D01*
X128695906Y-90471511D01*
X128684700Y-90420000D01*
X128684700Y-89319000D01*
X129184700Y-89319000D01*
X129184700Y-90044000D01*
X129972199Y-90044000D01*
X129972199Y-90007360D01*
X129972198Y-90007345D01*
X129961880Y-89906347D01*
X129907653Y-89742699D01*
X129907648Y-89742688D01*
X129817147Y-89595965D01*
X129817144Y-89595961D01*
X129695238Y-89474055D01*
X129695234Y-89474052D01*
X129548511Y-89383551D01*
X129548500Y-89383546D01*
X129384852Y-89329319D01*
X129283854Y-89319000D01*
X129184700Y-89319000D01*
X128684700Y-89319000D01*
X128684700Y-89318999D01*
X128585560Y-89319000D01*
X128585544Y-89319001D01*
X128484547Y-89329319D01*
X128320899Y-89383546D01*
X128320888Y-89383551D01*
X128174165Y-89474052D01*
X128160232Y-89487985D01*
X128098908Y-89521468D01*
X128029216Y-89516482D01*
X127984872Y-89487982D01*
X127970551Y-89473661D01*
X127970550Y-89473660D01*
X127879329Y-89417395D01*
X127823718Y-89383093D01*
X127823713Y-89383091D01*
X127822269Y-89382612D01*
X127659953Y-89328826D01*
X127659951Y-89328825D01*
X127558878Y-89318500D01*
X126860530Y-89318500D01*
X126860512Y-89318501D01*
X126759447Y-89328825D01*
X126595684Y-89383092D01*
X126595681Y-89383093D01*
X126448848Y-89473661D01*
X126326861Y-89595648D01*
X126236293Y-89742481D01*
X126236291Y-89742486D01*
X126208919Y-89825088D01*
X126182026Y-89906247D01*
X126182026Y-89906248D01*
X126182025Y-89906248D01*
X126171700Y-90007315D01*
X126171700Y-90580669D01*
X126171701Y-90580687D01*
X126182025Y-90681752D01*
X126208422Y-90761410D01*
X126236220Y-90845300D01*
X126236292Y-90845515D01*
X126236293Y-90845518D01*
X126261460Y-90886320D01*
X126326860Y-90992350D01*
X126448850Y-91114340D01*
X126475631Y-91130859D01*
X126522355Y-91182804D01*
X126533579Y-91251767D01*
X126528241Y-91275401D01*
X126472026Y-91445047D01*
X126472025Y-91445048D01*
X126461700Y-91546115D01*
X126461700Y-92042106D01*
X126442015Y-92109145D01*
X126389211Y-92154900D01*
X126378654Y-92159148D01*
X126216529Y-92215877D01*
X126063788Y-92311851D01*
X125936235Y-92439404D01*
X125840262Y-92592143D01*
X125780682Y-92762412D01*
X125780681Y-92762417D01*
X125760486Y-92941663D01*
X125760486Y-92941670D01*
X125780681Y-93120916D01*
X125780682Y-93120921D01*
X125840262Y-93291190D01*
X125867449Y-93334457D01*
X125886449Y-93401693D01*
X125867449Y-93466400D01*
X125804430Y-93566695D01*
X125744849Y-93736966D01*
X125744848Y-93736971D01*
X125724653Y-93916217D01*
X125724653Y-93916224D01*
X125744848Y-94095470D01*
X125744849Y-94095475D01*
X125804429Y-94265744D01*
X125900402Y-94418483D01*
X125989014Y-94507095D01*
X126022499Y-94568418D01*
X126017515Y-94638110D01*
X125975643Y-94694043D01*
X125948786Y-94709337D01*
X125837465Y-94755447D01*
X125719649Y-94845850D01*
X125699422Y-94872210D01*
X125694070Y-94878312D01*
X124602701Y-95969681D01*
X124541378Y-96003166D01*
X124515020Y-96006000D01*
X123959230Y-96006000D01*
X123959212Y-96006001D01*
X123858147Y-96016325D01*
X123694384Y-96070592D01*
X123694381Y-96070593D01*
X123547548Y-96161161D01*
X123533225Y-96175484D01*
X123471901Y-96208968D01*
X123402209Y-96203982D01*
X123357865Y-96175482D01*
X123343938Y-96161555D01*
X123343934Y-96161552D01*
X123197211Y-96071051D01*
X123197200Y-96071046D01*
X123033552Y-96016819D01*
X122932554Y-96006500D01*
X122833400Y-96006500D01*
X122833400Y-97107500D01*
X122813715Y-97174539D01*
X122760911Y-97220294D01*
X122709400Y-97231500D01*
X122457400Y-97231500D01*
X122390361Y-97211815D01*
X122344606Y-97159011D01*
X122333400Y-97107500D01*
X122333400Y-96006499D01*
X122234260Y-96006500D01*
X122234244Y-96006501D01*
X122133247Y-96016819D01*
X121969594Y-96071048D01*
X121966897Y-96072306D01*
X121964870Y-96072613D01*
X121962742Y-96073319D01*
X121962621Y-96072955D01*
X121897819Y-96082793D01*
X121834037Y-96054269D01*
X121795801Y-95995790D01*
X121790500Y-95959920D01*
X121790500Y-91572940D01*
X121810185Y-91505901D01*
X121826819Y-91485259D01*
X125308423Y-88003655D01*
X125772078Y-87540000D01*
X134044341Y-87540000D01*
X134064936Y-87775403D01*
X134064938Y-87775413D01*
X134126094Y-88003655D01*
X134126096Y-88003659D01*
X134126097Y-88003663D01*
X134134369Y-88021402D01*
X134225965Y-88217830D01*
X134225967Y-88217834D01*
X134308110Y-88335145D01*
X134361505Y-88411401D01*
X134528599Y-88578495D01*
X134625384Y-88646265D01*
X134722165Y-88714032D01*
X134722167Y-88714033D01*
X134722170Y-88714035D01*
X134936337Y-88813903D01*
X135164592Y-88875063D01*
X135352918Y-88891539D01*
X135399999Y-88895659D01*
X135400000Y-88895659D01*
X135400001Y-88895659D01*
X135439234Y-88892226D01*
X135635408Y-88875063D01*
X135863663Y-88813903D01*
X136077830Y-88714035D01*
X136271401Y-88578495D01*
X136438495Y-88411401D01*
X136574035Y-88217830D01*
X136673903Y-88003663D01*
X136735063Y-87775408D01*
X136755659Y-87540000D01*
X136735063Y-87304592D01*
X136673903Y-87076337D01*
X136574035Y-86862171D01*
X136450915Y-86686337D01*
X136438496Y-86668600D01*
X136438495Y-86668599D01*
X136316567Y-86546671D01*
X136283084Y-86485351D01*
X136288068Y-86415659D01*
X136329939Y-86359725D01*
X136360915Y-86342810D01*
X136492331Y-86293796D01*
X136607546Y-86207546D01*
X136693796Y-86092331D01*
X136744091Y-85957483D01*
X136750500Y-85897873D01*
X136750499Y-84102128D01*
X136744091Y-84042517D01*
X136742652Y-84038660D01*
X136693797Y-83907671D01*
X136693793Y-83907664D01*
X136607547Y-83792455D01*
X136607544Y-83792452D01*
X136492335Y-83706206D01*
X136492328Y-83706202D01*
X136357482Y-83655908D01*
X136357483Y-83655908D01*
X136297883Y-83649501D01*
X136297881Y-83649500D01*
X136297873Y-83649500D01*
X136297864Y-83649500D01*
X134502129Y-83649500D01*
X134502123Y-83649501D01*
X134442516Y-83655908D01*
X134307671Y-83706202D01*
X134307664Y-83706206D01*
X134192455Y-83792452D01*
X134192452Y-83792455D01*
X134106206Y-83907664D01*
X134106202Y-83907671D01*
X134055908Y-84042517D01*
X134051227Y-84086061D01*
X134049501Y-84102123D01*
X134049500Y-84102135D01*
X134049500Y-85897870D01*
X134049501Y-85897876D01*
X134055908Y-85957483D01*
X134106202Y-86092328D01*
X134106206Y-86092335D01*
X134192452Y-86207544D01*
X134192455Y-86207547D01*
X134307664Y-86293793D01*
X134307671Y-86293797D01*
X134439081Y-86342810D01*
X134495015Y-86384681D01*
X134519432Y-86450145D01*
X134504580Y-86518418D01*
X134483430Y-86546673D01*
X134361503Y-86668600D01*
X134225965Y-86862169D01*
X134225964Y-86862171D01*
X134126098Y-87076335D01*
X134126094Y-87076344D01*
X134064938Y-87304586D01*
X134064936Y-87304596D01*
X134044341Y-87539999D01*
X134044341Y-87540000D01*
X125772078Y-87540000D01*
X128957826Y-84354252D01*
X128989816Y-84322262D01*
X129012037Y-84286895D01*
X129016052Y-84281236D01*
X129042091Y-84248587D01*
X129060209Y-84210961D01*
X129063565Y-84204889D01*
X129085789Y-84169522D01*
X129099580Y-84130105D01*
X129102236Y-84123693D01*
X129120360Y-84086061D01*
X129129658Y-84045321D01*
X129131571Y-84038680D01*
X129145368Y-83999255D01*
X129150043Y-83957760D01*
X129151208Y-83950905D01*
X129152726Y-83944249D01*
X129160500Y-83910194D01*
X129160500Y-83868435D01*
X129160889Y-83861496D01*
X129165565Y-83820000D01*
X129160889Y-83778502D01*
X129160500Y-83771564D01*
X129160500Y-83729807D01*
X129160500Y-83729806D01*
X129151207Y-83689093D01*
X129150042Y-83682233D01*
X129145368Y-83640745D01*
X129145367Y-83640742D01*
X129131576Y-83601328D01*
X129129650Y-83594641D01*
X129120361Y-83553941D01*
X129102244Y-83516320D01*
X129099581Y-83509891D01*
X129085789Y-83470477D01*
X129074577Y-83452635D01*
X129063567Y-83435112D01*
X129060206Y-83429030D01*
X129042091Y-83391412D01*
X129042090Y-83391411D01*
X129028391Y-83374234D01*
X129016054Y-83358764D01*
X129012032Y-83353095D01*
X128989817Y-83317739D01*
X128988280Y-83316202D01*
X128960283Y-83288205D01*
X128955654Y-83283024D01*
X128929626Y-83250384D01*
X128929622Y-83250381D01*
X128929621Y-83250379D01*
X128896968Y-83224339D01*
X128891781Y-83219703D01*
X128862262Y-83190184D01*
X128862259Y-83190182D01*
X128855924Y-83186202D01*
X128826902Y-83167966D01*
X128821234Y-83163944D01*
X128788588Y-83137909D01*
X128750960Y-83119788D01*
X128744878Y-83116426D01*
X128725607Y-83104317D01*
X128709526Y-83094213D01*
X128709525Y-83094212D01*
X128670114Y-83080421D01*
X128663688Y-83077759D01*
X128626061Y-83059639D01*
X128585345Y-83050345D01*
X128578662Y-83048420D01*
X128539259Y-83034632D01*
X128497763Y-83029955D01*
X128490908Y-83028791D01*
X128450200Y-83019501D01*
X128450196Y-83019500D01*
X128450194Y-83019500D01*
X128450191Y-83019500D01*
X128408436Y-83019500D01*
X128401497Y-83019110D01*
X128372599Y-83015854D01*
X128360002Y-83014435D01*
X128359998Y-83014435D01*
X128347400Y-83015854D01*
X128318502Y-83019110D01*
X128311564Y-83019500D01*
X128269806Y-83019500D01*
X128263888Y-83020850D01*
X128229089Y-83028791D01*
X128222235Y-83029955D01*
X128180744Y-83034632D01*
X128141341Y-83048419D01*
X128134659Y-83050344D01*
X128093939Y-83059639D01*
X128056320Y-83077755D01*
X128049895Y-83080416D01*
X128010483Y-83094208D01*
X128010476Y-83094212D01*
X127975120Y-83116427D01*
X127969033Y-83119791D01*
X127931410Y-83137910D01*
X127898769Y-83163941D01*
X127893096Y-83167966D01*
X127857739Y-83190183D01*
X127857735Y-83190186D01*
X120360186Y-90687735D01*
X120360183Y-90687739D01*
X120337966Y-90723096D01*
X120333941Y-90728769D01*
X120307910Y-90761410D01*
X120289791Y-90799033D01*
X120286427Y-90805120D01*
X120264212Y-90840476D01*
X120264208Y-90840483D01*
X120250416Y-90879895D01*
X120247755Y-90886320D01*
X120229639Y-90923939D01*
X120220344Y-90964659D01*
X120218419Y-90971341D01*
X120204632Y-91010744D01*
X120199955Y-91052235D01*
X120198791Y-91059089D01*
X120189500Y-91099806D01*
X120189500Y-98436818D01*
X120171039Y-98501915D01*
X120169661Y-98504148D01*
X120169660Y-98504150D01*
X120151864Y-98533002D01*
X120079093Y-98650981D01*
X120079091Y-98650986D01*
X120063729Y-98697345D01*
X120024826Y-98814747D01*
X120024826Y-98814748D01*
X120024825Y-98814748D01*
X120014500Y-98915815D01*
X120014500Y-99614169D01*
X120014501Y-99614187D01*
X120024825Y-99715252D01*
X120079092Y-99879015D01*
X120079093Y-99879018D01*
X120169661Y-100025851D01*
X120183982Y-100040172D01*
X120217467Y-100101495D01*
X120212483Y-100171187D01*
X120183985Y-100215532D01*
X120170052Y-100229465D01*
X120079551Y-100376188D01*
X120079546Y-100376199D01*
X120025319Y-100539847D01*
X120015000Y-100640845D01*
X120015000Y-100740000D01*
X121964999Y-100740000D01*
X121964999Y-100640860D01*
X121964998Y-100640845D01*
X121954680Y-100539847D01*
X121918448Y-100430504D01*
X121916046Y-100360675D01*
X121951778Y-100300634D01*
X122014298Y-100269441D01*
X122036154Y-100267500D01*
X123788227Y-100267500D01*
X123855266Y-100287185D01*
X123875908Y-100303819D01*
X129179613Y-105607524D01*
X129213098Y-105668847D01*
X129208114Y-105738539D01*
X129179614Y-105782885D01*
X129165000Y-105797499D01*
X129165000Y-108163500D01*
X129145315Y-108230539D01*
X129092511Y-108276294D01*
X129041000Y-108287500D01*
X128789000Y-108287500D01*
X128721961Y-108267815D01*
X128676206Y-108215011D01*
X128665000Y-108163500D01*
X128665000Y-105797500D01*
X127943821Y-105797500D01*
X127884293Y-105803901D01*
X127884286Y-105803903D01*
X127749579Y-105854145D01*
X127749572Y-105854149D01*
X127634479Y-105940309D01*
X127629577Y-105946857D01*
X127573642Y-105988726D01*
X127503950Y-105993708D01*
X127442628Y-105960221D01*
X127431047Y-105946856D01*
X127426146Y-105940309D01*
X127425880Y-105939954D01*
X127425879Y-105939953D01*
X127425878Y-105939952D01*
X127310669Y-105853706D01*
X127310662Y-105853702D01*
X127175816Y-105803408D01*
X127175817Y-105803408D01*
X127116217Y-105797001D01*
X127116215Y-105797000D01*
X127116207Y-105797000D01*
X127116198Y-105797000D01*
X125173795Y-105797000D01*
X125173789Y-105797001D01*
X125114182Y-105803408D01*
X124979337Y-105853702D01*
X124979330Y-105853706D01*
X124864121Y-105939952D01*
X124864118Y-105939955D01*
X124777872Y-106055164D01*
X124777868Y-106055171D01*
X124727574Y-106190017D01*
X124721167Y-106249616D01*
X124721167Y-106249623D01*
X124721166Y-106249635D01*
X124721167Y-109376000D01*
X124701482Y-109443039D01*
X124648678Y-109488794D01*
X124597167Y-109500000D01*
X118626300Y-109500000D01*
X118559261Y-109480315D01*
X118513506Y-109427511D01*
X118502300Y-109376000D01*
X118502300Y-105006669D01*
X119092000Y-105006669D01*
X119092001Y-105006687D01*
X119102325Y-105107752D01*
X119156592Y-105271515D01*
X119156593Y-105271518D01*
X119190895Y-105327129D01*
X119247160Y-105418350D01*
X119369150Y-105540340D01*
X119515984Y-105630908D01*
X119679747Y-105685174D01*
X119780823Y-105695500D01*
X120379176Y-105695499D01*
X120379184Y-105695498D01*
X120379187Y-105695498D01*
X120434530Y-105689844D01*
X120480253Y-105685174D01*
X120644016Y-105630908D01*
X120790850Y-105540340D01*
X120904819Y-105426371D01*
X120966142Y-105392886D01*
X121035834Y-105397870D01*
X121080181Y-105426371D01*
X121194150Y-105540340D01*
X121340984Y-105630908D01*
X121504747Y-105685174D01*
X121605823Y-105695500D01*
X122204176Y-105695499D01*
X122204184Y-105695498D01*
X122204187Y-105695498D01*
X122259530Y-105689844D01*
X122305253Y-105685174D01*
X122469016Y-105630908D01*
X122615850Y-105540340D01*
X122737840Y-105418350D01*
X122828408Y-105271516D01*
X122882674Y-105107753D01*
X122893000Y-105006677D01*
X122892999Y-104433324D01*
X122882674Y-104332247D01*
X122828408Y-104168484D01*
X122737840Y-104021650D01*
X122615850Y-103899660D01*
X122469016Y-103809092D01*
X122305253Y-103754826D01*
X122305251Y-103754825D01*
X122204178Y-103744500D01*
X121605830Y-103744500D01*
X121605812Y-103744501D01*
X121504747Y-103754825D01*
X121340984Y-103809092D01*
X121340981Y-103809093D01*
X121194148Y-103899661D01*
X121080181Y-104013629D01*
X121018858Y-104047114D01*
X120949166Y-104042130D01*
X120904819Y-104013629D01*
X120790851Y-103899661D01*
X120790850Y-103899660D01*
X120644016Y-103809092D01*
X120480253Y-103754826D01*
X120480251Y-103754825D01*
X120379178Y-103744500D01*
X119780830Y-103744500D01*
X119780812Y-103744501D01*
X119679747Y-103754825D01*
X119515984Y-103809092D01*
X119515981Y-103809093D01*
X119369148Y-103899661D01*
X119247161Y-104021648D01*
X119156593Y-104168481D01*
X119156592Y-104168484D01*
X119102326Y-104332247D01*
X119102326Y-104332248D01*
X119102325Y-104332248D01*
X119092000Y-104433315D01*
X119092000Y-105006669D01*
X118502300Y-105006669D01*
X118502300Y-101240000D01*
X120015001Y-101240000D01*
X120015001Y-101339154D01*
X120025319Y-101440152D01*
X120079546Y-101603800D01*
X120079551Y-101603811D01*
X120170052Y-101750534D01*
X120170055Y-101750538D01*
X120291961Y-101872444D01*
X120291965Y-101872447D01*
X120438688Y-101962948D01*
X120438699Y-101962953D01*
X120602347Y-102017180D01*
X120703352Y-102027499D01*
X120740000Y-102027499D01*
X120740000Y-101240000D01*
X121240000Y-101240000D01*
X121240000Y-102027499D01*
X121276640Y-102027499D01*
X121276654Y-102027498D01*
X121377652Y-102017180D01*
X121541300Y-101962953D01*
X121541311Y-101962948D01*
X121688034Y-101872447D01*
X121688038Y-101872444D01*
X121809944Y-101750538D01*
X121809947Y-101750534D01*
X121900448Y-101603811D01*
X121900453Y-101603800D01*
X121954680Y-101440152D01*
X121964999Y-101339154D01*
X121965000Y-101339141D01*
X121965000Y-101240000D01*
X121240000Y-101240000D01*
X120740000Y-101240000D01*
X120015001Y-101240000D01*
X118502300Y-101240000D01*
X118502300Y-81267100D01*
X125408179Y-81267100D01*
X125427424Y-81487076D01*
X125427426Y-81487086D01*
X125484575Y-81700370D01*
X125484580Y-81700384D01*
X125577899Y-81900507D01*
X125577900Y-81900509D01*
X125623258Y-81965287D01*
X126221220Y-81367325D01*
X126221467Y-81370616D01*
X126272128Y-81499698D01*
X126358586Y-81608113D01*
X126473159Y-81686227D01*
X126577301Y-81718350D01*
X125976811Y-82318841D01*
X126041582Y-82364194D01*
X126041592Y-82364200D01*
X126241715Y-82457519D01*
X126241729Y-82457524D01*
X126455013Y-82514673D01*
X126455023Y-82514675D01*
X126674999Y-82533921D01*
X126675001Y-82533921D01*
X126894976Y-82514675D01*
X126894986Y-82514673D01*
X127108270Y-82457524D01*
X127108284Y-82457519D01*
X127308408Y-82364200D01*
X127308420Y-82364193D01*
X127373186Y-82318842D01*
X127373187Y-82318840D01*
X126772020Y-81717672D01*
X126812119Y-81711629D01*
X126937054Y-81651463D01*
X127038705Y-81557145D01*
X127108039Y-81437055D01*
X127124850Y-81363397D01*
X127726740Y-81965287D01*
X127726742Y-81965286D01*
X127772093Y-81900520D01*
X127772095Y-81900517D01*
X127812341Y-81814209D01*
X127858513Y-81761770D01*
X127925707Y-81742617D01*
X127992588Y-81762832D01*
X128037106Y-81814209D01*
X128077464Y-81900758D01*
X128077468Y-81900766D01*
X128204170Y-82081715D01*
X128204175Y-82081721D01*
X128360378Y-82237924D01*
X128360384Y-82237929D01*
X128541333Y-82364631D01*
X128541335Y-82364632D01*
X128541338Y-82364634D01*
X128741550Y-82457994D01*
X128954932Y-82515170D01*
X129112123Y-82528922D01*
X129174998Y-82534423D01*
X129175000Y-82534423D01*
X129175002Y-82534423D01*
X129230151Y-82529598D01*
X129395068Y-82515170D01*
X129608450Y-82457994D01*
X129808662Y-82364634D01*
X129989620Y-82237926D01*
X130087319Y-82140227D01*
X130148642Y-82106742D01*
X130218334Y-82111726D01*
X130262681Y-82140227D01*
X130360378Y-82237924D01*
X130360384Y-82237929D01*
X130541333Y-82364631D01*
X130541335Y-82364632D01*
X130541338Y-82364634D01*
X130741550Y-82457994D01*
X130954932Y-82515170D01*
X131112123Y-82528922D01*
X131174998Y-82534423D01*
X131175000Y-82534423D01*
X131175002Y-82534423D01*
X131230151Y-82529598D01*
X131395068Y-82515170D01*
X131608450Y-82457994D01*
X131808662Y-82364634D01*
X131989620Y-82237926D01*
X132145826Y-82081720D01*
X132187907Y-82021620D01*
X132242481Y-81977997D01*
X132311980Y-81970803D01*
X132374335Y-82002325D01*
X132409749Y-82062554D01*
X132412771Y-82079490D01*
X132418909Y-82136583D01*
X132469202Y-82271428D01*
X132469206Y-82271435D01*
X132555452Y-82386644D01*
X132555455Y-82386647D01*
X132670664Y-82472893D01*
X132670671Y-82472897D01*
X132805517Y-82523191D01*
X132805516Y-82523191D01*
X132812444Y-82523935D01*
X132865127Y-82529600D01*
X134484872Y-82529599D01*
X134544483Y-82523191D01*
X134679331Y-82472896D01*
X134794546Y-82386646D01*
X134880796Y-82271431D01*
X134931091Y-82136583D01*
X134937500Y-82076973D01*
X134937499Y-80457228D01*
X134931091Y-80397617D01*
X134900908Y-80316693D01*
X134880797Y-80262771D01*
X134880793Y-80262764D01*
X134794547Y-80147555D01*
X134794544Y-80147552D01*
X134679335Y-80061306D01*
X134679328Y-80061302D01*
X134544482Y-80011008D01*
X134544483Y-80011008D01*
X134484883Y-80004601D01*
X134484881Y-80004600D01*
X134484873Y-80004600D01*
X134484864Y-80004600D01*
X132865129Y-80004600D01*
X132865123Y-80004601D01*
X132805516Y-80011008D01*
X132670671Y-80061302D01*
X132670664Y-80061306D01*
X132555455Y-80147552D01*
X132555452Y-80147555D01*
X132469206Y-80262764D01*
X132469202Y-80262771D01*
X132418908Y-80397616D01*
X132412770Y-80454710D01*
X132386032Y-80519261D01*
X132328639Y-80559109D01*
X132258814Y-80561602D01*
X132198725Y-80525949D01*
X132187906Y-80512577D01*
X132145827Y-80452481D01*
X132087318Y-80393972D01*
X131989620Y-80296274D01*
X131989616Y-80296271D01*
X131989615Y-80296270D01*
X131808666Y-80169568D01*
X131808662Y-80169566D01*
X131808660Y-80169565D01*
X131608450Y-80076206D01*
X131608447Y-80076205D01*
X131608445Y-80076204D01*
X131395070Y-80019030D01*
X131395062Y-80019029D01*
X131175002Y-79999777D01*
X131174998Y-79999777D01*
X130954937Y-80019029D01*
X130954929Y-80019030D01*
X130741554Y-80076204D01*
X130741548Y-80076207D01*
X130541340Y-80169565D01*
X130541338Y-80169566D01*
X130360381Y-80296272D01*
X130262680Y-80393973D01*
X130201356Y-80427457D01*
X130131665Y-80422473D01*
X130087318Y-80393972D01*
X129989621Y-80296275D01*
X129989615Y-80296270D01*
X129808666Y-80169568D01*
X129808662Y-80169566D01*
X129808660Y-80169565D01*
X129608450Y-80076206D01*
X129608447Y-80076205D01*
X129608445Y-80076204D01*
X129395070Y-80019030D01*
X129395062Y-80019029D01*
X129175002Y-79999777D01*
X129174998Y-79999777D01*
X128954937Y-80019029D01*
X128954929Y-80019030D01*
X128741554Y-80076204D01*
X128741548Y-80076207D01*
X128541340Y-80169565D01*
X128541338Y-80169566D01*
X128360377Y-80296275D01*
X128204175Y-80452477D01*
X128077466Y-80633438D01*
X128077462Y-80633445D01*
X128037104Y-80719992D01*
X127990931Y-80772431D01*
X127923738Y-80791582D01*
X127856857Y-80771365D01*
X127812341Y-80719990D01*
X127772100Y-80633693D01*
X127772099Y-80633691D01*
X127726740Y-80568911D01*
X127128779Y-81166872D01*
X127128533Y-81163584D01*
X127077872Y-81034502D01*
X126991414Y-80926087D01*
X126876841Y-80847973D01*
X126772697Y-80815849D01*
X127373187Y-80215358D01*
X127308409Y-80170000D01*
X127308407Y-80169999D01*
X127108284Y-80076680D01*
X127108270Y-80076675D01*
X126894986Y-80019526D01*
X126894976Y-80019524D01*
X126675001Y-80000279D01*
X126674999Y-80000279D01*
X126455023Y-80019524D01*
X126455013Y-80019526D01*
X126241729Y-80076675D01*
X126241720Y-80076679D01*
X126041586Y-80170003D01*
X125976812Y-80215357D01*
X125976811Y-80215358D01*
X126577980Y-80816527D01*
X126537881Y-80822571D01*
X126412946Y-80882737D01*
X126311295Y-80977055D01*
X126241961Y-81097145D01*
X126225149Y-81170802D01*
X125623258Y-80568911D01*
X125623257Y-80568912D01*
X125577903Y-80633686D01*
X125484579Y-80833820D01*
X125484575Y-80833829D01*
X125427426Y-81047113D01*
X125427424Y-81047123D01*
X125408179Y-81267099D01*
X125408179Y-81267100D01*
X118502300Y-81267100D01*
X118502300Y-79461669D01*
X118799500Y-79461669D01*
X118799501Y-79461687D01*
X118809825Y-79562752D01*
X118833447Y-79634037D01*
X118864092Y-79726516D01*
X118954660Y-79873350D01*
X119076650Y-79995340D01*
X119223484Y-80085908D01*
X119387247Y-80140174D01*
X119488323Y-80150500D01*
X120061676Y-80150499D01*
X120061684Y-80150498D01*
X120061687Y-80150498D01*
X120117030Y-80144844D01*
X120162753Y-80140174D01*
X120326516Y-80085908D01*
X120473350Y-79995340D01*
X120595340Y-79873350D01*
X120685908Y-79726516D01*
X120740174Y-79562753D01*
X120750500Y-79461677D01*
X120750499Y-78863324D01*
X120749283Y-78851424D01*
X120740174Y-78762247D01*
X120707506Y-78663663D01*
X120685908Y-78598484D01*
X120660382Y-78557100D01*
X121350172Y-78557100D01*
X121369462Y-78851412D01*
X121369464Y-78851424D01*
X121427001Y-79140684D01*
X121427005Y-79140699D01*
X121521812Y-79419988D01*
X121652258Y-79684506D01*
X121652265Y-79684519D01*
X121816122Y-79929748D01*
X121845406Y-79963139D01*
X122634438Y-79174107D01*
X122683348Y-79253099D01*
X122826931Y-79410601D01*
X122985388Y-79530263D01*
X122198959Y-80316692D01*
X122198959Y-80316693D01*
X122232344Y-80345972D01*
X122232348Y-80345975D01*
X122477580Y-80509834D01*
X122477593Y-80509841D01*
X122742111Y-80640287D01*
X123021400Y-80735094D01*
X123021415Y-80735098D01*
X123310675Y-80792635D01*
X123310687Y-80792637D01*
X123605000Y-80811927D01*
X123899312Y-80792637D01*
X123899324Y-80792635D01*
X124188584Y-80735098D01*
X124188599Y-80735094D01*
X124467888Y-80640287D01*
X124732406Y-80509841D01*
X124732419Y-80509834D01*
X124977650Y-80345977D01*
X125011039Y-80316693D01*
X125011040Y-80316692D01*
X124224611Y-79530263D01*
X124383069Y-79410601D01*
X124526652Y-79253099D01*
X124575560Y-79174108D01*
X125364592Y-79963140D01*
X125364593Y-79963139D01*
X125393877Y-79929750D01*
X125557734Y-79684519D01*
X125557741Y-79684506D01*
X125688187Y-79419988D01*
X125782994Y-79140699D01*
X125782998Y-79140684D01*
X125840535Y-78851424D01*
X125840537Y-78851412D01*
X125859827Y-78557100D01*
X134490172Y-78557100D01*
X134509462Y-78851412D01*
X134509464Y-78851424D01*
X134567001Y-79140684D01*
X134567005Y-79140699D01*
X134661812Y-79419988D01*
X134792258Y-79684506D01*
X134792265Y-79684519D01*
X134956122Y-79929748D01*
X134985406Y-79963139D01*
X135774438Y-79174107D01*
X135823348Y-79253099D01*
X135966931Y-79410601D01*
X136125388Y-79530263D01*
X135338959Y-80316692D01*
X135338959Y-80316693D01*
X135372344Y-80345972D01*
X135372348Y-80345975D01*
X135617580Y-80509834D01*
X135617593Y-80509841D01*
X135882111Y-80640287D01*
X136161400Y-80735094D01*
X136161415Y-80735098D01*
X136450675Y-80792635D01*
X136450687Y-80792637D01*
X136745000Y-80811927D01*
X137039312Y-80792637D01*
X137039324Y-80792635D01*
X137328584Y-80735098D01*
X137328599Y-80735094D01*
X137607888Y-80640287D01*
X137872406Y-80509841D01*
X137872419Y-80509834D01*
X138117650Y-80345977D01*
X138151039Y-80316693D01*
X138151040Y-80316692D01*
X137364611Y-79530263D01*
X137523069Y-79410601D01*
X137666652Y-79253099D01*
X137715560Y-79174108D01*
X138504592Y-79963140D01*
X138504593Y-79963139D01*
X138533877Y-79929750D01*
X138697734Y-79684519D01*
X138697741Y-79684506D01*
X138828187Y-79419988D01*
X138922994Y-79140699D01*
X138922998Y-79140684D01*
X138980535Y-78851424D01*
X138980537Y-78851412D01*
X138999827Y-78557100D01*
X138980537Y-78262787D01*
X138980535Y-78262775D01*
X138922998Y-77973515D01*
X138922994Y-77973500D01*
X138828187Y-77694211D01*
X138697741Y-77429693D01*
X138697734Y-77429680D01*
X138533875Y-77184448D01*
X138533872Y-77184444D01*
X138504593Y-77151059D01*
X138504592Y-77151059D01*
X137715560Y-77940091D01*
X137666652Y-77861101D01*
X137523069Y-77703599D01*
X137364610Y-77583935D01*
X138151039Y-76797506D01*
X138117648Y-76768222D01*
X137872419Y-76604365D01*
X137872406Y-76604358D01*
X137607888Y-76473912D01*
X137328599Y-76379105D01*
X137328584Y-76379101D01*
X137039324Y-76321564D01*
X137039312Y-76321562D01*
X136745000Y-76302272D01*
X136450687Y-76321562D01*
X136450675Y-76321564D01*
X136161415Y-76379101D01*
X136161400Y-76379105D01*
X135882111Y-76473912D01*
X135617593Y-76604358D01*
X135617580Y-76604365D01*
X135372350Y-76768223D01*
X135338958Y-76797506D01*
X136125388Y-77583936D01*
X135966931Y-77703599D01*
X135823348Y-77861101D01*
X135774439Y-77940091D01*
X134985406Y-77151058D01*
X134956123Y-77184450D01*
X134792265Y-77429680D01*
X134792258Y-77429693D01*
X134661812Y-77694211D01*
X134567005Y-77973500D01*
X134567001Y-77973515D01*
X134509464Y-78262775D01*
X134509462Y-78262787D01*
X134490172Y-78557100D01*
X125859827Y-78557100D01*
X125840537Y-78262787D01*
X125840535Y-78262775D01*
X125782998Y-77973515D01*
X125782994Y-77973500D01*
X125688187Y-77694211D01*
X125557741Y-77429693D01*
X125557734Y-77429680D01*
X125393875Y-77184448D01*
X125393872Y-77184444D01*
X125364593Y-77151059D01*
X125364592Y-77151059D01*
X124575560Y-77940091D01*
X124526652Y-77861101D01*
X124383069Y-77703599D01*
X124224610Y-77583935D01*
X125011039Y-76797506D01*
X124977648Y-76768222D01*
X124732419Y-76604365D01*
X124732406Y-76604358D01*
X124467888Y-76473912D01*
X124188599Y-76379105D01*
X124188584Y-76379101D01*
X123899324Y-76321564D01*
X123899312Y-76321562D01*
X123605000Y-76302272D01*
X123310687Y-76321562D01*
X123310675Y-76321564D01*
X123021415Y-76379101D01*
X123021400Y-76379105D01*
X122742111Y-76473912D01*
X122477593Y-76604358D01*
X122477580Y-76604365D01*
X122232350Y-76768223D01*
X122198958Y-76797506D01*
X122985388Y-77583936D01*
X122826931Y-77703599D01*
X122683348Y-77861101D01*
X122634439Y-77940091D01*
X121845406Y-77151058D01*
X121816123Y-77184450D01*
X121652265Y-77429680D01*
X121652258Y-77429693D01*
X121521812Y-77694211D01*
X121427005Y-77973500D01*
X121427001Y-77973515D01*
X121369464Y-78262775D01*
X121369462Y-78262787D01*
X121350172Y-78557100D01*
X120660382Y-78557100D01*
X120595340Y-78451650D01*
X120481371Y-78337681D01*
X120447886Y-78276358D01*
X120452870Y-78206666D01*
X120481371Y-78162319D01*
X120595340Y-78048350D01*
X120685908Y-77901516D01*
X120740174Y-77737753D01*
X120750500Y-77636677D01*
X120750499Y-77038324D01*
X120740174Y-76937247D01*
X120685908Y-76773484D01*
X120595340Y-76626650D01*
X120473350Y-76504660D01*
X120326516Y-76414092D01*
X120162753Y-76359826D01*
X120162751Y-76359825D01*
X120061678Y-76349500D01*
X119488330Y-76349500D01*
X119488312Y-76349501D01*
X119387247Y-76359825D01*
X119223484Y-76414092D01*
X119223481Y-76414093D01*
X119076648Y-76504661D01*
X118954661Y-76626648D01*
X118864093Y-76773481D01*
X118864092Y-76773484D01*
X118809826Y-76937247D01*
X118809826Y-76937248D01*
X118809825Y-76937248D01*
X118799500Y-77038315D01*
X118799500Y-77636669D01*
X118799501Y-77636687D01*
X118809825Y-77737752D01*
X118846109Y-77847249D01*
X118864092Y-77901516D01*
X118950931Y-78042305D01*
X118954661Y-78048351D01*
X119068629Y-78162319D01*
X119102114Y-78223642D01*
X119097130Y-78293334D01*
X119068629Y-78337681D01*
X118954661Y-78451648D01*
X118864093Y-78598481D01*
X118864092Y-78598484D01*
X118809826Y-78762247D01*
X118809826Y-78762248D01*
X118809825Y-78762248D01*
X118799500Y-78863315D01*
X118799500Y-79461669D01*
X118502300Y-79461669D01*
X118502300Y-75469900D01*
X118521985Y-75402861D01*
X118574789Y-75357106D01*
X118626300Y-75345900D01*
X142293700Y-75345900D01*
X142360739Y-75365585D01*
G37*
%TD.AperFunction*%
%TD*%
M02*
